<svg id="egypt_1_" data-name="egypt (1)" xmlns="http://www.w3.org/2000/svg" width="139.379" height="139.379" viewBox="0 0 139.379 139.379">
  <ellipse id="Ellipse_1148" data-name="Ellipse 1148" cx="69.687" cy="69.686" rx="69.687" ry="69.686" transform="translate(0.006 0.006)" fill="#fff"/>
  <path id="Path_25552" data-name="Path 25552" d="M357.158,157.875H314.22a192.682,192.682,0,0,1,.036,46.2H357.25a69.755,69.755,0,0,0-.091-46.2Z" transform="translate(-221.762 -111.421)" fill="#efecec"/>
  <path id="Path_25553" data-name="Path 25553" d="M274.624,47.14h42.937a.462.462,0,0,0-.022-.061A69.729,69.729,0,0,0,258.115.972C268.781,6.82,271.9,25.345,274.624,47.14Z" transform="translate(-182.165 -0.686)" fill="#c42b27"/>
  <path id="Path_25554" data-name="Path 25554" d="M258.115,361.312a69.735,69.735,0,0,0,59.474-46.243c.023-.067.043-.133.067-.2H274.661C271.955,336.784,268.826,355.44,258.115,361.312Z" transform="translate(-182.165 -222.221)" fill="#0b0b0b"/>
  <path id="Path_25555" data-name="Path 25555" d="M0,181.111a69.589,69.589,0,0,0,3.89,22.959H96.082a192.7,192.7,0,0,0-.034-46.2H3.982A69.544,69.544,0,0,0,0,181.111Z" transform="translate(0 -111.421)" fill="#efefef"/>
  <path id="Path_25556" data-name="Path 25556" d="M13.555,46.394c-.006.02-.013.039-.022.061H105.6C102.87,24.659,96.166,6.134,85.5.286,83.436.1,81.35,0,79.239,0A69.7,69.7,0,0,0,13.555,46.394Z" transform="translate(-9.551 0)" fill="#cc3434"/>
  <path id="Path_25557" data-name="Path 25557" d="M105.411,314.871H13.219c.023.065.045.131.067.2A69.708,69.708,0,0,0,79.018,361.6c2.111,0,4.2-.1,6.26-.288C95.99,355.44,102.705,336.784,105.411,314.871Z" transform="translate(-9.329 -222.221)" fill="#151515"/>
  <g id="Group_17303" data-name="Group 17303" transform="translate(55.893 53.624)">
    <path id="Path_25558" data-name="Path 25558" d="M217.35,214.517a18.837,18.837,0,0,0-3.1-.1c-.192.112-.167.442-.253.662.1.2.3.092.509.253.318.3.535.717,1.017.864-.415.435-.4,1.292-1.017,1.526.1,1-.546,1.175-1.526,1.371a59.739,59.739,0,0,1-16.977.354,8.482,8.482,0,0,1-2.9-.76.949.949,0,0,1-.253-.866c-.589-.293-.6-1.168-1.066-1.576.658-.223.784-.976,1.526-1.118a2.275,2.275,0,0,0-.155-.711,20.4,20.4,0,0,0-3.2.1c.082-1.137.108-2.428.2-3.761.129-1.781.11-3.869.253-5.642.075-.9.045-1.84.1-2.744.106-1.718.03-3.423.153-5.033.131-1.736.07-3.592.2-5.233.135-1.7.6-3.062,2.591-2.9,2.356.2,3.836,2.169,6.4,2.185,1.193-.737,2.061-3.6,1.728-5.743-.153-.99-1.2-2.422-2.235-1.881-.153-1.67,1.438-1.446,2.489-.915.32-.2.415-.482.763-.559a3.825,3.825,0,0,1,2.39.458,3.292,3.292,0,0,1,1.17,2.949c0,.711-.161,1.418-.1,2.134a6.406,6.406,0,0,0,1.272,3.508c2.385.219,4.139-1.906,6.454-2.136a2.337,2.337,0,0,1,2.237.915c.658,2.442.449,5.139.66,7.879.127,1.642.052,3.357.153,5.033C217.072,206.82,217.185,210.624,217.35,214.517Zm-11.437-26.584c-.1-1.38.28-2.859-.2-4.118-.226-.215-.357-.525-.662-.66h-.76c-.381.2-.521.627-.915.711-.94.2-1.015-.692-1.728-.965-.185-.073-.436-.032-.662-.1-.681-.208-1.085-.451-1.423.509,1.244-.073,2.356.329,2.643,1.373-.711-.2-.512.44-.458.862a7.553,7.553,0,0,1-.915,4.932c-.338.548-.771.976-1.017,1.474.739-.137,1.407-.095,1.779-.561.5-.621.391-1.949.711-2.693a5.493,5.493,0,0,1-1.218,3.608c1.811-.255,2.126-1.766,2.287-3.608a4.8,4.8,0,0,1-.408,2.541c.234.293.368.686.713.866a2.479,2.479,0,0,0,.66-.915,3.866,3.866,0,0,1-.3-2.491c-.023,1.955.512,3.353,2.187,3.608a5.059,5.059,0,0,1-1.12-3.66,8.22,8.22,0,0,0,.66,2.8,3.614,3.614,0,0,0,1.781.509A7.07,7.07,0,0,1,205.913,187.933Zm-3.2-4.625v.2c.122-.02.11.095.252.052a.312.312,0,0,0,.052-.253A.25.25,0,0,0,202.713,183.308Zm-9.811,6.048a1.942,1.942,0,0,0-1.728,2.136c.492-.169.961-.629,1.474-.611-.275,7.649-.611,14.607-.915,22.162a6.025,6.025,0,0,0-1.321,1.27h2.744c.144-1.213,1.507-1.461,2.643-1.12.539-1.865,1.087-3.723,1.578-5.642-.5.309-.763.864-1.272,1.17.183-4.891.43-9.651.611-14.638a4.47,4.47,0,0,0,3.3.458,10.145,10.145,0,0,0,3.709-1.627,8.3,8.3,0,0,0,4.575,1.728,5.53,5.53,0,0,0,2.338-.458c.106,4.984.462,9.858.559,14.589a14.262,14.262,0,0,0-1.218-1.171c.449,1.923,1.033,3.712,1.524,5.592,1.184-.374,2.491-.049,2.695,1.12.9-.034,1.93.067,2.742-.052-.32-.568-1.109-.731-1.319-1.321a10.281,10.281,0,0,1-.1-2.543c-.28-6.147-.67-13.407-.814-19.566a15.468,15.468,0,0,1,1.474.66c-.114-1.225-.623-2.059-1.779-2.136-2.631-.176-4.148,2.244-6.81,2.185,0,.322.518.4.458.611a7.729,7.729,0,0,1-1.779-.253c-.049.282.462.41.507.76a4.536,4.536,0,0,1-2.388-1.168,4.709,4.709,0,0,1-.763.965,6.04,6.04,0,0,0-.763-.965,3.313,3.313,0,0,1-2.336,1.118c.149-.257.455-.357.507-.711a4.609,4.609,0,0,1-1.779.2c.157-.185.426-.253.458-.561C197.189,191.613,195.43,189.161,192.9,189.356Zm4.93,5.492c.1,5.572,2.226,9.565,5.895,11.741,3.5-2.3,5.716-6.144,5.745-11.741a10.478,10.478,0,0,1-4.167-.763c-.625-.268-1.227-.763-1.728-.915A9.026,9.026,0,0,1,197.832,194.848Zm.1,3.709c-.047,2.469-.442,5.484-.253,8.031.518-1.373.374-3.114.458-4.93.056-1.216.3-2.446-.153-3.254A.24.24,0,0,1,197.933,198.557Zm11.285,4.575a8.118,8.118,0,0,0,.507,3.506c.052-2.7-.288-5.515-.3-8.184-.067,0-.07-.063-.153-.049C208.917,199.746,209.218,201.475,209.218,203.133Zm-10.471,2.9c.438-.494.927-.937,1.321-1.477a3.93,3.93,0,0,0-.915-2.59C198.995,203.268,197.739,204.953,198.747,206.03Zm8.539-1.425c.478.44.886,1.215,1.423,1.425.758-1.236-.336-2.562-.455-3.966-.067,0-.073-.067-.155-.049A4.045,4.045,0,0,0,207.286,204.605Zm-6.811,2.289a14.092,14.092,0,0,0,1.27-1.627c-.632-.5-1.092-1.177-1.676-1.73C200.2,204.66,200.273,205.839,200.475,206.894Zm5.134-1.578a8.591,8.591,0,0,0,1.321,1.578c.1-1.1.187-2.218.354-3.254,0-.063-.015-.12-.1-.1A17.4,17.4,0,0,1,205.609,205.316Zm-7.015,1.017c-.063-.327-.235-.543-.3-.862a6.974,6.974,0,0,0-.711,2.235c-.082.284-.277.516-.253.814.582-.25.821-.841,1.423-1.068a12.653,12.653,0,0,0,.507,1.321c.471-.226.449-.941.866-1.22.23.819.471,1.629.76,2.39.541-.458,1.159-.843,1.321-1.678-.3-.694-.584-1.414-.864-2.134-.413.282-.674.986-1.017,1.17a7.858,7.858,0,0,0-.357-2.44A9.373,9.373,0,0,1,198.594,206.333Zm8.438,1.017c-.37-.376-.625-.864-1.017-1.218-.146.333-.318.662-.458,1.017a4.4,4.4,0,0,0-.406,1.118c-.039.8.841,1.171,1.321,1.678a14.573,14.573,0,0,1,.66-2.39c.316.4.458.967.915,1.22.235-.426.4-.924.611-1.373a13.572,13.572,0,0,0,1.321,1.12,17.827,17.827,0,0,0-.915-3.1,4,4,0,0,1-.406.913,13.613,13.613,0,0,0-1.373-1.423A16.16,16.16,0,0,0,207.032,207.349Zm-5.185-1.93c-.823.586.09,1.777.408,2.442.144-.586.277-1.182.406-1.781C202.382,205.868,202.113,205.645,201.847,205.419Zm2.847.711a6.1,6.1,0,0,0,.458,1.73c.284-.6.494-1.27.76-1.883-.144-.21-.237-.475-.507-.559C205.283,205.769,204.835,205.8,204.694,206.13Zm-6.15,1.524a5.191,5.191,0,0,1-1.321,1.12c-.354,1.025.378,1.9.711,2.693.462-.336.66-.935,1.12-1.27a7.684,7.684,0,0,0,.611,1.728c.5-.35.784-1.177,1.268-1.371a3.835,3.835,0,0,0,.408,1.576c.18-.972.413-1.891.609-2.848-.41.084-.71.711-1.118.967-.282-.735-.464-1.567-.76-2.289-.4.28-.456.9-.814,1.22A4.738,4.738,0,0,0,198.544,207.654ZM208,209.18c-.29-.421-.462-.958-.915-1.22-.183.765-.391,1.507-.557,2.289-.424-.243-.708-.886-1.12-.967a13.227,13.227,0,0,0,.711,2.9,9.357,9.357,0,0,1,.357-1.676c.458.44.7,1.1,1.27,1.423.159-.6.376-1.148.559-1.728.43.368.634.958,1.12,1.27.282-.817,1-1.578.71-2.641-.528-.336-.922-.805-1.423-1.171C208.412,208.1,208.3,208.74,208,209.18Zm-5.538,4.014c-.262.146-.447.37-.713.509-.108-.127-.421-.541-.507-.357-.07.2-.079.464-.153.662.485.045,1.445-.142,1.676.3.688-.095,1.242.129,1.779,0,.2-.049.357-.266.559-.3.378-.075.746.067,1.12,0-.069-.221-.015-.561-.155-.711-.333-.013-.275.365-.608.354-.174-.232-.488-.327-.662-.559-.194-1.414-.316-2.9-.608-4.219-.116,1.405.207,2.807.151,4.32-.273.235-.4.613-.711.814-.116-.34-.578-.514-.662-.965-.221-1.242.462-3.168.155-4.169C202.833,210.249,202.77,211.848,202.459,213.194Zm-6.508.052a1.252,1.252,0,0,0,.864.2,8.209,8.209,0,0,1,.965-1.218,11.815,11.815,0,0,0,.613,1.576h.354c.275-.333.428-.791.711-1.118.178.4.264.888.455,1.27a3.468,3.468,0,0,0,.915.052,3.94,3.94,0,0,0-.049-3.15c-.467.415-.742,1.019-1.22,1.423a5.129,5.129,0,0,0-.662-1.728c-.354.4-.672.848-1.015,1.27-.361-.638-.462-1.538-.967-2.034C196.643,210.989,196.3,212.118,195.951,213.246Zm13.471-1.423a5.843,5.843,0,0,0-1.068-1.27c-.3.5-.345,1.249-.662,1.728-.391-.44-.744-1.184-1.218-1.373-.235,1.037-.541,2.235.052,3.1a3.074,3.074,0,0,0,.864-.052c.234-.357.273-.911.507-1.27.215.378.445.739.66,1.118h.406a16.1,16.1,0,0,1,.662-1.627,7.455,7.455,0,0,0,.965,1.321c.284-.073.643-.069.763-.3-.345-1.1-.632-2.248-.965-3.353h-.153C209.994,210.531,209.71,211.181,209.422,211.823Zm-12.454,1.729a10.453,10.453,0,0,0,1.22.2,2.85,2.85,0,0,0-.559-1.218C197.457,212.922,197.1,213.124,196.968,213.552Zm12.2.2a9.508,9.508,0,0,0,1.17-.2c-.039-.307-.435-.679-.66-.965C209.356,212.825,209.289,213.32,209.166,213.753Zm-10.217.1c.167.1.516.027.763.052-.1-.295-.079-.7-.354-.814A2.556,2.556,0,0,0,198.95,213.857Zm8.693.052h.711a.954.954,0,0,0-.509-.814C207.832,213.4,207.57,213.683,207.643,213.909Zm4.931-.714a38.3,38.3,0,0,1-4.219.866,21.1,21.1,0,0,1-3.254.1c-.3.323-.144.692.052,1.017a11.812,11.812,0,0,0,3.2-.052c-.056-1.078,1.225-1.346,1.371-.2a13.548,13.548,0,0,0,3.2-.814C212.936,213.681,212.934,213.257,212.573,213.194Zm-14.537.764c-.872-.124-2.048-.537-2.848-.711-.453-.1-.589-.018-.76.2v.713a16.72,16.72,0,0,0,3.2.763c.095-1.148,1.384-.933,1.319.2a11.91,11.91,0,0,0,3.2.052c.226-.357.374-.619.1-1.017A23.456,23.456,0,0,1,198.036,213.958Zm-4.625.61a2.121,2.121,0,0,0,.864-.458c-.023-.247.052-.6-.052-.763A.949.949,0,0,0,193.412,214.568Zm19.669-.406a2.4,2.4,0,0,0,.864.406.992.992,0,0,0-.812-1.22C213.027,213.53,213.1,213.9,213.08,214.162Zm-14.791,1.371a2.122,2.122,0,0,1,.406-.3,1.127,1.127,0,0,0-.2-.913C197.6,214.19,197.633,215.434,198.289,215.533Zm10.318-.355c.073.176.307.214.507.354.208-.114.307-.338.458-.507C209.547,213.911,208.269,214.366,208.608,215.178Zm-11.081-.1c-1.354-.045-2.717-.995-3.914-.406-.039.247-.221.352-.153.71-.573-.061-1.233.7-1.27.967-.079.578.5,1,.812,1.373a1.25,1.25,0,0,0,.153.81c4.3,1.425,11.412,1.455,16.722.866,1.56-.174,4.047-.333,4.474-1.22v-.611c.563-.149.654-.767.812-1.321-.451-.295-.6-.886-1.321-.913.142-.2-.1-.391-.1-.611-.634-.539-1.391-.144-2.287.049-1.231.268-2.038.271-2.34,1.171-.127-.314-.43-.451-.66-.662a10.56,10.56,0,0,1-3.252.052c-.264.413-.845.509-.915,1.118a2.539,2.539,0,0,1-.357-1.22h-.507a2.752,2.752,0,0,1-.408,1.22c-.041-.619-.645-.674-.862-1.118a14.181,14.181,0,0,1-3.256,0c-.348.108-.5.415-.76.611C198.1,215.49,197.731,215.365,197.527,215.077Zm5.54-.612a2.154,2.154,0,0,0,.357.613c.619.127.674-.307.864-.613A3.045,3.045,0,0,0,203.067,214.465Zm-.712.866a1.931,1.931,0,0,0,.763.559c.2-.527.061-1.308-.509-1.373C202.654,214.919,202.312,214.931,202.355,215.331Zm2.187-.814c-.316.228-.713,1.073-.2,1.373.194-.25.539-.342.662-.662C204.786,215.052,204.833,214.613,204.542,214.517Z" transform="translate(-189.953 -182.241)" fill="#eebc31"/>
    <path id="Path_25559" data-name="Path 25559" d="M198.767,232.418a14.967,14.967,0,0,1-1.728,1.472c.241-6.938.683-14.066.915-21.245a7.024,7.024,0,0,1,1.576,1.321C199.311,220.174,199.023,225.863,198.767,232.418Z" transform="translate(-194.955 -203.699)" fill="#eebc31"/>
    <path id="Path_25560" data-name="Path 25560" d="M269.953,233.724c-.29.056-.573-.419-.864-.662a4.378,4.378,0,0,1-.915-.812c-.32-5.236-.243-10.761-.662-15.755a13.271,13.271,0,0,1-.1-2.593c.16-.619,1.211-.855,1.526-1.421C269.325,218.856,269.59,226.855,269.953,233.724Z" transform="translate(-244.589 -203.582)" fill="#eebc31"/>
    <path id="Path_25561" data-name="Path 25561" d="M205.226,218.352a10.327,10.327,0,0,1,1.27,1.017c-.122,4.086-.378,8.977-.559,13.06a8.371,8.371,0,0,1-.052,2.085c-.215.591-1.044.909-1.423,1.423C204.684,230.017,205.03,224.152,205.226,218.352Z" transform="translate(-200.193 -207.726)" fill="#eebc31"/>
    <path id="Path_25562" data-name="Path 25562" d="M263.8,235.947c-.067.07-.208-.108-.3-.2-.3-.3-.72-.755-1.017-1.066-.257-4.972-.453-10.159-.66-15.1a5.439,5.439,0,0,1,1.17-1.068C263.283,223.86,263.542,230.212,263.8,235.947Z" transform="translate(-240.671 -207.839)" fill="#eebc31"/>
    <path id="Path_25563" data-name="Path 25563" d="M228.641,222.168c-.077,5.207-2.115,8.9-5.337,11.13-3.292-2.263-5.218-5.895-5.54-11.13a9.56,9.56,0,0,0,5.54-1.576A8.771,8.771,0,0,0,228.641,222.168Zm-7.167-.357c-.09,2.081-.049,4.883-.049,7.168a11.55,11.55,0,0,0,0,2.44c.09.327.6.629.864.864a5.807,5.807,0,0,0,.965.763c.5-.39,1.707-.985,1.883-1.627a11.493,11.493,0,0,0,0-2.388v-7.22c-.66-.325-1.281-.686-1.932-1.017C222.738,221.246,221.975,221.4,221.474,221.811Z" transform="translate(-209.581 -209.307)" fill="#eebc31"/>
    <path id="Path_25564" data-name="Path 25564" d="M206.542,288.477c.318.106.821.025.864.408-.268.1-.485-.25-.864-.2Z" transform="translate(-201.661 -257.217)" fill="#eebc31"/>
    <path id="Path_25565" data-name="Path 25565" d="M264.58,288.663a3.408,3.408,0,0,1-.864.354C263.707,288.663,264.4,288.491,264.58,288.663Z" transform="translate(-242.011 -257.301)" fill="#eebc31"/>
    <path id="Path_25566" data-name="Path 25566" d="M211.725,290.208a1.737,1.737,0,0,1,1.066.354C212.458,290.575,211.792,290.493,211.725,290.208Z" transform="translate(-205.319 -258.439)" fill="#eebc31"/>
    <path id="Path_25567" data-name="Path 25567" d="M258.786,290.318a1.686,1.686,0,0,1-1.12.3A1.446,1.446,0,0,1,258.786,290.318Z" transform="translate(-237.742 -258.499)" fill="#eebc31"/>
    <path id="Path_25568" data-name="Path 25568" d="M249.284,292.033a2.535,2.535,0,0,1-1.12,0C248.252,291.689,249.17,291.719,249.284,292.033Z" transform="translate(-231.036 -259.553)" fill="#eebc31"/>
    <path id="Path_25569" data-name="Path 25569" d="M222.444,291.936c-.1.376-.814.135-1.22.2C221.256,291.683,222.1,291.936,222.444,291.936Z" transform="translate(-212.023 -259.609)" fill="#eebc31"/>
    <path id="Path_25570" data-name="Path 25570" d="M227.983,292.3a1.931,1.931,0,0,1-1.068.151C227.017,292.172,227.69,292.2,227.983,292.3Z" transform="translate(-216.039 -259.866)" fill="#eebc31"/>
    <path id="Path_25571" data-name="Path 25571" d="M243.536,292.476a10.606,10.606,0,0,1-1.068-.153C242.66,292.142,243.536,292.127,243.536,292.476Z" transform="translate(-227.016 -259.843)" fill="#eebc31"/>
    <path id="Path_25572" data-name="Path 25572" d="M258.8,295.548c.23-.006.106-.37.354-.357-.036.155.052.185.049.3a1,1,0,0,1-.913.1c-.4.212-.895.945-1.423.406-.365.061-.311.535-.611.662-.406-.32-.755-.163-1.373-.1-.183.208-.2.58-.559.611.022-.232.3-.207.3-.455-.056-.165-.345-.095-.458-.2-.095-.417.23-.415.357-.611.232.056.252.322.3.561a1.158,1.158,0,0,0,.458-.1,1.2,1.2,0,0,1,.354-.66c-.009-.282-.183-.665-.153-.814.29.067.151.563.3.763.391-.036.623.09.711.354.4-.151.514-.611,1.017-.608.221,0,.34.194.559.153.061-.674-.116-2.061-.965-1.526.039-.266.415-.2.711-.2C258.36,294.185,257.848,295.6,258.8,295.548Zm-1.78.406c.234.21.823.1.763-.3C257.636,295.393,256.916,295.5,257.016,295.954Zm-1.016.253a1.859,1.859,0,0,0,.354-.1C256.355,295.526,255.543,295.814,256,296.207Zm-.458.153c.127.009.157-.079.253-.1,0-.165.022-.357-.153-.354C255.551,295.993,255.405,296.2,255.543,296.36Zm-1.221.1c.157.07.23.022.357-.052,0-.12-.088-.151-.052-.3C254.416,296.117,254.283,296.2,254.321,296.464Zm1.729,0a.221.221,0,0,0,.357-.207C256.249,296.289,256.048,296.27,256.05,296.464Z" transform="translate(-235.261 -260.983)" fill="#eebc31"/>
    <path id="Path_25573" data-name="Path 25573" d="M206.133,294.5v.253c-.073.079-.26.045-.406.052-.043-.18-.006-.126-.049-.3A.361.361,0,0,1,206.133,294.5Z" transform="translate(-201.051 -261.414)" fill="#eebc31"/>
    <path id="Path_25574" data-name="Path 25574" d="M205.784,296.632c.006.09-.063.108-.052.2-.207,0-.4-.006-.406-.2A.482.482,0,0,1,205.784,296.632Z" transform="translate(-200.803 -262.932)" fill="#eebc31"/>
    <path id="Path_25575" data-name="Path 25575" d="M243.025,298.155h.2a.4.4,0,0,1,0,.406h-.2A.4.4,0,0,1,243.025,298.155Z" transform="translate(-227.37 -264.048)" fill="#eebc31"/>
    <path id="Path_25576" data-name="Path 25576" d="M217.33,298.495c.157.662.271,2.091-.3,2.185s-.408-.773-.965-.814a1.505,1.505,0,0,1-1.118.1c-.253.018-.212.329-.458.357.327-.338.189-.767.153-1.171.273.032.311.3.3.613.146.307.758.1.965,0-.11-.214-.247-.4-.357-.613.311-.082.311-.37.611-.354a.531.531,0,0,1,.1,1.017c.333.125.374.541.662.711C217.6,300.384,217.1,299.085,217.33,298.495Zm-1.523.813c-.009.194.167.3.354.408C217.018,299.331,215.839,298.493,215.807,299.308Z" transform="translate(-207.266 -264.288)" fill="#eebc31"/>
    <path id="Path_25577" data-name="Path 25577" d="M226.024,298.495c.165.35-.058,1.152-.1,1.628A4.223,4.223,0,0,1,226.024,298.495Z" transform="translate(-215.297 -264.288)" fill="#eebc31"/>
    <path id="Path_25578" data-name="Path 25578" d="M244.358,298.495c.34.338-.061,1.416.354,1.676.348-.1.582-.056.662-.354.07-.264-.295-.421-.1-.611.453.022.153.66.1.915a3.479,3.479,0,0,1-1.526.1c.028-.26.3-.275.509-.357C244.549,299.428,244.248,298.85,244.358,298.495Z" transform="translate(-227.99 -264.288)" fill="#eebc31"/>
    <path id="Path_25579" data-name="Path 25579" d="M243.47,300.307c.032.3-.615.126-.406-.052C243.137,300.187,243.466,300.152,243.47,300.307Z" transform="translate(-227.407 -265.489)" fill="#eebc31"/>
    <path id="Path_25580" data-name="Path 25580" d="M250.723,302.489a2.764,2.764,0,0,1,.357-.662c-.142-.284-.7-.55-.307-.915C251.553,301.028,251.186,302.3,250.723,302.489Zm.049-1.324c.025.2.106.338.307.357C251.2,301.372,250.971,301,250.772,301.165Z" transform="translate(-232.779 -265.993)" fill="#eebc31"/>
    <path id="Path_25581" data-name="Path 25581" d="M268.891,301.384c0,.3-.363.2-.507.1C268.463,301.2,268.723,301.286,268.891,301.384Z" transform="translate(-245.306 -266.261)" fill="#eebc31"/>
    <path id="Path_25582" data-name="Path 25582" d="M228.677,301.434a2.261,2.261,0,0,0,1.93.253c.149.142.133.445.255.611a.433.433,0,0,1,.3-.052c-.106-.6.735-.753.711-.1-.155.288-.611.271-1.068.255-.208.114-.208.435-.406.557a.6.6,0,0,1-.458-.455,7.992,7.992,0,0,0-1.627-.1c-.2.241-.4.739-.711.711.149-.26.438-.374.509-.711-.095-.194-.449-.345-.255-.662.488-.079.25.566.66.559C228.954,302.122,228.623,301.717,228.677,301.434Zm.153.864c.275,0,.742.009,1.118.052.159.129.178.4.406.458.167-.221.456-.638.2-.965C230,302.305,228.776,301.24,228.83,302.3Zm2.54-.052c.264.045.361-.079.357-.3C231.533,301.683,231.189,301.982,231.369,302.246Z" transform="translate(-216.527 -266.362)" fill="#eebc31"/>
    <path id="Path_25583" data-name="Path 25583" d="M205.8,302.272c.161-.043.157.079.253.1a.825.825,0,0,1-.1.354C205.658,302.689,205.658,302.433,205.8,302.272Z" transform="translate(-201.072 -266.947)" fill="#eebc31"/>
    <path id="Path_25584" data-name="Path 25584" d="M207.86,302.964c.215.352-.3.541-.458.253C207.422,303,207.582,302.922,207.86,302.964Z" transform="translate(-202.268 -267.434)" fill="#eebc31"/>
    <path id="Path_25585" data-name="Path 25585" d="M210.445,303.684c-.049,0-.041.063-.052.1h-.357C209.8,303.368,210.465,303.219,210.445,303.684Z" transform="translate(-204.09 -267.747)" fill="#eebc31"/>
    <path id="Path_25586" data-name="Path 25586" d="M245.153,305.406c.271.006.239.44.052.509C245,305.888,245.014,305.5,245.153,305.406Z" transform="translate(-228.837 -269.165)" fill="#eebc31"/>
    <path id="Path_25587" data-name="Path 25587" d="M246.973,306.006c-.149-.056-.3-.108-.354-.253C246.773,305.267,247.4,305.7,246.973,306.006Z" transform="translate(-229.945 -269.256)" fill="#eebc31"/>
    <path id="Path_25588" data-name="Path 25588" d="M206.39,294.7h.153c.015.7-1.046,1.9.153,1.982.2-.125.088-.555.354-.611.03.268-.1.372-.153.559.232.651,1.4.282.915-.456.57.009.122.617.049.864a1.168,1.168,0,0,1-1.066-.2c-.566-.045-1.064-.157-1.118-.711C206.185,295.917,206.3,295.317,206.39,294.7Z" transform="translate(-201.051 -261.609)" fill="#eebc31"/>
  </g>
</svg>
