<svg id="kuwait" xmlns="http://www.w3.org/2000/svg" width="139.379" height="139.379" viewBox="0 0 139.379 139.379">
  <ellipse id="Ellipse_1173" data-name="Ellipse 1173" cx="69.686" cy="69.686" rx="69.686" ry="69.686" transform="translate(0.006 0.006)" fill="#fff"/>
  <path id="Path_26394" data-name="Path 26394" d="M357.158,157.875H314.22a192.674,192.674,0,0,1,.036,46.2H357.25a69.756,69.756,0,0,0-.091-46.2Z" transform="translate(-221.762 -111.421)" fill="#e4e4e4"/>
  <path id="Path_26395" data-name="Path 26395" d="M274.624,47.14h42.937a.477.477,0,0,0-.022-.061A69.729,69.729,0,0,0,258.115.972C268.781,6.82,271.9,25.345,274.624,47.14Z" transform="translate(-182.166 -0.686)" fill="#258f44"/>
  <path id="Path_26396" data-name="Path 26396" d="M258.115,361.312a69.735,69.735,0,0,0,59.474-46.243c.023-.067.043-.133.067-.2H274.661C271.955,336.784,268.826,355.44,258.115,361.312Z" transform="translate(-182.166 -222.221)" fill="#d32027"/>
  <path id="Path_26397" data-name="Path 26397" d="M229.762,157.875h-40.3v46.2H229.8A192.636,192.636,0,0,0,229.762,157.875Z" transform="translate(-133.714 -111.421)" fill="#efefef"/>
  <path id="Path_26398" data-name="Path 26398" d="M113.374,46.454h40.3c-2.729-21.795-9.432-40.321-20.1-46.168C131.51.1,129.424,0,127.313,0A69.365,69.365,0,0,0,81.65,17.071l31.724,29.08v.3Z" transform="translate(-57.625)" fill="#359846"/>
  <path id="Path_26399" data-name="Path 26399" d="M112.709,314.949l-32,29.334a69.37,69.37,0,0,0,45.94,17.313c2.111,0,4.2-.1,6.26-.288,10.711-5.871,17.428-24.528,20.133-46.441H112.709Z" transform="translate(-56.96 -222.218)" fill="#db2727"/>
  <path id="Path_26400" data-name="Path 26400" d="M24.025,58.016A69.817,69.817,0,0,0,4,87.339c-.006.02-.013.039-.022.061a69.746,69.746,0,0,0-.092,46.2c.023.065.045.131.067.2a69.8,69.8,0,0,0,19.791,29.218l32-29.333V87.1Z" transform="translate(0 -40.945)" fill="#151515"/>
</svg>
