<svg xmlns="http://www.w3.org/2000/svg" width="139.645" height="139.646" viewBox="0 0 139.645 139.646">
  <g id="pakistan" transform="translate(0)">
    <path id="Path_25604" data-name="Path 25604" d="M0,94.2a69.785,69.785,0,0,0,33.575,59.689V34.516A69.781,69.781,0,0,0,0,94.2Z" transform="translate(-0.002 -24.381)" fill="#f3f4f5"/>
    <g id="Group_17308" data-name="Group 17308" transform="translate(67.057 0)">
      <path id="Path_25605" data-name="Path 25605" d="M237.788,0s25.926,95.139,27,96.21a32.99,32.99,0,0,0,28.7-23.559,39.959,39.959,0,0,1-31.577,37.477l-24.121,29.516A69.822,69.822,0,1,0,237.788,0Z" transform="translate(-235.023)" fill="#036535"/>
      <path id="Path_25606" data-name="Path 25606" d="M228.876,475.4c-.168,0-.337-.013-.505-.02C228.54,475.389,228.708,475.4,228.876,475.4Z" transform="translate(-228.371 -335.795)" fill="#036535"/>
      <path id="Path_25607" data-name="Path 25607" d="M228.372.157c.168-.007.337-.013.505-.018C228.708.143,228.541.15,228.372.157Z" transform="translate(-228.372 -0.098)" fill="#036535"/>
    </g>
    <path id="Path_25608" data-name="Path 25608" d="M338.852,275.035a39.833,39.833,0,0,0,12.661-27.611,32.99,32.99,0,0,1-28.7,23.559,127.659,127.659,0,0,1-2.875,13.919A39.758,39.758,0,0,0,338.852,275.035Z" transform="translate(-225.993 -174.773)" fill="#f3f4f5"/>
    <g id="Group_17309" data-name="Group 17309" transform="translate(67.562 0)">
      <path id="Path_25609" data-name="Path 25609" d="M230.091.041c.751-.023,1.5-.041,2.26-.041C231.6,0,230.849.018,230.091.041Z" transform="translate(-230.091)" fill="#263778"/>
      <path id="Path_25610" data-name="Path 25610" d="M232.351,475.487c-.756,0-1.509-.015-2.26-.038Q231.227,475.486,232.351,475.487Z" transform="translate(-230.091 -335.843)" fill="#263778"/>
    </g>
    <path id="Path_25611" data-name="Path 25611" d="M174.715,110.128a39.967,39.967,0,1,1-7.206-79.034A33.011,33.011,0,0,0,177.59,96.21c6.249-40.992-2.746-96.21-27-96.21-.756,0-1.509.018-2.26.041-.168,0-.337.011-.505.018a69.455,69.455,0,0,0-33.481,10.077V129.512a69.451,69.451,0,0,0,33.481,10.075c.168.006.337.016.505.02.751.023,1.5.038,2.26.038C162.02,139.645,170.06,127.384,174.715,110.128Z" transform="translate(-80.772 0)" fill="#0c723e"/>
    <g id="Group_17310" data-name="Group 17310" transform="translate(45.623 31.078)">
      <path id="Path_25612" data-name="Path 25612" d="M179.466,160.624a33.013,33.013,0,0,1,17.025-54.766,39.966,39.966,0,1,0,7.2,79.034,127.436,127.436,0,0,0,2.875-13.919A32.952,32.952,0,0,1,179.466,160.624Z" transform="translate(-155.377 -105.842)" fill="#f3f4f5"/>
      <path id="Path_25613" data-name="Path 25613" d="M337.016,137.287l5.754,6.567,8.026-3.443-4.471,7.5,5.756,6.569-8.518-1.932-4.469,7.5-.8-8.694-8.514-1.934,8.026-3.443Z" transform="translate(-278.573 -128.054)" fill="#f3f4f5"/>
    </g>
  </g>
</svg>
