<svg xmlns="http://www.w3.org/2000/svg" width="123.448" height="135.606" viewBox="0 0 123.448 135.606">
  <g id="clock-needles" transform="translate(0 0)">
    <path id="Path_25440" data-name="Path 25440" d="M25.987,122.24c26.928,0,45.42,13.949,58.4,13.949s40.227-7.459,40.227-67.151S87.948.583,73.677.583C6.845.583-21.7,122.24,25.987,122.24Z" transform="translate(-1.161 -0.583)" fill="#efefef"/>
    <path id="Path_25441" data-name="Path 25441" d="M7.84,34.679a5.84,5.84,0,1,1,5.84-5.84A5.847,5.847,0,0,1,7.84,34.679Zm0-7.786A1.947,1.947,0,1,0,9.786,28.84,1.947,1.947,0,0,0,7.84,26.893Z" transform="translate(-2 64.27)" fill="#a4afc1"/>
    <path id="Path_25442" data-name="Path 25442" d="M39.724,16.171A17.469,17.469,0,1,0,16.171,39.724Z" transform="translate(11.742 17.258)" fill="#2fdf84"/>
    <path id="Path_25443" data-name="Path 25443" d="M44.333,39.724A17.469,17.469,0,1,0,20.78,16.171Z" transform="translate(52.331 17.258)" fill="#2fdf84"/>
    <ellipse id="Ellipse_1141" data-name="Ellipse 1141" cx="36.011" cy="36.011" rx="36.011" ry="36.011" transform="translate(26.278 31.794)" fill="#f3f3f1"/>
    <path id="Path_25444" data-name="Path 25444" d="M15.509,24.23A17.44,17.44,0,0,1,28.679,7.35a17.263,17.263,0,0,0-4.45-.6,17.469,17.469,0,0,0-8.059,32.974l3.85-3.85A17.309,17.309,0,0,1,15.509,24.23Z" transform="translate(11.742 17.258)" fill="#00b871"/>
    <path id="Path_25445" data-name="Path 25445" d="M17.509,44.761A36,36,0,0,1,49.14,9.042a36.011,36.011,0,1,0,0,71.437A36,36,0,0,1,17.509,44.761Z" transform="translate(17.528 23.044)" fill="#d5dbe1"/>
    <path id="Path_25446" data-name="Path 25446" d="M44.294,39.685l.039.039a17.761,17.761,0,0,0,4.909-3.85l-19.7-19.7A17.549,17.549,0,0,1,40.584,7.35a17.143,17.143,0,0,0-19.8,8.822l.039.039A36.1,36.1,0,0,1,44.294,39.685Z" transform="translate(52.331 17.258)" fill="#00b871"/>
    <path id="Path_25447" data-name="Path 25447" d="M33.188,36.108H12.75v-5.84H30.269V12.75h5.84V33.188A2.921,2.921,0,0,1,33.188,36.108Z" transform="translate(29.1 34.616)"/>
    <path id="Path_25448" data-name="Path 25448" d="M46.93,85.861a38.93,38.93,0,1,1,38.93-38.93A38.975,38.975,0,0,1,46.93,85.861Zm0-72.021A33.091,33.091,0,1,0,80.021,46.93,33.128,33.128,0,0,0,46.93,13.84Z" transform="translate(15.358 20.874)"/>
    <path id="Path_25449" data-name="Path 25449" d="M16.982,44.479a20.389,20.389,0,1,1,27.5-27.5L39.309,19.7A14.55,14.55,0,1,0,19.7,39.309Z" transform="translate(9.572 15.088)"/>
    <path id="Path_25450" data-name="Path 25450" d="M47.61,44.479,44.9,39.309A14.549,14.549,0,1,0,25.287,19.7l-5.17-2.713A20.387,20.387,0,1,1,47.61,44.479Z" transform="translate(50.413 15.088)"/>
    <path id="Path_25451" data-name="Path 25451" d="M0,0H5.84V21.929H0Z" transform="matrix(0.837, -0.547, 0.547, 0.837, 77.669, 97.247)"/>
    <path id="Path_25452" data-name="Path 25452" d="M0,0H21.929V5.84H0Z" transform="matrix(0.547, -0.837, 0.837, 0.547, 30.006, 112.468)"/>
  </g>
</svg>
