<svg xmlns="http://www.w3.org/2000/svg" width="397" height="500" viewBox="0 0 463.31 586">
  <path id="Path_469" data-name="Path 469" d="M298.026,354.473c-19.7,16.738-43.626,26.556-69.434,26.556-50.626,0-94.035-37.754-112.427-91.491h0a245.194,245.194,0,0,1-7.552-60.676,248.206,248.206,0,0,1,2.968-38.336C126.3,128.5,173.111,83.151,228.592,83.151c34.141,0,64.994,17.177,87.114,44.838,21.47,26.851,34.712,63.584,34.712,104.1C350.418,282.8,329.687,327.576,298.026,354.473ZM462.31,217.247A246.515,246.515,0,0,0,459.5,189.9C447.273,122.447,405.011,65.257,346.841,32.265c-.193-.085-.383-.18-.578-.264v-.055A233,233,0,0,0,231.557,2c-.328,0-.654.011-.981.012-.225,0-.447-.01-.672-.01A233.017,233.017,0,0,0,176.5,8.169c-.168.041-.338.08-.507.123-.748.177-1.489.367-2.233.551a230.057,230.057,0,0,0-56.549,22.906c-.488.278-.983.547-1.469.828l-.233.135C46.446,72.23,0,145.927,0,230.326V587H30.944c47,0,85.1-37.774,85.1-84.374V428.218a232.491,232.491,0,0,0,95.907,29.6c.158.013.316.023.474.037,1.356.11,2.715.217,4.079.3q2.427.158,4.869.267c.449.018.9.033,1.346.05,1.225.047,2.451.089,3.681.117,1.292.028,2.589.042,3.886.049.457,0,.914.015,1.371.015,1.682,0,3.357-.027,5.028-.063q2.4-.058,4.781-.159l.218-.007A232.437,232.437,0,0,0,374.623,409.87a228.8,228.8,0,0,0,76.7-107.443,241.739,241.739,0,0,0,10.895-60.245c.057-2.069.1-4.14.1-6.221q0-5.491-.27-10.916c.175-1.815.27-3.654.27-5.516Z" transform="translate(0.5 -1.5)" fill="none" stroke="#1dcf9f" stroke-width="1" fill-rule="evenodd" opacity="0.25"/>
</svg>
