<svg xmlns="http://www.w3.org/2000/svg" width="122.319" height="135.606" viewBox="0 0 122.319 135.606">
  <g id="clipboard" transform="translate(0)">
    <path id="Path_25453" data-name="Path 25453" d="M100.913,122.24c-26.928,0-45.42,13.949-58.4,13.949S2.29,128.73,2.29,69.038,38.951.583,53.223.583C120.055.583,148.6,122.24,100.913,122.24Z" transform="translate(-2.29 -0.583)" fill="#efefef"/>
    <path id="Path_25454" data-name="Path 25454" d="M27.625,3.25h3.893v7.786H27.625Z" transform="translate(71.006 7.133)" fill="#a4afc1"/>
    <path id="Path_25455" data-name="Path 25455" d="M29.875,6.25h7.786v3.893H29.875Z" transform="translate(77.515 15.812)" fill="#a4afc1"/>
    <path id="Path_25456" data-name="Path 25456" d="M14.536,85.664A7.809,7.809,0,0,1,6.75,77.878V17.536A7.809,7.809,0,0,1,14.536,9.75H63.2a7.809,7.809,0,0,1,7.786,7.786V77.878A7.784,7.784,0,0,1,63.2,85.664Z" transform="translate(10.613 25.938)" fill="#f3f3f1"/>
    <path id="Path_25457" data-name="Path 25457" d="M43.841,14.536v7.786a3.894,3.894,0,0,1-3.893,3.893h-25.3a3.894,3.894,0,0,1-3.893-3.893V14.536h8.759a7.786,7.786,0,0,1,15.572,0Z" transform="translate(22.186 17.258)" fill="#2fdf84"/>
    <path id="Path_25458" data-name="Path 25458" d="M9.75,14.75H23.376V28.376H9.75Z" transform="translate(19.293 40.403)" fill="#2fdf84"/>
    <path id="Path_25459" data-name="Path 25459" d="M9.75,22.75H23.376V36.376H9.75Z" transform="translate(19.293 63.547)" fill="#2fdf84"/>
    <ellipse id="Ellipse_1142" data-name="Ellipse 1142" cx="22.385" cy="22.385" rx="22.385" ry="22.385" transform="translate(60.187 66.832)" fill="#2fdf84"/>
    <g id="Group_17287" data-name="Group 17287" transform="translate(29.043 24.008)">
      <path id="Path_25460" data-name="Path 25460" d="M25.166,8.113a7.722,7.722,0,0,0-4.38-1.363A7.809,7.809,0,0,0,13,14.536h8.759A7.791,7.791,0,0,1,25.166,8.113Z" transform="translate(-0.348 -6.75)" fill="#00b871"/>
      <path id="Path_25461" data-name="Path 25461" d="M19.509,16.536V8.75H10.75v7.786a3.894,3.894,0,0,0,3.893,3.893H23.4A3.894,3.894,0,0,1,19.509,16.536Z" transform="translate(-6.857 -0.964)" fill="#00b871"/>
      <path id="Path_25462" data-name="Path 25462" d="M9.75,14.75h8.759V28.376H9.75Z" transform="translate(-9.75 16.394)" fill="#00b871"/>
      <path id="Path_25463" data-name="Path 25463" d="M9.75,22.75h8.759V36.376H9.75Z" transform="translate(-9.75 39.539)" fill="#00b871"/>
      <path id="Path_25464" data-name="Path 25464" d="M26.509,40.135A22.386,22.386,0,0,1,44.515,18.186a22.383,22.383,0,1,0-4.38,44.334,22.252,22.252,0,0,0,4.38-.436A22.386,22.386,0,0,1,26.509,40.135Z" transform="translate(13.394 25.073)" fill="#00b871"/>
    </g>
    <path id="Path_25465" data-name="Path 25465" d="M15.509,77.878V17.536A7.809,7.809,0,0,1,23.3,9.75H14.536A7.809,7.809,0,0,0,6.75,17.536V77.878a7.809,7.809,0,0,0,7.786,7.786H23.3A7.809,7.809,0,0,1,15.509,77.878Z" transform="translate(10.613 25.938)" fill="#d5dbe1"/>
    <path id="Path_25466" data-name="Path 25466" d="M25.545,33.465H11.92A2.921,2.921,0,0,1,9,30.545V16.92A2.921,2.921,0,0,1,11.92,14H25.545a2.921,2.921,0,0,1,2.92,2.92V30.545A2.921,2.921,0,0,1,25.545,33.465ZM14.84,27.626h7.786V19.84H14.84Z" transform="translate(17.123 38.233)"/>
    <path id="Path_25467" data-name="Path 25467" d="M25.545,41.465H11.92A2.921,2.921,0,0,1,9,38.545V24.92A2.921,2.921,0,0,1,11.92,22H25.545a2.921,2.921,0,0,1,2.92,2.92V38.545A2.921,2.921,0,0,1,25.545,41.465ZM14.84,35.626h7.786V27.84H14.84Z" transform="translate(17.123 61.377)"/>
    <path id="Path_25468" data-name="Path 25468" d="M15.75,14.5H37.162v5.84H15.75Z" transform="translate(36.651 39.679)"/>
    <path id="Path_25469" data-name="Path 25469" d="M42.3,67.61a25.3,25.3,0,1,1,25.3-25.3A25.334,25.334,0,0,1,42.3,67.61Zm0-44.77A19.465,19.465,0,1,0,61.77,42.3,19.487,19.487,0,0,0,42.3,22.84Z" transform="translate(40.267 46.912)"/>
    <path id="Path_25470" data-name="Path 25470" d="M29.819,41.421a2.914,2.914,0,0,1-2.063-.856L19.97,32.779,24.1,28.648l5.583,5.579,11.57-13.221,4.4,3.842L32.023,40.421a2.927,2.927,0,0,1-2.1,1A1.024,1.024,0,0,1,29.819,41.421Z" transform="translate(48.86 58.502)"/>
    <path id="Path_25471" data-name="Path 25471" d="M37.395,31.424h-5.84V19.706a4.873,4.873,0,0,0-4.866-4.866H19.37V9h7.319A10.717,10.717,0,0,1,37.395,19.706Z" transform="translate(47.124 23.768)"/>
    <path id="Path_25472" data-name="Path 25472" d="M48.473,90.754H16.706A10.715,10.715,0,0,1,6,80.048V19.706A10.715,10.715,0,0,1,16.706,9h7.319v5.84H16.706a4.873,4.873,0,0,0-4.866,4.866V80.048a4.873,4.873,0,0,0,4.866,4.866H48.473Z" transform="translate(8.444 23.768)"/>
    <path id="Path_25473" data-name="Path 25473" d="M42.118,31.3h-25.3A6.82,6.82,0,0,1,10,24.492V16.706a2.921,2.921,0,0,1,2.92-2.92h6.244a10.707,10.707,0,0,1,20.6,0h6.244a2.921,2.921,0,0,1,2.92,2.92v7.786A6.82,6.82,0,0,1,42.118,31.3ZM15.84,19.626v4.866a.974.974,0,0,0,.973.973h25.3a.974.974,0,0,0,.973-.973V19.626h-5.84a2.921,2.921,0,0,1-2.92-2.92,4.866,4.866,0,0,0-9.733,0,2.921,2.921,0,0,1-2.92,2.92Z" transform="translate(20.016 15.089)"/>
  </g>
</svg>
