<svg xmlns="http://www.w3.org/2000/svg" width="104" height="120" viewBox="0 0 114 126.875">
  <g id="Group_17289" data-name="Group 17289" transform="translate(-337 -1251)">
    <path id="Union_4" data-name="Union 4" d="M-4670.641,1483.824A57.121,57.121,0,0,1-4720,1427.166,57.083,57.083,0,0,1-4663,1370a57.082,57.082,0,0,1,57,57.166,57.121,57.121,0,0,1-49.624,56.693l-7.5,13.016Z" transform="translate(5057 -119)" fill="#2c3e50"/>
    <path id="Path_22778" data-name="Path 22778" d="M134.252,32.3a2.13,2.13,0,0,1-.205-1.1l1.1-13.294a4.923,4.923,0,0,0-5.575-5.283,9.229,9.229,0,0,0-3.254,1.093c-.079-.109-.161-.216-.248-.32a5.851,5.851,0,0,0-8.233-.726l-8.946,7.487V18.483a.614.614,0,0,1,.108-.348l1.855-2.715a1.142,1.142,0,1,0-1.887-1.289l-1.855,2.715a2.891,2.891,0,0,0-.506,1.637V22.07l-7.12,5.959V17.268a6.066,6.066,0,0,1,1.062-3.437l6.534-9.563a3.56,3.56,0,0,1,5.879,4.017l-1.2,1.755a1.142,1.142,0,1,0,1.886,1.289l1.2-1.755A5.845,5.845,0,0,0,105.2,2.979l-6.534,9.563a8.344,8.344,0,0,0-1.46,4.726V29.941l-3.426,2.868a9.96,9.96,0,0,0-3.531,8.4l.727,9.247a1.142,1.142,0,0,0,1.138,1.053q.045,0,.091,0a1.142,1.142,0,0,0,1.049-1.228l-.727-9.247a7.671,7.671,0,0,1,2.719-6.473L119.3,14.422a3.56,3.56,0,1,1,4.573,5.457l-12.526,10.5a5.138,5.138,0,0,0-2.168,1.124l-6.122,5.329a1.142,1.142,0,1,0,1.5,1.723l6.122-5.329a2.815,2.815,0,0,1,3.694-.021l9.26,7.876a3.555,3.555,0,0,1-1.3,6.123l-6.478-5.51a5.086,5.086,0,0,0-6.674.038l-6.122,5.329a1.142,1.142,0,1,0,1.5,1.723l6.122-5.329a2.815,2.815,0,0,1,3.694-.021l9.26,7.876a3.56,3.56,0,1,1-4.613,5.423l-5.732-4.875a1.142,1.142,0,0,0-1.548.062l-1.7,1.7a1.142,1.142,0,1,0,1.616,1.616l.956-.956,4.929,4.192a5.8,5.8,0,0,0,3.777,1.393c.159,0,.319-.007.48-.019a5.845,5.845,0,0,0,3.317-10.278l-.852-.724a5.841,5.841,0,0,0,.852-9.5l-4.105-3.492,2.481-12.664,1.852-1.552a5.851,5.851,0,0,0,1.935-5.827,6.928,6.928,0,0,1,2.6-.916,2.638,2.638,0,0,1,2.987,2.831l-1.1,13.294a4.416,4.416,0,0,0,.425,2.285l2.034,4.207a19.832,19.832,0,0,1,.238,16.795l-1.308,2.913a1.142,1.142,0,1,0,2.084.936l1.308-2.913a22.112,22.112,0,0,0-.265-18.725Zm-15.237,1.846-3.158-2.687a5.182,5.182,0,0,0-1.286-.8l6.135-5.142Z" transform="translate(276.394 1273.577)" fill="#fff"/>
    <path id="Path_22779" data-name="Path 22779" d="M343.657,398.175a1.142,1.142,0,0,0-1.51.574l-2.926,6.516a1.142,1.142,0,0,0-.1.468V414.4a1.142,1.142,0,0,0,2.285,0v-8.42l2.826-6.293A1.143,1.143,0,0,0,343.657,398.175Z" transform="translate(65.399 936.504)" fill="#fff"/>
    <path id="Path_22780" data-name="Path 22780" d="M319,7.11a1.142,1.142,0,0,0,1.142-1.142V1.142a1.142,1.142,0,0,0-2.285,0V5.967A1.142,1.142,0,0,0,319,7.11Z" transform="translate(83.424 1273.941)" fill="#fff"/>
    <path id="Path_22781" data-name="Path 22781" d="M354.111,18.763a1.142,1.142,0,0,0,1.554-.442l2.348-4.215a1.142,1.142,0,0,0-2-1.112l-2.347,4.215A1.143,1.143,0,0,0,354.111,18.763Z" transform="translate(53.19 1263.425)" fill="#fff"/>
    <path id="Path_22782" data-name="Path 22782" d="M386.809,48.644a1.143,1.143,0,0,0-1.573-.37l-4.1,2.54a1.142,1.142,0,1,0,1.2,1.942l4.1-2.54A1.142,1.142,0,0,0,386.809,48.644Z" transform="translate(30.245 1233.166)" fill="#fff"/>
    <path id="Path_22783" data-name="Path 22783" d="M103.429,361.578a15.835,15.835,0,0,1-3.309-7.813,1.142,1.142,0,1,0-2.266.3,18.119,18.119,0,0,0,3.786,8.94l4.714,5.924v7a1.142,1.142,0,0,0,2.285,0v-7.4a1.143,1.143,0,0,0-.248-.711Z" transform="translate(269.924 974.907)" fill="#fff"/>
  </g>
</svg>
