<svg xmlns="http://www.w3.org/2000/svg" width="121.572" height="135.606" viewBox="0 0 121.572 135.606">
  <g id="lock" transform="translate(0 0)">
    <path id="Path_25432" data-name="Path 25432" d="M45.323,133.941c24.336-11.047,46.774-6.024,58.5-11.345s33.3-23.246,8.81-77.2S51.425-1.432,38.523,4.422c-60.4,27.415-36.3,149.083,6.8,129.519Z" transform="translate(-2.269 -0.452)" fill="#efefef"/>
    <path id="Path_25433" data-name="Path 25433" d="M67.711,67.915H15.546a5.8,5.8,0,0,1-5.8-5.8V21.546a5.8,5.8,0,0,1,5.8-5.8H67.711a5.8,5.8,0,0,1,5.8,5.8V62.119A5.8,5.8,0,0,1,67.711,67.915Z" transform="translate(19.158 43.359)" fill="#2fdf84"/>
    <path id="Path_25434" data-name="Path 25434" d="M18.444,62.119V21.546a5.8,5.8,0,0,1,5.8-5.8H15.546a5.8,5.8,0,0,0-5.8,5.8V62.119a5.8,5.8,0,0,0,5.8,5.8H24.24A5.8,5.8,0,0,1,18.444,62.119Z" transform="translate(19.158 43.359)" fill="#00b871"/>
    <g id="Group_17286" data-name="Group 17286" transform="translate(8.873 39.828)">
      <path id="Path_25435" data-name="Path 25435" d="M34.8,22.352a5.8,5.8,0,1,1,5.8-5.8A5.8,5.8,0,0,1,34.8,22.352Zm0-7.728a1.932,1.932,0,1,0,1.932,1.932A1.933,1.933,0,0,0,34.8,14.624Z" transform="translate(65.419 -10.76)" fill="#a4afc1"/>
      <path id="Path_25436" data-name="Path 25436" d="M0,0H3.864V7.728H0Z" transform="translate(0.686 11.024) rotate(-45)" fill="#a4afc1"/>
      <path id="Path_25437" data-name="Path 25437" d="M0,0H7.728V3.864H0Z" transform="translate(0 29.467) rotate(-45)" fill="#a4afc1"/>
    </g>
    <path id="Path_25438" data-name="Path 25438" d="M69.859,72.961H17.694A8.7,8.7,0,0,1,9,64.267V23.694A8.7,8.7,0,0,1,17.694,15H69.859a8.7,8.7,0,0,1,8.694,8.694V64.267A8.7,8.7,0,0,1,69.859,72.961ZM17.694,20.8a2.9,2.9,0,0,0-2.9,2.9V64.267a2.9,2.9,0,0,0,2.9,2.9H69.859a2.9,2.9,0,0,0,2.9-2.9V23.694a2.9,2.9,0,0,0-2.9-2.9Z" transform="translate(17.01 41.211)"/>
    <path id="Path_25439" data-name="Path 25439" d="M58.369,43.674h-5.8V29.184a17.388,17.388,0,0,0-34.777,0v14.49H12V29.184a23.184,23.184,0,0,1,46.369,0Z" transform="translate(25.603 15.435)"/>
  </g>
</svg>
