<svg xmlns="http://www.w3.org/2000/svg" width="104" height="120" viewBox="0 0 114 131">
  <g id="Group_15525" data-name="Group 15525" transform="translate(-883 -1261)">
    <path id="Union_5" data-name="Union 5" d="M-4673.251,1483.411a57.137,57.137,0,0,1-46.75-56.245A57.083,57.083,0,0,1-4663,1370a57.082,57.082,0,0,1,57,57.166,57.139,57.139,0,0,1-47.016,56.293l-10.1,17.541Z" transform="translate(5603 -109)" fill="#1dcf9f"/>
    <g id="fast-time" transform="translate(898 1223.003)">
      <path id="Path_22761" data-name="Path 22761" d="M32.646,136.759h13.44a1.274,1.274,0,0,0,0-2.549H32.646a1.274,1.274,0,1,0,0,2.549Z" transform="translate(-26.041 -58.671)" fill="#fff"/>
      <path id="Path_22762" data-name="Path 22762" d="M83.1,185.317H77.786a1.274,1.274,0,1,0,0,2.549H83.1a1.274,1.274,0,0,0,0-2.549Z" transform="translate(-63.511 -101.094)" fill="#fff"/>
      <path id="Path_22763" data-name="Path 22763" d="M1.274,224.876h13a1.274,1.274,0,1,0,0-2.549h-13a1.274,1.274,0,1,0,0,2.549Z" transform="translate(0 -131.815)" fill="#fff"/>
      <path id="Path_22764" data-name="Path 22764" d="M47.361,364.063a1.274,1.274,0,0,0-1.274-1.274H32.646a1.274,1.274,0,1,0,0,2.549h13.44A1.274,1.274,0,0,0,47.361,364.063Z" transform="translate(-26.041 -248.409)" fill="#fff"/>
      <path id="Path_22765" data-name="Path 22765" d="M83.1,311.683H77.786a1.274,1.274,0,0,0,0,2.549H83.1a1.274,1.274,0,0,0,0-2.549Z" transform="translate(-63.511 -205.987)" fill="#fff"/>
      <path id="Path_22766" data-name="Path 22766" d="M15.55,275.947a1.274,1.274,0,0,0-1.274-1.274h-13a1.274,1.274,0,1,0,0,2.549h13A1.274,1.274,0,0,0,15.55,275.947Z" transform="translate(0 -175.266)" fill="#fff"/>
      <path id="Path_22767" data-name="Path 22767" d="M313.3,143.876a1.274,1.274,0,0,0,1.274-1.274v-1.945a1.274,1.274,0,1,0-2.549,0V142.6A1.274,1.274,0,0,0,313.3,143.876Z" transform="translate(-259.008 -62.964)" fill="#fff"/>
      <path id="Path_22768" data-name="Path 22768" d="M384.642,171.715a1.275,1.275,0,0,0-1.8,0l-1.376,1.376a1.274,1.274,0,0,0,1.8,1.8l1.376-1.376A1.275,1.275,0,0,0,384.642,171.715Z" transform="translate(-316.335 -89.493)" fill="#fff"/>
      <path id="Path_22769" data-name="Path 22769" d="M410.973,248.5a1.274,1.274,0,1,0,0,2.549h1.945a1.274,1.274,0,1,0,0-2.549Z" transform="translate(-340.082 -153.54)" fill="#fff"/>
      <path id="Path_22770" data-name="Path 22770" d="M383.267,317.936a1.274,1.274,0,1,0-1.8,1.8l1.376,1.376a1.274,1.274,0,0,0,1.8-1.8Z" transform="translate(-316.335 -210.868)" fill="#fff"/>
      <path id="Path_22771" data-name="Path 22771" d="M312.029,347.444v1.945a1.274,1.274,0,1,0,2.549,0v-1.945a1.274,1.274,0,1,0-2.549,0Z" transform="translate(-259.008 -234.614)" fill="#fff"/>
      <path id="Path_22772" data-name="Path 22772" d="M236.619,317.936l-1.376,1.375a1.274,1.274,0,0,0,1.8,1.8l1.376-1.376a1.274,1.274,0,1,0-1.8-1.8Z" transform="translate(-194.961 -210.868)" fill="#fff"/>
      <path id="Path_22773" data-name="Path 22773" d="M204.185,248.5a1.274,1.274,0,0,0,0,2.549h1.945a1.274,1.274,0,1,0,0-2.549Z" transform="translate(-168.432 -153.54)" fill="#fff"/>
      <path id="Path_22774" data-name="Path 22774" d="M238.422,173.091l-1.376-1.376a1.274,1.274,0,1,0-1.8,1.8l1.376,1.376a1.274,1.274,0,0,0,1.8-1.8Z" transform="translate(-194.961 -89.493)" fill="#fff"/>
      <path id="Path_22775" data-name="Path 22775" d="M320.156,197.327a1.274,1.274,0,0,0-1.274-1.274h-4.3V186.59a1.274,1.274,0,1,0-2.549,0v10.736A1.274,1.274,0,0,0,313.3,198.6h5.579A1.274,1.274,0,0,0,320.156,197.327Z" transform="translate(-259.008 -101.093)" fill="#fff"/>
      <path id="Path_22776" data-name="Path 22776" d="M219.57,131.666a1.274,1.274,0,0,0,1.195-1.349,25.391,25.391,0,1,0-.234,5.362,1.274,1.274,0,0,0-2.521-.378,22.877,22.877,0,1,1,.211-4.829,1.275,1.275,0,0,0,1.349,1.195Z" transform="translate(-141.11 -35.643)" fill="#fff"/>
      <path id="Path_22777" data-name="Path 22777" d="M140.358,63.529A32.692,32.692,0,0,0,127.441,66.2H104.955a1.274,1.274,0,1,0,0,2.549h17.691a32.671,32.671,0,0,0-6.536,5.54A1.274,1.274,0,0,0,118,76a30.095,30.095,0,1,1-2.988,3.892,1.274,1.274,0,0,0-2.141-1.383,32.7,32.7,0,0,0,9.784,45.214h-17.7a1.274,1.274,0,0,0,0,2.549h22.468a32.7,32.7,0,1,0,12.935-62.741Z" transform="translate(-86.063)" fill="#fff"/>
    </g>
  </g>
</svg>
