<svg xmlns="http://www.w3.org/2000/svg" width="104" height="120" viewBox="0 0 114 131">
  <g id="Group_15526" data-name="Group 15526" transform="translate(-1455 -1261)">
    <path id="Union_6" data-name="Union 6" d="M-4673.119,1483.435A57.137,57.137,0,0,1-4720,1427.166,57.083,57.083,0,0,1-4663,1370a57.082,57.082,0,0,1,57,57.166,57.136,57.136,0,0,1-46.881,56.269L-4663,1501Z" transform="translate(6175 -109)" fill="#1c9e7c"/>
    <g id="shield_1_" data-name="shield (1)" transform="translate(1477.484 1287.606)">
      <path id="Path_22755" data-name="Path 22755" d="M218.07,102.259a1.014,1.014,0,0,0,1.528-.174L226.278,92a1,1,0,1,0-1.673-1.109l-6.02,9.085L215.24,96.8a1,1,0,1,0-1.382,1.456l4.212,4Zm0,0" transform="translate(-184.969 -77.909)" fill="#fff"/>
      <path id="Path_22756" data-name="Path 22756" d="M132,39.658a1.487,1.487,0,0,0,.615.134h.008a1.469,1.469,0,0,0,.623-.142C148.512,32.392,151.1,16.732,151.528,12.1a2.4,2.4,0,0,0-1.48-2.448,8.771,8.771,0,0,1-5.39-7.361A1.982,1.982,0,0,0,142.691.5h-.012L122.118.62a1.966,1.966,0,0,0-1.958,1.832,8.773,8.773,0,0,1-5.311,7.414,2.391,2.391,0,0,0-1.443,2.461c.483,4.621,3.253,20.251,18.6,27.33ZM115.638,11.712a10.771,10.771,0,0,0,6.521-9.085l20.5-.12a10.772,10.772,0,0,0,6.617,9,.4.4,0,0,1,.251.409c-.4,4.336-2.811,18.956-16.913,25.808C118.433,31.043,115.855,16.451,115.4,12.12a.4.4,0,0,1,.236-.407Zm0,0" transform="translate(-98.218)" fill="#fff"/>
      <path id="Path_22757" data-name="Path 22757" d="M144,41.787a1.058,1.058,0,0,0,1.232.705,1,1,0,0,0,.705-1.232c-.256-.942-.47-1.9-.639-2.843a14.115,14.115,0,0,0,5.743-7.526l14.494-.085a14.114,14.114,0,0,0,5.831,7.458c-.157.949-.361,1.907-.606,2.853a1,1,0,1,0,1.944.5c.288-1.11.522-2.237.7-3.35a1.535,1.535,0,0,0-.723-1.557,12.113,12.113,0,0,1-5.327-6.828,1.552,1.552,0,0,0-1.475-1.089h-.009l-15.175.089a1.553,1.553,0,0,0-1.471,1.107,12.113,12.113,0,0,1-5.246,6.89,1.534,1.534,0,0,0-.705,1.565c.187,1.11.434,2.233.734,3.339Zm0,0" transform="translate(-124.079 -24.51)" fill="#fff"/>
      <path id="Path_22758" data-name="Path 22758" d="M184.936,147.61a1,1,0,0,0-1.31.545,25.28,25.28,0,0,1-10.916,12.708,25.29,25.29,0,0,1-11.073-12.6,1,1,0,0,0-1.847.786,27.226,27.226,0,0,0,12.187,13.7,1.537,1.537,0,0,0,1.489-.008,27.218,27.218,0,0,0,12.017-13.822,1,1,0,0,0-.545-1.31Zm0,0" transform="translate(-138.336 -127.358)" fill="#fff"/>
      <path id="Path_22759" data-name="Path 22759" d="M25.137,384.273a3.551,3.551,0,1,0,3.551,3.551A3.555,3.555,0,0,0,25.137,384.273Zm0,5.095a1.544,1.544,0,1,1,1.544-1.544A1.545,1.545,0,0,1,25.137,389.368Zm0,0" transform="translate(-18.697 -332.417)" fill="#fff"/>
      <path id="Path_22760" data-name="Path 22760" d="M67.8,246.788a4.181,4.181,0,0,0-5.774-1.117L48.9,254.453l-2.8-.157-.072-.717a6.091,6.091,0,0,0-5.221-5.442l-.053-.006-14.138-1.239c-.478-.075-2.009-.514-6.216-2.927a15.613,15.613,0,0,0-7.153-2.058V239.28a2.392,2.392,0,0,0-2.389-2.389H2.39A2.392,2.392,0,0,0,0,239.28v25.86A2.392,2.392,0,0,0,2.39,267.53h8.47a2.392,2.392,0,0,0,2.389-2.389v-.713l12.358,4.68a6.912,6.912,0,0,0,2.876.212l20.535-2.96.015,0a10.1,10.1,0,0,0,4.785-2.144l.037-.031,13.262-11.928a4.181,4.181,0,0,0,.679-5.466Zm-2.017,3.969L52.531,262.673a8.088,8.088,0,0,1-3.808,1.7L28.2,267.332l-.018,0-.01,0a4.508,4.508,0,0,1-1.9-.121l-13.027-4.933V250.82a1,1,0,0,0-2.007,0v14.321a.383.383,0,0,1-.382.382H2.39a.383.383,0,0,1-.382-.382V239.28a.383.383,0,0,1,.382-.382h8.47a.383.383,0,0,1,.382.382v7.006a1,1,0,0,0,2.007,0v-2.371a13.6,13.6,0,0,1,6.154,1.79c5.074,2.91,6.491,3.111,6.957,3.177l.053.006,14.139,1.239a4.09,4.09,0,0,1,3.48,3.649l.053.535-18.93,1.169-.038,0a2.288,2.288,0,0,1-1.561-.817,1,1,0,1,0-1.542,1.285,4.346,4.346,0,0,0,2.924,1.531c.62.065,20.25-1.222,20.25-1.222l3.935.221a1,1,0,0,0,.614-.168l13.4-8.969a2.164,2.164,0,0,1,2.639,3.419Zm0,0" transform="translate(0 -204.757)" fill="#fff"/>
    </g>
  </g>
</svg>
