<svg xmlns="http://www.w3.org/2000/svg" width="46.047" height="33.653" viewBox="0 0 46.047 33.653">
  <g id="bahrain" transform="translate(0 -77.4)">
    <path id="Path_26438" data-name="Path 26438" d="M49.021,106.2a4.652,4.652,0,0,1-4.426,4.843H7.726A4.652,4.652,0,0,1,3.3,106.2V82.213A4.625,4.625,0,0,1,7.726,77.4H44.595a4.625,4.625,0,0,1,4.426,4.813Z" transform="translate(-2.975)" fill="#da1e34"/>
    <path id="Path_26439" data-name="Path 26439" d="M48,77.4H84.886a4.623,4.623,0,0,1,4.426,4.813V106.2a4.65,4.65,0,0,1-4.426,4.843Z" transform="translate(-43.266)" fill="#c40c27"/>
    <g id="Group_17785" data-name="Group 17785" transform="translate(0 77.4)">
      <path id="Path_26440" data-name="Path 26440" d="M46.047,369.4a4.663,4.663,0,0,1-4.456,4.843H4.456A4.663,4.663,0,0,1,0,369.4Z" transform="translate(0 -340.6)" fill="#a30423"/>
      <path id="Path_26441" data-name="Path 26441" d="M48,77.4H84.886a4.623,4.623,0,0,1,4.426,4.813v8.759Z" transform="translate(-43.266 -77.4)" fill="#a30423"/>
    </g>
    <path id="Path_26442" data-name="Path 26442" d="M0,82.1v24.194a4.787,4.787,0,0,0,4.655,4.912h9.222l2.712-.937L13.1,109.046l3.492-1.223L13.1,106.639l3.492-1.262L13.1,104.183l3.492-1.243L13.1,101.747,16.59,100.5,13.1,99.311l3.492-1.243L13.1,96.875l3.492-1.243L13.1,94.281l3.492-1.193L13.1,91.844l3.492-1.193L13.1,89.408l3.492-1.193L13.1,86.972l3.492-1.184L13.1,84.546l3.492-1.184L13.1,82.139l3.492-1.184L13.1,79.713l3.492-1.184-2.712-.947H4.655A4.708,4.708,0,0,0,0,82.1Z" transform="translate(0 -0.162)" fill="#f4f4f4"/>
    <g id="Group_17786" data-name="Group 17786" transform="translate(0 77.4)">
      <path id="Path_26443" data-name="Path 26443" d="M60.151,85.655,56.6,84.413l3.551-1.193L56.6,81.977l3.551-1.193L56.6,79.54l3.551-1.193L57.39,77.4H48l10.416,8.837Z" transform="translate(-43.266 -77.4)" fill="#e1e1e1"/>
      <path id="Path_26444" data-name="Path 26444" d="M13.335,373.605l3.551-1.223L13.335,371.2l.2-.1H0a4.656,4.656,0,0,0,4.734,4.685h9.39l2.762-.937Z" transform="translate(0 -342.132)" fill="#e1e1e1"/>
      <path id="Path_26445" data-name="Path 26445" d="M107.8,79.54l3.551-1.193-2.762-.947h-3l2.841.947L104.8,79.54l3.63,1.243-3.63,1.193,3.63,1.243-3.63,1.193,3.63,1.243-3.63,1.174,3.63,1.243-3.63,1.193,3.63,1.243-3.63,1.184,3.63,1.243-3.63,1.193,3.63,1.351-3.63,1.243,3.63,1.184-3.63,1.243,3.63,1.193-3.63,1.243,3.63,1.184-3.63,1.243,3.63,1.193-3.63,1.253,3.63,1.193-3.63,1.223,3.63,1.233-2.841.937h3l2.762-.937-3.551-1.233,3.551-1.223-3.551-1.193,3.551-1.253-3.551-1.193,3.551-1.243-3.551-1.184,3.551-1.243L107.8,99.148l3.551-1.243L107.8,96.722l3.551-1.243L107.8,94.128l3.551-1.193L107.8,91.692l3.551-1.184L107.8,89.265l3.551-1.193L107.8,86.829l3.551-1.174L107.8,84.413l3.551-1.193L107.8,81.977l3.551-1.193Z" transform="translate(-94.463 -77.4)" fill="#e1e1e1"/>
    </g>
  </g>
</svg>
