<svg xmlns="http://www.w3.org/2000/svg" width="50" height="31.601" viewBox="0 0 50 31.601">
  <g id="pakistan" transform="translate(0 -80)">
    <path id="Path_26493" data-name="Path 26493" d="M45.161,80H4.839C2.177,80,0,81.806,0,84.364V95.8H0v11.436c0,2.558,2.177,4.364,4.839,4.364H45.161c2.661,0,4.839-1.806,4.839-4.364V95.8h0V84.364C50,81.806,47.823,80,45.161,80Z" fill="#0c723e"/>
    <path id="Path_26494" data-name="Path 26494" d="M88.612,80H48L68.306,95.951h0L88.287,111.6c2.68,0,5.2-1.806,5.2-4.364V95.8h0V84.364C93.486,81.806,91.293,80,88.612,80Z" transform="translate(-43.486)" fill="#085e2f"/>
    <path id="Path_26495" data-name="Path 26495" d="M50,368.075a4.59,4.59,0,0,1-4.839,4.439H4.839A4.65,4.65,0,0,1,0,368" transform="translate(0 -260.914)" fill="#c11414"/>
    <g id="Group_17791" data-name="Group 17791" transform="translate(4.514 80)">
      <path id="Path_26496" data-name="Path 26496" d="M48,80H88.612c2.68,0,4.873,1.806,4.873,4.364v8.427" transform="translate(-48 -80)" fill="#054c23"/>
      <path id="Path_26497" data-name="Path 26497" d="M136,368v4.514h29.343A4.222,4.222,0,0,0,169.858,368Z" transform="translate(-124.372 -340.914)" fill="#054c23"/>
    </g>
    <path id="Path_26498" data-name="Path 26498" d="M12.791,80H4.514A4.355,4.355,0,0,0,0,84.364V95.8H0v11.436A4.355,4.355,0,0,0,4.514,111.6h8.276Z" fill="#f3f4f5"/>
    <path id="Path_26499" data-name="Path 26499" d="M56.276,80H48l8.276,7Z" transform="translate(-43.486)" fill="#e0e0e0"/>
    <path id="Path_26500" data-name="Path 26500" d="M56.276,80H48l8.276,2.483Z" transform="translate(-43.486)" fill="#ccc"/>
    <path id="Path_26501" data-name="Path 26501" d="M0,248H0v11.436A4.355,4.355,0,0,0,4.514,263.8h8.276V248Z" transform="translate(0 -152.2)" fill="#e0e0e0"/>
    <path id="Path_26502" data-name="Path 26502" d="M0,368a4.222,4.222,0,0,0,4.514,4.514h8.276V368Z" transform="translate(0 -260.914)" fill="#ccc"/>
    <path id="Path_26503" data-name="Path 26503" d="M202.21,183.477a6.344,6.344,0,0,1-3.461,1.58,5.917,5.917,0,0,1-4.815-1.806,5.84,5.84,0,0,1,.3-8.276,5.929,5.929,0,0,1,2.709-1.43,7.076,7.076,0,0,0-5.417,11.888,7.039,7.039,0,0,0,6.7,2.107,6.959,6.959,0,0,0,3.386-1.73,7.079,7.079,0,0,0,2.257-4.891A7.856,7.856,0,0,1,202.21,183.477Z" transform="translate(-169.97 -84.742)" fill="#f3f4f5"/>
    <g id="Group_17792" data-name="Group 17792" transform="translate(20.693 88.722)">
      <path id="Path_26504" data-name="Path 26504" d="M299.2,254.388l1.354,1.129.226-.226a7.079,7.079,0,0,0,2.257-4.891,5.8,5.8,0,0,1-1.655,2.633A4.467,4.467,0,0,1,299.2,254.388Z" transform="translate(-289.87 -243.096)" fill="#c3cad1"/>
      <path id="Path_26505" data-name="Path 26505" d="M200,176.131l1.731,1.5a6.45,6.45,0,0,1,1.806-3.461,5.929,5.929,0,0,1,2.709-1.43,7.152,7.152,0,0,0-5.041,1.881A11.726,11.726,0,0,0,200,176.131Z" transform="translate(-200 -172.74)" fill="#c3cad1"/>
    </g>
    <path id="Path_26506" data-name="Path 26506" d="M287.9,192.158l.15,1.5.752-1.354,1.5.376-.978-1.129.752-1.354-1.43.6-.978-1.2.075,1.58-1.354.6Z" transform="translate(-257.352 -99.292)" fill="#ccc"/>
  </g>
</svg>
