<svg xmlns="http://www.w3.org/2000/svg" width="46.047" height="31.756" viewBox="0 0 46.047 31.756">
  <g id="qatar" transform="translate(0 -88.276)">
    <path id="Path_26446" data-name="Path 26446" d="M23.18,118.487a.217.217,0,0,0,0-.426l-4.851-1.341a.217.217,0,0,1,0-.426l4.849-1.335a.217.217,0,0,0,0-.426L18.329,113.2a.217.217,0,0,1,0-.426l4.85-1.341a.217.217,0,0,0,0-.426l-4.85-1.336a.218.218,0,0,1,0-.426L23.18,107.9a.217.217,0,0,0,0-.426l-4.85-1.336a.217.217,0,0,1,0-.426l4.851-1.341a.218.218,0,0,0,0-.426l-4.85-1.336a.218.218,0,0,1,0-.426l4.851-1.341a.218.218,0,0,0,0-.426l-4.849-1.335a.218.218,0,0,1,0-.427l4.849-1.335a.217.217,0,0,0,0-.426l-4.851-1.341a.218.218,0,0,1,0-.426l4.85-1.336a.217.217,0,0,0,0-.426l-4.851-1.341a.218.218,0,0,1,0-.426l4.85-1.336a.218.218,0,0,0,0-.426L17.592,88.29a.264.264,0,0,0-.072-.01H4.014A3.836,3.836,0,0,0,0,91.91v24.5a3.836,3.836,0,0,0,4.014,3.63H17.52a.269.269,0,0,0,.072-.01Z" transform="translate(0 -0.004)" fill="#f5f5f5"/>
    <path id="Path_26447" data-name="Path 26447" d="M195.391,88.276H167.372a.208.208,0,0,1,.063.01l4.884,1.544a.225.225,0,0,1,0,.426l-4.239,1.336a.225.225,0,0,0,0,.426l4.239,1.341a.225.225,0,0,1,0,.426l-4.239,1.336a.225.225,0,0,0,0,.426l4.239,1.341a.225.225,0,0,1,0,.426l-4.238,1.335a.225.225,0,0,0,0,.427l4.238,1.335a.225.225,0,0,1,0,.426l-4.239,1.341a.225.225,0,0,0,0,.426l4.239,1.336a.225.225,0,0,1,0,.426l-4.239,1.341a.225.225,0,0,0,0,.426l4.239,1.336a.225.225,0,0,1,0,.426l-4.239,1.341a.225.225,0,0,0,0,.426L172.319,111a.225.225,0,0,1,0,.426l-4.239,1.341a.225.225,0,0,0,0,.426l4.238,1.335a.225.225,0,0,1,0,.426l-4.238,1.335a.225.225,0,0,0,0,.426l4.239,1.341a.225.225,0,0,1,0,.426l-4.884,1.539a.211.211,0,0,1-.063.01h28.019a3.571,3.571,0,0,0,3.508-3.63v-24.5A3.571,3.571,0,0,0,195.391,88.276Z" transform="translate(-152.853 0)" fill="#873250"/>
  </g>
</svg>
