<svg xmlns="http://www.w3.org/2000/svg" width="46.922" height="34.292" viewBox="0 0 46.922 34.292">
  <g id="saudi-arabia" transform="translate(0 -77.6)">
    <path id="Path_26448" data-name="Path 26448" d="M46.922,106.981a4.727,4.727,0,0,1-4.541,4.91H4.541A4.727,4.727,0,0,1,0,106.981V82.51A4.727,4.727,0,0,1,4.541,77.6h37.84a4.727,4.727,0,0,1,4.541,4.91Z" transform="translate(0 0)" fill="#096"/>
    <path id="Path_26449" data-name="Path 26449" d="M48,77.6H85.582a4.714,4.714,0,0,1,4.51,4.91v24.471a4.714,4.714,0,0,1-4.51,4.91" transform="translate(-43.17 0)" fill="#038e5c"/>
    <g id="Group_17787" data-name="Group 17787" transform="translate(0 77.6)">
      <path id="Path_26450" data-name="Path 26450" d="M46.922,369.6a4.727,4.727,0,0,1-4.541,4.91H4.541A4.727,4.727,0,0,1,0,369.6" transform="translate(0 -340.219)" fill="#007a54"/>
      <path id="Path_26451" data-name="Path 26451" d="M48,77.6H85.582a4.714,4.714,0,0,1,4.51,4.91v8.935" transform="translate(-43.17 -77.6)" fill="#007a54"/>
    </g>
    <g id="Group_17788" data-name="Group 17788" transform="translate(4.71 84.862)">
      <path id="Path_26452" data-name="Path 26452" d="M57.922,150.787c.322-.241.322.4,0,1.127a1.977,1.977,0,0,0,.4-1.207c-.08-.563-.4-.483-.644-.161C57.52,150.787,57.6,150.948,57.922,150.787Z" transform="translate(-56.514 -150.241)" fill="#fff"/>
      <path id="Path_26453" data-name="Path 26453" d="M48.3,154.905c.4-.724.241-1.288.563-2.334.241-.644.241-.161.241.242-.161,1.046-.08,2.737,1.368,2.656.08.966.322,2.656.322,3.3,0,.563.08.4.241.08a2.857,2.857,0,0,0,.08-1.207c0-.483-.08-1.368-.161-2.576a3.006,3.006,0,0,0,.483-.563c.161-.4.241-.322.322,0,.161.644.8,1.046,1.61.4.8-.563.483-1.69.08-2.9.322.081.4-.161.241-.483-.08-.161-.241-.322-.322-.483-.161-.161-.241-.322-.4-.161s-.241.322-.322.4-.08.242,0,.483a9.368,9.368,0,0,1,.563,1.932c.08.4-.08.483-.4.483-.241,0-.644-.081-.8-.724a2.876,2.876,0,0,1-.161-1.368,1.463,1.463,0,0,0-.241-1.127c-.322-.4-.322-.322-.4-.161a1.812,1.812,0,0,0-.08.966c.161.563.241,1.046.322,1.368a1.055,1.055,0,0,1-.563.966c-.08-.8-.161-1.771-.241-2.656.483-.161.241-.724-.161-1.368-.241-.483-.4-.322-.563,0a.6.6,0,0,0,.08.724c-.08.241.08.563.161,1.127a15.723,15.723,0,0,1,.161,2.334.859.859,0,0,1-.724-.563,2.264,2.264,0,0,1-.08-1.61c.161-.4.241-.966,0-1.127s-.483,0-.644.322a3.405,3.405,0,0,0-.644,1.851,2.479,2.479,0,0,1-.241,1.046c-.08.241-.322.241-.483-.081a5.865,5.865,0,0,1-.4-2.415c0-.322-.08-.4-.161,0a5.227,5.227,0,0,0,.322,3.139C47.653,155.549,48.056,155.388,48.3,154.905Z" transform="translate(-46.809 -149.771)" fill="#fff"/>
      <path id="Path_26454" data-name="Path 26454" d="M93.226,151.337c.161-.161.161-.161.241,0a.228.228,0,0,0,.4,0,.494.494,0,0,0,.08-.483c-.08-.161-.08-.081-.161.081-.08.322-.4.241-.4-.161s-.08-.161-.241.081c-.161.4-.4.322-.4-.081,0-.241-.081-.483-.242-.161a.855.855,0,0,0,.081.644C92.824,151.5,93.065,151.5,93.226,151.337Z" transform="translate(-87.874 -150.389)" fill="#fff"/>
      <path id="Path_26455" data-name="Path 26455" d="M53.028,213.881c.241-.08.241-.08.241-.4s-.161-.161-.483-.081a5.126,5.126,0,0,0-2.173,1.529c-.322.4-.08.241.161.08A8.432,8.432,0,0,1,53.028,213.881Z" transform="translate(-50.091 -206.895)" fill="#fff"/>
      <path id="Path_26456" data-name="Path 26456" d="M52.69,249.076c-.241.4-.724-.161-.4-1.207a2.048,2.048,0,0,0,.161-.563v-.563c0-.161-.161.081-.241.4a5.067,5.067,0,0,0-.322,2.254c.08.885,1.127.885,1.207-.241C53.093,248.674,52.932,248.674,52.69,249.076Z" transform="translate(-51.363 -236.939)" fill="#fff"/>
      <path id="Path_26457" data-name="Path 26457" d="M72.643,161.765c0-.4-.08-.8-.08-1.207.08,0,.08-.08.161-.08.241.724,1.288.563,1.61.08.161-.242.161-.242.322,0,.241.322,1.046.483,1.207,0a2.422,2.422,0,0,0,.08-1.288c-.08-.4-.161-.322-.4-.161s-.081.241,0,.483c.08.966-.724.885-.8-.08-.08-.644-.161-.4-.241-.08-.4,1.207-1.449,1.449-1.288,0,0-.4-.241-.242-.4-.081l-.322.322c-.08-1.127-.161-2.415-.322-4.025.322.4.644-.081.4-.483-.161-.322-.4-1.127-.563-1.529s-.241-.322-.563.08c-.322.322-.241.4-.161.8a8.271,8.271,0,0,0,.161,1.771c.08.644.241,2.012.4,3.7-.161.081-.4.242-.563.322-.08-.322-.322-.483-.644-.8-.483-.483-.8-.483-1.207.08A1.407,1.407,0,0,0,69.1,160.8c0,.483-.08.644.322.8a.922.922,0,0,0,.8,0,3.743,3.743,0,0,1,.724-.242.772.772,0,0,1-.161.724c-.966,1.127-2.415,2.012-3.059,1.207a2.554,2.554,0,0,1-.4-1.851c.08-.644-.08-.322-.161-.161a3.547,3.547,0,0,0,0,2.415c.4.8,1.127,1.127,2.254.563a3.1,3.1,0,0,0,2.173-2.576v-.563a1.76,1.76,0,0,0,.4-.241v1.368a2.114,2.114,0,0,1-.966,2.093,4.99,4.99,0,0,1-2.334.966c-1.771.241-2.173-.885-2.173-2.415,0-.241.08-.4.08-.724,0-.644-.08-.563-.322.08a5.267,5.267,0,0,0,.161,3.3c.644,1.207,2.737.885,4.347.081C72.563,164.743,72.724,163.294,72.643,161.765Zm-2.254-1.207c-.4.161-.563-.08-.483-.322,0-.242.08-.4.4-.242a1.367,1.367,0,0,1,.483.483A1.077,1.077,0,0,1,70.389,160.558Z" transform="translate(-64.152 -153.008)" fill="#fff"/>
      <path id="Path_26458" data-name="Path 26458" d="M145.1,236.538a1.535,1.535,0,0,0,.161-1.046c-.081-.241,0-.322-.242-.483-.241-.08-.322.081-.4.242-.081.241.08.563.4.4a1.451,1.451,0,0,1-.08.8C144.858,236.78,144.939,236.86,145.1,236.538Z" transform="translate(-134.757 -226.413)" fill="#fff"/>
      <path id="Path_26459" data-name="Path 26459" d="M152.839,183.3c-.322.4-.563.966-.08,1.288.241.161.724-.08.885-.4.161-.4.08-.483-.242-.08-.4.483-.885.08-.4-.644C153.322,182.975,153.081,182.894,152.839,183.3Z" transform="translate(-141.852 -179.691)" fill="#fff"/>
      <path id="Path_26460" data-name="Path 26460" d="M138.515,154.938a4.247,4.247,0,0,0,2.093-1.69c.322.08.4-.161.241-.4a3.923,3.923,0,0,1,.241-.563c.241-1.046-.8-1.127-1.046-.322a.837.837,0,0,0,.161,1.046,6.645,6.645,0,0,1-1.932,1.69C137.951,155.019,138.032,155.18,138.515,154.938Zm1.932-2.817c.08-.242.241-.081.241.08a.61.61,0,0,1-.161.322C140.366,152.443,140.366,152.282,140.447,152.121Z" transform="translate(-128.896 -151.253)" fill="#fff"/>
    </g>
    <path id="Path_26461" data-name="Path 26461" d="M156.655,151.96a.837.837,0,0,0,.161,1.046c-.08.081-.161.242-.241.322l.4.322c.081-.161.242-.242.322-.4.322.08.4-.161.242-.4a3.923,3.923,0,0,1,.241-.563C157.943,151.235,156.977,151.155,156.655,151.96Zm.644.242a.61.61,0,0,1-.161.322c-.161-.081-.161-.242-.08-.4C157.138,151.879,157.3,152.04,157.3,152.2Z" transform="translate(-141.764 -66.391)" fill="#cfe7e8"/>
    <path id="Path_26462" data-name="Path 26462" d="M127.423,206.228a3.006,3.006,0,0,0-.563.483c0-.322.08-.8.08-.966,0-.241-.08-.322-.241-.081a6.408,6.408,0,0,0-.563,1.61,23.074,23.074,0,0,1-3.22,1.851c-.4.161-.161.322.161.242a31.7,31.7,0,0,0,3.059-1.127c.08.724.322,1.207.966,1.368,1.207.322,2.415-.724,3.783-2.576a3.73,3.73,0,0,0,3.22,2.415c.885.161.8.08.966-.4.081-.4.242-.483-.483-.644-.885-.322-1.207-.966-.322-1.368a14.776,14.776,0,0,1,2.9-.885c.563-.08.724-.08.885-.563.161-.563.242-.644-.322-.563a41.364,41.364,0,0,1-4.508.08c.644-.322,1.529-.644,2.173-.885.241.161.322.081.241-.08a2.859,2.859,0,0,0,.724-.322c.724-.4,1.046-1.288.242-1.851s-1.449-.724-1.851-.161c-.322.483-.644.966-.161,1.61-.724.241-1.368.483-2.012.724-.483.161-.724.241-.885.885s-.241.644.4.724a3.368,3.368,0,0,1,2.254.483c-.885.322-1.529.966-1.207,1.851a2.146,2.146,0,0,1-1.127-.563c-.644-.644-.644-1.771-.885-3.059a11.235,11.235,0,0,0-1.046-2.9c-.161-.483-.241-.242-.4.08a.988.988,0,0,0-.161.966,33.529,33.529,0,0,1,1.046,3.381,4.782,4.782,0,0,1-2.817,2.656c-.8.161-1.046-.322-.966-.724a7.214,7.214,0,0,0,1.529-1.207c.966-1.046,1.127-1.851.483-3.542q.6.121-.242-.966c-.4-.483-.483-.4-.724.08-.161.4-.322.724.161.885a5.293,5.293,0,0,0,.483.966C128.953,205.181,128.148,205.584,127.423,206.228Zm7.647-3.542c0-.241.081-.241.483,0s.724.322.161.4c-.161.08-.4.08-.563.161A1.194,1.194,0,0,0,135.07,202.686Z" transform="translate(-111.428 -111.24)" fill="#fff"/>
    <g id="Group_17789" data-name="Group 17789" transform="translate(18.006 89.996)">
      <path id="Path_26463" data-name="Path 26463" d="M240.981,238.164c-.4,0-2.173.081-3.381.081l1.61,1.368a9.1,9.1,0,0,1,1.207-.322c.563-.081.724-.081.885-.563C241.464,238.164,241.544,238.083,240.981,238.164Z" transform="translate(-233.092 -234.38)" fill="#cfe7e8"/>
      <path id="Path_26464" data-name="Path 26464" d="M192.8,200.8l.161.161C192.961,200.8,192.88,200.8,192.8,200.8Z" transform="translate(-192.8 -200.8)" fill="#cfe7e8"/>
      <path id="Path_26465" data-name="Path 26465" d="M225.685,205.444c.483-.242,1.046-.4,1.449-.563.241.161.322.081.241-.08a2.86,2.86,0,0,0,.724-.322c.724-.4,1.046-1.288.241-1.851s-1.449-.724-1.851-.161c-.322.483-.644.966-.161,1.61a8.584,8.584,0,0,0-1.529.563Zm1.771-2.012c.4.241.724.322.161.4-.161.08-.4.08-.563.161a1.416,1.416,0,0,1-.081-.483C226.893,203.191,227.054,203.191,227.456,203.432Z" transform="translate(-221.58 -201.983)" fill="#cfe7e8"/>
    </g>
    <path id="Path_26466" data-name="Path 26466" d="M253.747,267.412a4.207,4.207,0,0,0,.966-.563c.322-.322.081-.241-.161-.161a8.362,8.362,0,0,1-.8.322c-.322.161-.4,0-.241-.564.161-.483,0-.483-.242-.4s-.322.241-.563.4c-.161.081-.161.242.241.081.322-.161.242,0,.161.4C252.942,267.331,253.184,267.573,253.747,267.412Z" transform="translate(-228.777 -169.446)" fill="#fff"/>
    <g id="Group_17790" data-name="Group 17790" transform="translate(14.384 84.686)">
      <path id="Path_26467" data-name="Path 26467" d="M174.335,152.529c.241-.563.4-1.127.563-1.529s.322-.322.241.08c-.081.724-.081,1.851.644,2.334.724.4,1.851-.322,2.254-1.127,1.207,1.529,2.254.8,2.334-.644a5.788,5.788,0,0,0-.322-1.771c-.161-.322,0-.322.161-.161s.483.322.322-.241a2.591,2.591,0,0,0-.644-1.046c-.241-.242-.322-.081-.4.08a1.072,1.072,0,0,1-.241.4c-.161.161-.081.241,0,.483.483,1.127.885,2.817.161,2.978-.644.161-1.046-1.288-1.046-1.932a6.562,6.562,0,0,0-.322-2.012c-.161-.483-.242-.483-.4-.242-.081.161-.081.322-.242.483-.08.161,0,.241.081.563.4,1.851.322,2.656-.483,3.139s-1.288,0-1.288-.563a12.462,12.462,0,0,1,.081-1.771c.08-.483.161-.644,0-.885s-.322-.161-.563.161a11.631,11.631,0,0,0-1.207,2.5c-.161.563-.563.4-.8-.08a3.786,3.786,0,0,1-.161-2.093c.081-.4.081-.563-.161-.161a2.966,2.966,0,0,0,.483,3.22C173.771,153.414,174.093,153.092,174.335,152.529Z" transform="translate(-172.627 -148.024)" fill="#cfe7e8"/>
      <path id="Path_26468" data-name="Path 26468" d="M208.043,154.676c0,.242,0,.563.161.081a3.229,3.229,0,0,0-.081-1.529c-.161-.4-.241-.483-.4-.322s-.161.241,0,.4A2.153,2.153,0,0,1,208.043,154.676Z" transform="translate(-204.081 -152.344)" fill="#cfe7e8"/>
      <path id="Path_26469" data-name="Path 26469" d="M217.725,205.585c0,.644-.161.644-.4,0-.081-.242-.161-.242-.242.08,0,.563-.241.644-.4.08-.081-.241-.081-.483-.161-.08a.936.936,0,0,0,.161.8c.161.161.4.161.483-.081s.161-.241.322-.081.8,0,.483-.885C217.806,205.1,217.725,205.183,217.725,205.585Z" transform="translate(-212.073 -199.47)" fill="#cfe7e8"/>
      <path id="Path_26470" data-name="Path 26470" d="M292.238,151.825a1.072,1.072,0,0,1,.4,1.046c-.081.4,0,.644.242.081a1.846,1.846,0,0,0-.161-1.61c-.241-.4-.322-.241-.483-.08C292.077,151.5,292,151.745,292.238,151.825Z" transform="translate(-280.065 -150.781)" fill="#cfe7e8"/>
      <path id="Path_26471" data-name="Path 26471" d="M251.361,150.779c0,.241.08.4.4.483.644.885,1.368,1.851,2.012,2.737.08.8.241,1.61.322,2.334a20.261,20.261,0,0,1,.242,4.749c-.161.724,0,.966.322-.081a7.66,7.66,0,0,0,.08-3.622c-.08-.644-.08-1.368-.161-2.173a29.9,29.9,0,0,1,2.5,4.427c.241.644.483.724.241-.081a20.219,20.219,0,0,0-2.9-5.474,14.275,14.275,0,0,1-.08-1.771c.241.241.4.08.322-.242a15.663,15.663,0,0,0-.644-1.771c-.08-.322-.4-.322-.563.08-.161.483-.161.563,0,.885a12.4,12.4,0,0,0,.161,1.529,14.229,14.229,0,0,0-.966-1.368c.4.161.724.08.322-.4-.4-.4-.966-.885-1.288-1.207s-.483-.08-.483.161C251.361,150.376,251.442,150.537,251.361,150.779Z" transform="translate(-243.294 -149.493)" fill="#cfe7e8"/>
      <path id="Path_26472" data-name="Path 26472" d="M294.083,179.157c-.08.4-.242.242-.322-.08-.08-.161-.161-.08-.161.241.081.322.161.563.4.322.161-.161.161-.161.4,0,.161.161.322,0,.4-.081a1.5,1.5,0,0,0,0-.644c-.081-.4-.161-.161-.242.161s-.241.4-.322,0C294.244,178.754,294.083,178.835,294.083,179.157Z" transform="translate(-281.428 -175.617)" fill="#cfe7e8"/>
      <path id="Path_26473" data-name="Path 26473" d="M288.825,160.8c.08,1.449.241,2.093-.644,3.139a4.181,4.181,0,0,1-2.012,1.449c-.563.161-.724.4.081.322,1.207-.08,1.368-.08,2.415-1.288.563-.644.8-1.449.8-3.381-.081-3.381-.483-4.83-.483-6.681.161.161.4.161.322-.161a7.539,7.539,0,0,1-.322-1.288c-.161-.4-.242-.563-.4-.322s-.322.322-.4.483a.613.613,0,0,0,0,.644C288.664,157.657,288.745,159.348,288.825,160.8Z" transform="translate(-274.319 -152.025)" fill="#cfe7e8"/>
      <path id="Path_26474" data-name="Path 26474" d="M328.125,161.038a5.687,5.687,0,0,1,0,2.334c-.081.241.08.4.241,0a4.977,4.977,0,0,0,.161-3.381c-.08-1.207-.564-4.347-.644-5.635l.08.081c.322.161.725.322.483-.161a9.587,9.587,0,0,1-.644-1.61c-.161-.483-.242-.483-.483-.081-.483.644-.161,1.288,0,2.093C327.642,157.415,328.044,160.233,328.125,161.038Z" transform="translate(-311.525 -151.864)" fill="#cfe7e8"/>
      <path id="Path_26475" data-name="Path 26475" d="M350.8,185.046a6,6,0,0,1,.563.966c.161.4.322.081.322-.161a6.054,6.054,0,0,1,0-1.207c.161-.4.4.161.483-.08.08-.161-.081-.241-.161-.4-.081-.241-.161-.161-.322-.081a.736.736,0,0,0-.242.4v.885c0,.322-.08.322-.161.161a3.618,3.618,0,0,0-.483-.966.226.226,0,0,0-.4.161v.4C350.4,185.288,350.722,185.288,350.8,185.046Z" transform="translate(-332.512 -180.38)" fill="#cfe7e8"/>
      <path id="Path_26476" data-name="Path 26476" d="M352.8,209.823c0,.241.322-.081.563-.241s.966-.644,1.288-.8.241-.241.161-.563c0-.322-.242-.081-.483.161s-.966.724-1.207.966S352.8,209.662,352.8,209.823Z" transform="translate(-334.671 -202.017)" fill="#cfe7e8"/>
      <path id="Path_26477" data-name="Path 26477" d="M328.828,161.676a3.925,3.925,0,0,1-.322-1.851c0-.483-.081-.885-.242-.08-.483,1.932-.161,2.334.322,2.737.644.563.885.644,1.207.08.644-.966.885-1.771,1.207-2.254.322-.4.322-.08.483.081a1.773,1.773,0,0,0,1.288.724c.563.08,1.529-.4,1.449-2.173-.081-1.127-.161-2.576-.241-4.186.563.724.966,1.368,1.368,1.932a18.916,18.916,0,0,1,.241,2.737c-.08.885.161.885.322,0a8.047,8.047,0,0,0,0-2.012,14.813,14.813,0,0,1,1.368,2.012c.322.563.483.966.4-.08,0-.4-.161-.724-.644-1.449-.483-.644-.885-1.288-1.288-1.932-.161-1.529-.322-3.22-.322-4.105.241.161.4,0,.241-.322a12.226,12.226,0,0,0-.483-1.61c-.161-.322-.322-.322-.483.081-.161.322-.322.483-.241.724a32.82,32.82,0,0,0,.483,4.266c-.4-.563-.8-1.127-1.127-1.61,0-.563-.081-1.127-.081-1.69.241.161.322.161.241-.241a10.749,10.749,0,0,0-.564-1.449c-.161-.322-.241-.322-.4-.081a.973.973,0,0,0-.081,1.127c0,.4.081.724.081,1.127a8.433,8.433,0,0,0-.644-.885c.242.081.4-.08.161-.322s-.724-.644-.966-.885c-.241-.322-.4-.241-.4,0v.724a1.259,1.259,0,0,0,.241.8c.563.724,1.207,1.449,1.69,2.173.241,2.576.322,4.266.322,5.313,0,.644-.241.966-.563,1.046s-.644-.081-.966-.563c-.563-.8-.8-.644-1.207.081s-.724,1.288-.966,1.771C329.552,161.918,329.15,162.32,328.828,161.676Z" transform="translate(-312.389 -149.524)" fill="#cfe7e8"/>
      <path id="Path_26478" data-name="Path 26478" d="M408.919,161.735c0,.483.161.4.241,0a3.123,3.123,0,0,0-.161-1.69c-.241-.563-.322-.322-.4-.161-.161.241-.161.322.081.563A4.579,4.579,0,0,1,408.919,161.735Z" transform="translate(-384.753 -158.518)" fill="#cfe7e8"/>
      <path id="Path_26479" data-name="Path 26479" d="M404.084,158.092c-.161-3.381-.564-4.83-.483-6.118q.483.362.242-.241c-.161-.4-.4-.885-.564-1.368-.161-.4-.241-.322-.483,0a.68.68,0,0,0-.161.724c.483,4.105.724,6.279.8,7.567a3.952,3.952,0,0,1-2.093,4.025c-.563.4-1.207.8.161.483C402.8,162.761,404.245,161.875,404.084,158.092Z" transform="translate(-377.744 -149.884)" fill="#cfe7e8"/>
      <path id="Path_26480" data-name="Path 26480" d="M389.066,263.078c-.241.322.322.483.4.242.161.241,0,.644-.241.885-.4.322-.161.4.08.161.242-.161.885-.885.483-1.368A.509.509,0,0,0,389.066,263.078Z" transform="translate(-367.234 -251.327)" fill="#cfe7e8"/>
    </g>
    <path id="Path_26481" data-name="Path 26481" d="M124.491,312.985c-1.046,0-2.012,0-3.059.081v-.322c.322-.4.241-.4,0-.8-.08-.161-.161-.322-.4,0s-.241.4.08.8v.322c-7.969.081-16.743,0-24.31-.081.8,1.368,3.542,1.288,6.037,1.288,2.254,0,9.016,0,18.192-.241v.4c-.322.4-.241.4,0,.8.241.322.322.161.4,0a.249.249,0,0,0,.08-.161h1.207c0,.161.241.241.322.241s.322-.081.322-.241h1.368a.608.608,0,0,0,.563.322c.483,0,.724-.563.644-1.288C125.859,313.065,125.457,312.9,124.491,312.985Zm-1.127,1.61c0-.161-.241-.241-.322-.241s-.322.081-.322.241h-1.207c0-.08-.08-.161-.242-.322v-.4c1.046,0,2.173-.081,3.3-.081a2.229,2.229,0,0,0-.08.724Z" transform="translate(-88.461 -210.592)" fill="#fff"/>
    <path id="Path_26482" data-name="Path 26482" d="M339.523,312.985c-1.046,0-2.012,0-3.059.081v-.322c.322-.4.242-.4,0-.8-.081-.161-.161-.322-.4,0s-.241.4.081.8v.322h-.081l1.127.966c.8,0,1.69-.081,2.5-.081a2.229,2.229,0,0,0-.08.724H338.4c0-.161-.242-.241-.322-.241s-.241.081-.241.161l.563.483V315h1.368a.608.608,0,0,0,.563.322c.483,0,.724-.563.644-1.288C340.891,313.065,340.489,312.9,339.523,312.985Z" transform="translate(-304.344 -210.592)" fill="#cfe7e8"/>
  </g>
</svg>
