<svg xmlns="http://www.w3.org/2000/svg" width="46.047" height="31.193" viewBox="0 0 46.047 31.193">
  <g id="united-arab-emirates" transform="translate(0 -80)">
    <path id="Path_26424" data-name="Path 26424" d="M0,304v6.09A4.3,4.3,0,0,0,4.456,314.4H41.591a4.3,4.3,0,0,0,4.456-4.308V304Z" transform="translate(0 -203.205)" fill="#4c4b4b"/>
    <path id="Path_26425" data-name="Path 26425" d="M41.591,80H4.456A4.3,4.3,0,0,0,0,84.308V90.4H46.047v-6.09A4.3,4.3,0,0,0,41.591,80Z" fill="#49a948"/>
    <rect id="Rectangle_2749" data-name="Rectangle 2749" width="46.021" height="10.41" transform="translate(0 90.41)" fill="#fff"/>
    <path id="Path_26426" data-name="Path 26426" d="M327.38,314.4a4.426,4.426,0,0,0,4.6-4.308V304H315.2Z" transform="translate(-285.938 -203.205)" fill="#3f3f3f"/>
    <path id="Path_26427" data-name="Path 26427" d="M85.135,80H48L60.329,90.4H89.591v-6.09A4.3,4.3,0,0,0,85.135,80Z" transform="translate(-43.544)" fill="#369933"/>
    <path id="Path_26428" data-name="Path 26428" d="M192.626,202.4h16.711V192H180Z" transform="translate(-163.289 -101.602)" fill="#cfe5e2"/>
    <path id="Path_26429" data-name="Path 26429" d="M85.135,80H48L82.387,90.4h7.2v-6.09A4.3,4.3,0,0,0,85.135,80Z" transform="translate(-43.544)" fill="#1c8417"/>
    <path id="Path_26430" data-name="Path 26430" d="M421.975,194.08V192H414.4Z" transform="translate(-375.929 -101.602)" fill="#bad3cf"/>
    <path id="Path_26431" data-name="Path 26431" d="M46.047,368.074a4.271,4.271,0,0,1-4.456,4.382H4.456A4.422,4.422,0,0,1,0,368" transform="translate(0 -261.263)" fill="#232222"/>
    <path id="Path_26432" data-name="Path 26432" d="M11.14,80H4.456A4.3,4.3,0,0,0,0,84.308V106.96a4.284,4.284,0,0,0,4.456,4.233H11.14Z" fill="#e73b36"/>
    <path id="Path_26433" data-name="Path 26433" d="M11.14,191.274H0v10.4H11.14Z" transform="translate(0 -100.877)" fill="#db2c2c"/>
    <path id="Path_26434" data-name="Path 26434" d="M0,304v6.164A4.284,4.284,0,0,0,4.456,314.4H11.14V304Z" transform="translate(0 -203.205)" fill="#cc2525"/>
    <path id="Path_26435" data-name="Path 26435" d="M0,368a4.168,4.168,0,0,0,4.456,4.456H11.14V368Z" transform="translate(0 -261.263)" fill="#b70808"/>
    <path id="Path_26436" data-name="Path 26436" d="M54.684,80H48l6.684,5.644Z" transform="translate(-43.544)" fill="#cc2525"/>
    <path id="Path_26437" data-name="Path 26437" d="M54.684,80H48l6.684,1.857Z" transform="translate(-43.544)" fill="#b70808"/>
  </g>
</svg>
