<svg xmlns="http://www.w3.org/2000/svg" width="46.922" height="31.785" viewBox="0 0 46.922 31.785">
  <g id="egypt" transform="translate(0 0)">
    <path id="Path_25475" data-name="Path 25475" d="M0,304.01v6.206A4.38,4.38,0,0,0,4.541,314.6H42.379a4.38,4.38,0,0,0,4.541-4.389V304.01Z" transform="translate(0 -282.821)" fill="#2e2f30"/>
    <path id="Path_25476" data-name="Path 25476" d="M42.379,80.01H4.541A4.38,4.38,0,0,0,0,84.4V90.6H46.92V84.4A4.38,4.38,0,0,0,42.379,80.01Z" transform="translate(0 -80.01)" fill="#cc3434"/>
    <rect id="Rectangle_2604" data-name="Rectangle 2604" width="46.92" height="10.595" transform="translate(0 10.595)" fill="#f5feff"/>
    <path id="Path_25477" data-name="Path 25477" d="M327.611,314.6a4.51,4.51,0,0,0,4.692-4.389V304.01H315.2Z" transform="translate(-285.384 -282.821)"/>
    <path id="Path_25478" data-name="Path 25478" d="M85.839,80.01H48L60.562,90.6H90.379V84.4A4.38,4.38,0,0,0,85.839,80.01Z" transform="translate(-43.46 -80.01)" fill="#ba2b2b"/>
    <path id="Path_25479" data-name="Path 25479" d="M192.865,202.6h17.027V192.01H180Z" transform="translate(-162.973 -181.415)" fill="#d9e2e1"/>
    <path id="Path_25480" data-name="Path 25480" d="M85.839,80.01H48L83.039,90.6h7.341V84.4A4.38,4.38,0,0,0,85.839,80.01Z" transform="translate(-43.46 -80.01)" fill="#a32323"/>
    <path id="Path_25481" data-name="Path 25481" d="M422.119,194.129V192.01H414.4Z" transform="translate(-375.2 -181.415)" fill="#c9d3d1"/>
    <path id="Path_25482" data-name="Path 25482" d="M46.92,368.086a4.31,4.31,0,0,1-4.541,4.465H4.541A4.506,4.506,0,0,1,0,368.01" transform="translate(0 -340.766)"/>
    <g id="Group_17299" data-name="Group 17299" transform="translate(19.676 10.67)">
      <path id="Path_25483" data-name="Path 25483" d="M215.568,201.74c-.076-1.059-.076-2.119-.151-3.178a8.224,8.224,0,0,0-.076-1.362,19.99,19.99,0,0,0-.151-2.195.627.627,0,0,0-.605-.227c-.605.076-1.135.681-1.741.605a2.422,2.422,0,0,1-.378-.984v-.605a.943.943,0,0,0-.3-.832,1.807,1.807,0,0,0-.681-.151c-.076,0-.151.076-.227.151-.3-.151-.757-.227-.681.227.3-.151.605.227.605.53a2.01,2.01,0,0,1-.454,1.589c-.681,0-1.135-.53-1.741-.605-.53-.076-.681.3-.681.832a9.156,9.156,0,0,1-.076,1.438,8.226,8.226,0,0,1-.076,1.362v.757c-.076.454,0,1.059-.076,1.514a4.654,4.654,0,0,1-.076,1.059,3.632,3.632,0,0,1,.908,0c0,.076.076.076.076.227-.227.076-.227.227-.454.3.151.076.151.378.3.454,0,.151,0,.227.076.227.151.076.605.151.832.227a19.409,19.409,0,0,0,4.692-.076c.3-.076.454-.076.454-.378.151-.076.151-.3.3-.454a1.044,1.044,0,0,1-.3-.227c-.076-.076-.076,0-.151-.076,0-.076,0-.151.076-.151A2.522,2.522,0,0,1,215.568,201.74Zm-6.357-.151c-.076.076-.151.076-.227.151-.076-.151.076-.3.227-.3Zm3.86.3a3.646,3.646,0,0,1-.908,0,.23.23,0,0,1,0-.3h.908c.378-.076.832-.151,1.135-.227.076,0,.076.151.076.227a3.194,3.194,0,0,1-.908.227C213.373,201.513,213.07,201.589,213.07,201.891Zm.3,0-.151.151a.234.234,0,0,0-.151-.076C213.07,201.664,213.373,201.589,213.373,201.891Zm-2.119-2.649c.076.076.151.151.227.151,0,.151-.076.3-.076.454C211.33,199.7,211.027,199.394,211.254,199.243Zm-.378.378a3.684,3.684,0,0,1-.076-.908l.454.454A2.007,2.007,0,0,1,210.876,199.621Zm.605,1.741c.076-.378.076-.832.151-1.211a5.729,5.729,0,0,1-.076,1.135c0,.151.151.151.151.3l.227-.227c0-.378-.076-.832-.076-1.211a5.841,5.841,0,0,1,.151,1.135c.076.076.151.076.151.151.076,0,.076-.076.151-.076.076.076,0,.151.076.227h-.3c-.076,0-.076.076-.151.076h-.454c-.076-.151-.3-.076-.454-.076,0-.076,0-.151.076-.151,0-.076.076.076.151.076C211.33,201.437,211.406,201.437,211.481,201.362Zm1.211-1.741c-.151-.076-.227-.3-.378-.454l.454-.454h0C212.768,199.016,212.692,199.318,212.692,199.621Zm.3-1.362h0c.076.378.378.757.151,1.135-.151-.076-.227-.3-.378-.378A1.279,1.279,0,0,1,212.995,198.259Zm-.605,1.135c-.076.151-.151.378-.227.53-.076-.151-.076-.3-.151-.454.076-.076.151-.076.227-.227A.163.163,0,0,1,212.389,199.394Zm-.757,2.724c-.076,0-.151-.076-.227-.151,0-.076.076-.076.076-.227C211.633,201.74,211.708,201.967,211.633,202.118Zm0-.378h.3c-.076.076-.076.227-.227.151C211.708,201.816,211.633,201.816,211.633,201.74Zm.378,0c.076,0,.076.151.151.227,0,.076-.151.076-.151.151C211.86,202.043,211.935,201.816,212.011,201.74Zm.908-.378c.076,0,.151.151.151.227h-.227C212.843,201.513,212.919,201.437,212.919,201.362Zm.378.151a.393.393,0,0,1,.151-.3c.076.076.151.151.151.227C213.524,201.437,213.373,201.513,213.3,201.513Zm.378-.076c-.076-.076-.151-.227-.3-.378a1.076,1.076,0,0,0-.151.454h-.076a.574.574,0,0,1-.151-.3c-.076.076-.076.227-.151.378h-.227a1.056,1.056,0,0,1,0-.832.756.756,0,0,1,.3.378c.076-.151.076-.3.151-.454a.756.756,0,0,1,.3.378c.076-.151.151-.378.227-.53h.076l.227.908Zm-.3-.53c-.151-.076-.151-.227-.3-.378-.076.151-.076.3-.151.454-.151-.076-.227-.3-.378-.378a.96.96,0,0,0-.076.454c-.076-.227-.151-.53-.227-.832.076,0,.227.227.3.3.076-.227.076-.454.151-.605.151.076.151.227.227.3l.227-.454c.151.076.227.227.378.3C213.676,200.453,213.449,200.68,213.373,200.907Zm-.227-1.135c-.076.151-.076.227-.151.378-.151-.076-.151-.227-.227-.3a1.807,1.807,0,0,0-.151.681c-.151-.151-.378-.227-.378-.454,0-.076.076-.227.076-.3.076-.076.076-.151.151-.3.076.076.151.227.3.3a2.1,2.1,0,0,1,.076-.681c.151.076.227.227.378.378a.278.278,0,0,0,.076-.227,1.725,1.725,0,0,1,.227.832C213.373,200,213.3,199.848,213.146,199.772Zm.151-1.135a7.291,7.291,0,0,1,0-1.287h.076c0,.757.076,1.514.076,2.27A2.235,2.235,0,0,1,213.3,198.637Zm-1.514.908a3.544,3.544,0,0,1-1.589-3.254,2.483,2.483,0,0,0,1.589-.454l.454.227a2.527,2.527,0,0,0,1.135.227A3.544,3.544,0,0,1,211.784,199.545Zm-.984-.53a.912.912,0,0,1-.378.378c-.3-.3.076-.757.076-1.135A.877.877,0,0,1,210.8,199.016Zm-.605-1.665h0c.151.151.076.53.076.832a3.758,3.758,0,0,1-.151,1.362C210.119,198.864,210.195,198.032,210.195,197.351Zm.151,1.892c0,.076.076.151.076.227l.378-.378a1.879,1.879,0,0,1,.076.681c.076-.076.151-.227.3-.3.076.227.151.378.227.605-.076.227-.227.3-.378.454l-.227-.681c-.151.076-.076.3-.227.3-.076-.151-.076-.227-.151-.378-.151.076-.227.227-.378.3,0-.076.076-.151.076-.227C210.195,199.621,210.195,199.394,210.346,199.243Zm0,.605a2.52,2.52,0,0,1,.227.454c.076-.076.076-.227.227-.3a5.214,5.214,0,0,0,.227.605l.3-.3a2.689,2.689,0,0,0-.151.757c-.076-.076-.076-.3-.076-.454-.151.076-.227.3-.378.378a1.076,1.076,0,0,1-.151-.454c-.151.076-.151.227-.3.378-.076-.227-.3-.454-.227-.757C210.195,200.075,210.27,199.924,210.346,199.848Zm-.151,1.135a1.328,1.328,0,0,1,.3-.378,1.076,1.076,0,0,1,.151.454c.151-.076.227-.3.3-.378a1.06,1.06,0,0,1,0,.832h-.227c-.076-.076-.076-.227-.151-.378-.076.076-.151.227-.227.3h-.076a1.076,1.076,0,0,1-.151-.454c-.076.076-.151.227-.227.3a.278.278,0,0,1-.227-.076,7.03,7.03,0,0,1,.3-.984A4.7,4.7,0,0,0,210.195,200.983Zm.53.605H210.5c0-.076.076-.151.076-.227C210.649,201.362,210.649,201.513,210.724,201.589Zm-.454-.076c-.151,0-.227-.076-.3-.076,0-.151.151-.151.151-.3C210.195,201.286,210.27,201.362,210.27,201.513Zm0,.076a6.117,6.117,0,0,0,1.135.076c.076.076,0,.151,0,.3a3.648,3.648,0,0,1-.908,0c0-.3-.227-.378-.227-.076-.3-.076-.757-.076-.757-.227v-.227c0-.076-.076-.076.076-.076A7.152,7.152,0,0,0,210.27,201.589Zm.151.3a.074.074,0,0,0-.076.076c-.151,0-.151-.378.076-.3Zm3.935-.454c.151,0,.227.151.227.3-.076,0-.151-.076-.227-.076Zm-.454-.076c-.151-.53-.3-.984-.454-1.514.151.076.227.227.3.3,0-1.287-.151-2.649-.151-4.011a1.172,1.172,0,0,1-.605.151,2.185,2.185,0,0,1-1.287-.454,2.971,2.971,0,0,1-.984.454.929.929,0,0,1-.908-.151c-.076,1.362-.151,2.649-.151,4.011.151-.076.227-.227.378-.3-.151.53-.3,1.135-.454,1.589-.3-.076-.681-.3-.757.227h-.605c.076,0,.076-.151.227-.3.076-2.043.151-4.011.227-6.13a.578.578,0,0,0-.378.151c0-.3.151-.605.454-.605.681-.076,1.211.605,1.892.605,0,.076-.076.076-.151.151.151,0,.378,0,.454-.076,0,.076-.076.151-.151.227a.676.676,0,0,0,.605-.3l.227.227.227-.227a.959.959,0,0,0,.681.3c0-.076-.151-.151-.151-.227a1.124,1.124,0,0,0,.454.076c0-.076-.151-.076-.151-.151.757,0,1.135-.681,1.892-.605.3,0,.454.227.454.605-.151-.076-.227-.151-.378-.151.076,1.665.151,3.708.227,5.373,0,.227-.076.53,0,.681s.3.227.378.378h-.757C214.66,201.362,214.281,201.286,213.9,201.362Z" transform="translate(-208 -192.81)" fill="#db9c00"/>
      <g id="Group_17296" data-name="Group 17296" transform="translate(0.378 0)">
        <path id="Path_25484" data-name="Path 25484" d="M231.178,225.264a2.184,2.184,0,0,1-1.286-.454,2.971,2.971,0,0,1-.984.454.929.929,0,0,1-.908-.151v.3l.378.3v-.378a2.483,2.483,0,0,0,1.589-.454l.454.227a2.527,2.527,0,0,0,1.135.227,4.014,4.014,0,0,1-.757,2.422h.076l.076-.076h0v.151h0a.859.859,0,0,1,.227-.605h.076c0,.3.227.681.151.984h0v0l.076.076a1.88,1.88,0,0,1-.076-.681,7.29,7.29,0,0,1,0-1.287h.076c0,.681.076,1.438.076,2.119l.378.3c0-1.211-.076-2.422-.151-3.633A1.172,1.172,0,0,1,231.178,225.264Z" transform="translate(-226.486 -221.783)" fill="#996a00"/>
        <path id="Path_25485" data-name="Path 25485" d="M219.038,198.561a8.226,8.226,0,0,0-.076-1.362,19.99,19.99,0,0,0-.151-2.195.628.628,0,0,0-.605-.227c-.605.076-1.135.681-1.741.605a2.422,2.422,0,0,1-.378-.984v-.605a.943.943,0,0,0-.3-.832,1.807,1.807,0,0,0-.681-.151c-.076,0-.151.076-.227.151-.3-.151-.757-.227-.681.227.3-.151.605.227.605.53a2.01,2.01,0,0,1-.454,1.589c-.681,0-1.135-.53-1.741-.605-.378,0-.53.151-.605.378h0a.511.511,0,0,1,.454-.3c.681-.076,1.211.605,1.892.605,0,.076-.076.076-.151.151.151,0,.378,0,.454-.076,0,.076-.076.151-.151.227a.676.676,0,0,0,.605-.3l.227.227.227-.227a.959.959,0,0,0,.681.3c0-.076-.151-.151-.151-.227a1.125,1.125,0,0,0,.454.076c0-.076-.151-.076-.151-.151.757,0,1.135-.681,1.892-.605.3,0,.454.227.454.605-.151-.076-.227-.151-.378-.151.076,1.665.151,3.708.227,5.373v.227l.454.378A15.478,15.478,0,0,0,219.038,198.561Z" transform="translate(-212 -192.81)" fill="#996a00"/>
        <path id="Path_25486" data-name="Path 25486" d="M213.827,218.637v-.227a.278.278,0,0,0-.227.076Z" transform="translate(-213.449 -215.988)" fill="#996a00"/>
      </g>
      <path id="Path_25487" data-name="Path 25487" d="M214.627,219.21c-.076,1.968-.151,3.935-.227,5.827.151-.076.3-.3.454-.378.076-1.816.151-3.33.227-5.07A2.007,2.007,0,0,0,214.627,219.21Z" transform="translate(-213.795 -216.713)" fill="#db9c00"/>
      <path id="Path_25488" data-name="Path 25488" d="M216.8,219.437l.454.378v-.227a2.007,2.007,0,0,0-.454-.378Z" transform="translate(-215.968 -216.713)" fill="#996a00"/>
      <path id="Path_25489" data-name="Path 25489" d="M274.854,219.21c-.076.151-.378.227-.454.378v.681c.151,1.362.076,2.876.151,4.314l.227.227c.076.076.151.227.227.151C275.005,223.145,274.93,220.951,274.854,219.21Z" transform="translate(-268.119 -216.713)" fill="#db9c00"/>
      <path id="Path_25490" data-name="Path 25490" d="M274.854,219.21c-.076.151-.378.227-.454.378v.681c.076,1.211.076,2.573.151,3.935l.454.378C275.005,222.843,274.93,220.875,274.854,219.21Z" transform="translate(-268.119 -216.713)" fill="#996a00"/>
      <path id="Path_25491" data-name="Path 25491" d="M220.8,228.853c.076-.151.3-.227.378-.378s0-.378,0-.605c.076-1.135.151-2.5.151-3.557-.151-.076-.227-.227-.378-.3C220.951,225.6,220.876,227.264,220.8,228.853Z" transform="translate(-219.589 -221.059)" fill="#db9c00"/>
      <path id="Path_25492" data-name="Path 25492" d="M222.4,224.237l.378.3v-.227c-.151-.076-.227-.227-.378-.3C222.476,224.086,222.4,224.161,222.4,224.237Z" transform="translate(-221.038 -221.059)" fill="#996a00"/>
      <path id="Path_25493" data-name="Path 25493" d="M269.6,225.037c.076,1.362.076,2.8.151,4.162l.3.3.076.076c-.076-1.589-.151-3.33-.227-4.768C269.827,224.886,269.676,224.961,269.6,225.037Z" transform="translate(-263.773 -221.783)" fill="#db9c00"/>
      <path id="Path_25494" data-name="Path 25494" d="M269.9,224.01c-.076.076-.227.151-.3.3.076,1.286.076,2.573.151,3.86l.378.3C270.054,226.961,269.978,225.372,269.9,224.01Z" transform="translate(-263.773 -221.059)" fill="#996a00"/>
      <path id="Path_25495" data-name="Path 25495" d="M232,226.064a3.607,3.607,0,0,0,1.514,3.027,3.382,3.382,0,0,0,1.438-3.027,2.049,2.049,0,0,1-1.438-.454A2.26,2.26,0,0,1,232,226.064Z" transform="translate(-229.73 -222.507)" fill="#db9c00"/>
      <path id="Path_25496" data-name="Path 25496" d="M232,226.064c0,.151.076.227.076.378l2.195,1.892a3.677,3.677,0,0,0,.681-2.27,2.049,2.049,0,0,1-1.438-.454A2.26,2.26,0,0,1,232,226.064Z" transform="translate(-229.73 -222.507)" fill="#996a00"/>
      <g id="Group_17297" data-name="Group 17297" transform="translate(1.362 8.653)">
        <path id="Path_25497" data-name="Path 25497" d="M222.4,284.334c.076,0,.151.076.227.076,0-.151-.151-.151-.227-.076Z" transform="translate(-222.4 -284.285)" fill="#db9c00"/>
        <path id="Path_25498" data-name="Path 25498" d="M271.2,284.41c.076,0,.151-.076.227-.076C271.427,284.259,271.2,284.259,271.2,284.41Z" transform="translate(-266.584 -284.285)" fill="#db9c00"/>
        <path id="Path_25499" data-name="Path 25499" d="M226.7,285.686c-.076-.076-.151-.076-.3-.076A.455.455,0,0,0,226.7,285.686Z" transform="translate(-226.022 -285.485)" fill="#db9c00"/>
        <path id="Path_25500" data-name="Path 25500" d="M266.4,285.686c.076,0,.3,0,.3-.076A.783.783,0,0,0,266.4,285.686Z" transform="translate(-262.238 -285.485)" fill="#db9c00"/>
        <path id="Path_25501" data-name="Path 25501" d="M257.6,286.924h.3C257.9,286.772,257.676,286.772,257.6,286.924Z" transform="translate(-254.27 -286.571)" fill="#db9c00"/>
        <path id="Path_25502" data-name="Path 25502" d="M235.5,287.029c-.076,0-.3-.076-.3.076C235.276,287.029,235.5,287.1,235.5,287.029Z" transform="translate(-233.989 -286.752)" fill="#db9c00"/>
        <path id="Path_25503" data-name="Path 25503" d="M240.3,287.21c-.076,0-.3,0-.3.076A.455.455,0,0,0,240.3,287.21Z" transform="translate(-238.335 -286.933)" fill="#db9c00"/>
        <path id="Path_25504" data-name="Path 25504" d="M252.8,287.534a.572.572,0,0,1,.3.076C253.1,287.459,252.876,287.459,252.8,287.534Z" transform="translate(-249.924 -287.182)" fill="#db9c00"/>
      </g>
      <g id="Group_17298" data-name="Group 17298" transform="translate(1.211 9.081)">
        <path id="Path_25505" data-name="Path 25505" d="M264.284,289.264c-.227,0-.151-.378-.3-.454a.278.278,0,0,0-.227.076c.227-.151.3.227.3.454-.076,0-.076-.076-.151-.076-.151,0-.151.151-.3.151,0-.076-.076-.076-.227-.076-.076-.076,0-.227-.076-.227,0,.076.076.151.076.227-.076.076-.076.076-.076.151h-.151c0-.076,0-.151-.076-.151,0,.076-.151.076-.076.151a.234.234,0,0,1,.151.076c0,.076-.076.076-.076.151.076,0,.076-.076.151-.151.151,0,.3-.076.378,0,.076,0,.076-.151.151-.151.151.151.3-.076.378-.076h.227v-.076C264.284,289.188,264.359,289.264,264.284,289.264Zm-1.286.227c0-.076,0-.076.076-.076v.076S263.073,289.567,263,289.491Zm.378,0v-.151c.076,0,.076.076,0,.151Zm.227-.076h-.076C263.376,289.34,263.6,289.264,263.6,289.415Zm-.076.076a.074.074,0,0,1,.076-.076C263.6,289.491,263.527,289.567,263.527,289.491Zm.227-.076c0-.151.151-.151.227-.076C263.981,289.415,263.83,289.415,263.754,289.415Z" transform="translate(-258.986 -288.81)" fill="#f5feff"/>
        <path id="Path_25506" data-name="Path 25506" d="M221.751,289.686h0c-.076-.076-.076-.076-.151-.076v.076Z" transform="translate(-221.524 -289.534)" fill="#f5feff"/>
        <path id="Path_25507" data-name="Path 25507" d="M220.951,291.21H220.8c.076.076.076.076.151,0Z" transform="translate(-220.8 -290.983)" fill="#f5feff"/>
        <path id="Path_25508" data-name="Path 25508" d="M253.676,292.886v-.076H253.6a.074.074,0,0,0,.076.076Z" transform="translate(-250.497 -292.432)" fill="#f5feff"/>
        <path id="Path_25509" data-name="Path 25509" d="M229.481,293.34c-.076-.076-.076-.151-.151-.227.151-.076.076-.3,0-.3s-.076.076-.151.076c0,.076.076.076.076.151-.076,0-.227.076-.3,0,0-.076,0-.151-.076-.151,0,.076.076.227-.076.3.076,0,.076-.076.151-.076.076.076.227,0,.3,0,.151.076.151.3.227.227.151,0,.151-.378.076-.53C229.557,292.961,229.708,293.34,229.481,293.34Zm-.3-.3c0-.227.3,0,.076.076Z" transform="translate(-228.043 -292.432)" fill="#f5feff"/>
        <path id="Path_25510" data-name="Path 25510" d="M238.878,293.264c0-.151.076-.378,0-.454C238.878,292.886,238.8,293.113,238.878,293.264Z" transform="translate(-237.138 -292.432)" fill="#f5feff"/>
        <path id="Path_25511" data-name="Path 25511" d="M254.778,292.237c-.076.076.076.076,0,.151,0,.076-.076.076-.151.076-.151-.076,0-.378-.076-.454,0,.076.076.227,0,.378-.076,0-.151,0-.151.076h.454S254.93,292.237,254.778,292.237Z" transform="translate(-251.222 -291.707)" fill="#f5feff"/>
        <path id="Path_25512" data-name="Path 25512" d="M253.978,294.088c0-.076-.076,0-.076,0C253.751,294.088,253.978,294.164,253.978,294.088Z" transform="translate(-250.724 -293.558)" fill="#f5feff"/>
        <path id="Path_25513" data-name="Path 25513" d="M260.6,294.41c-.076.076.076.151.076.227s-.076.076-.076.151C260.673,294.788,260.749,294.486,260.6,294.41Zm.076.227a.074.074,0,0,1-.076-.076C260.6,294.486,260.673,294.561,260.673,294.637Z" transform="translate(-256.813 -293.88)" fill="#f5feff"/>
        <path id="Path_25514" data-name="Path 25514" d="M275.2,294.888c.076,0,.151.076.151,0C275.276,294.888,275.2,294.812,275.2,294.888Z" transform="translate(-270.054 -294.283)" fill="#f5feff"/>
        <path id="Path_25515" data-name="Path 25515" d="M240.984,295.437h-.076c0-.076,0-.151-.076-.151a.665.665,0,0,1-.53-.076c0,.076.076.151-.076.227-.076,0-.076-.151-.151-.151-.076.076.076.151.076.151,0,.076-.076.151-.151.227.076,0,.151-.151.227-.227h.454c0,.076.076.076.151.151.076,0,.076-.151.076-.151.151,0,.227,0,.3-.076C241.211,295.21,240.984,295.286,240.984,295.437Zm-.227.151c-.076,0-.076-.076-.076-.151h-.3c0-.3.3,0,.454-.151C240.908,295.437,240.832,295.513,240.757,295.588Zm.3-.151c-.076-.076.076-.151.076-.076S241.135,295.437,241.059,295.437Z" transform="translate(-238.184 -294.605)" fill="#f5feff"/>
        <path id="Path_25516" data-name="Path 25516" d="M221.676,296.564v-.076s0-.076-.076,0C221.6,296.412,221.6,296.488,221.676,296.564Z" transform="translate(-221.524 -295.731)" fill="#f5feff"/>
        <path id="Path_25517" data-name="Path 25517" d="M223.2,296.586c.076.076.151,0,.151-.076C223.276,296.434,223.2,296.51,223.2,296.586Z" transform="translate(-222.973 -295.753)" fill="#f5feff"/>
        <path id="Path_25518" data-name="Path 25518" d="M225.4,296.774h.076C225.473,296.622,225.322,296.7,225.4,296.774Z" transform="translate(-224.943 -295.941)" fill="#f5feff"/>
        <path id="Path_25519" data-name="Path 25519" d="M255.457,298.41c-.076,0-.076.151,0,.151Z" transform="translate(-252.127 -297.502)" fill="#f5feff"/>
        <path id="Path_25520" data-name="Path 25520" d="M256.8,298.59a.074.074,0,0,0,.076.076C257.027,298.59,256.8,298.439,256.8,298.59Z" transform="translate(-253.395 -297.606)" fill="#f5feff"/>
        <path id="Path_25521" data-name="Path 25521" d="M222.205,289.988c.151.227-.151.3-.227.151,0-.076.076-.076.076-.151-.076,0-.076.151-.076.151-.3,0-.076-.378-.076-.53h-.076a.416.416,0,0,1-.227.378c0,.151.151.151.3.227a.455.455,0,0,0,.3.076C222.205,290.14,222.357,289.988,222.205,289.988Z" transform="translate(-221.524 -289.534)" fill="#f5feff"/>
      </g>
    </g>
  </g>
</svg>
