<svg xmlns="http://www.w3.org/2000/svg" width="47" height="31.6" viewBox="0 0 47 31.6">
  <g id="kuwait" transform="translate(0.127 -80)">
    <path id="Path_26483" data-name="Path 26483" d="M0,304v6.17a4.355,4.355,0,0,0,4.514,4.364h37.62a4.355,4.355,0,0,0,4.514-4.364V304Z" transform="translate(-0.107 -202.933)" fill="#db2727"/>
    <path id="Path_26484" data-name="Path 26484" d="M42.134,80H4.514A4.355,4.355,0,0,0,0,84.364v6.17H46.648v-6.17A4.355,4.355,0,0,0,42.134,80Z" transform="translate(-0.107)" fill="#359846"/>
    <rect id="Rectangle_2750" data-name="Rectangle 2750" width="47" height="10" transform="translate(-0.127 90.601)" fill="#fff"/>
    <path id="Path_26485" data-name="Path 26485" d="M327.539,314.533a4.484,4.484,0,0,0,4.665-4.364V304h-17Z" transform="translate(-285.662 -202.933)" fill="#c61a1a"/>
    <path id="Path_26486" data-name="Path 26486" d="M85.62,80H48L60.49,90.533H90.134v-6.17A4.355,4.355,0,0,0,85.62,80Z" transform="translate(-43.592)" fill="#218930"/>
    <path id="Path_26487" data-name="Path 26487" d="M192.791,202.533h16.929V192H180Z" transform="translate(-163.178 -101.466)" fill="#cfe5e2"/>
    <path id="Path_26488" data-name="Path 26488" d="M85.62,80H48L82.836,90.533h7.3v-6.17A4.355,4.355,0,0,0,85.62,80Z" transform="translate(-43.592)" fill="#167221"/>
    <path id="Path_26489" data-name="Path 26489" d="M422.074,194.107V192H414.4Z" transform="translate(-375.533 -101.466)" fill="#bad3cf"/>
    <path id="Path_26490" data-name="Path 26490" d="M46.648,368.075a4.284,4.284,0,0,1-4.514,4.439H4.514A4.48,4.48,0,0,1,0,368" transform="translate(-0.107 -260.914)" fill="#b20b0b"/>
    <path id="Path_26491" data-name="Path 26491" d="M0,107.556V130.5a4.39,4.39,0,0,0,.451,1.956l7.825-7.9V113.425L.451,105.6A4.39,4.39,0,0,0,0,107.556Z" transform="translate(-0.107 -23.192)" fill="#383737"/>
    <path id="Path_26492" data-name="Path 26492" d="M0,191.275v16.778a4.39,4.39,0,0,0,.451,1.956l7.825-7.9V191.275" transform="translate(-0.107 -100.742)" fill="#151515"/>
  </g>
</svg>
