<svg xmlns="http://www.w3.org/2000/svg" width="46.047" height="31.756" viewBox="0 0 46.047 31.756">
  <g id="nigeria" transform="translate(0)">
    <path id="Path_25522" data-name="Path 25522" d="M35.725,32.256h8.733a1.588,1.588,0,0,0,1.588-1.588V2.088A1.588,1.588,0,0,0,44.458.5H1.587A1.588,1.588,0,0,0,0,2.088V30.669a1.588,1.588,0,0,0,1.588,1.588Zm0,0" transform="translate(0.001 -0.5)" fill="#4c8056"/>
    <path id="Path_25523" data-name="Path 25523" d="M14.29.5V32.256H1.588A1.592,1.592,0,0,1,0,30.669V2.088A1.592,1.592,0,0,1,1.588.5Zm0,0" transform="translate(0.001 -0.5)" fill="#4c8056"/>
    <path id="Path_25524" data-name="Path 25524" d="M158.9.5h17.466V32.256H158.9Zm0,0" transform="translate(-144.607 -0.5)" fill="#e6e7e8"/>
  </g>
</svg>
