<svg xmlns="http://www.w3.org/2000/svg" width="46.11" height="31.756" viewBox="0 0 46.11 31.756">
  <g id="oman" transform="translate(0 -77.2)">
    <path id="Path_26407" data-name="Path 26407" d="M0,304.4v6.024a4.492,4.492,0,0,0,4.462,4.537H41.647a4.492,4.492,0,0,0,4.462-4.537V304.4Z" transform="translate(0 -206.079)" fill="green"/>
    <path id="Path_26408" data-name="Path 26408" d="M41.647,77.2H4.462A4.492,4.492,0,0,0,0,81.737v6.024H46.11V81.737A4.492,4.492,0,0,0,41.647,77.2Z" transform="translate(0 0)" fill="#ecffeb"/>
    <rect id="Rectangle_2747" data-name="Rectangle 2747" width="46.11" height="10.784" transform="translate(0 87.612)" fill="#db161b"/>
    <path id="Path_26409" data-name="Path 26409" d="M327.545,314.961a4.492,4.492,0,0,0,4.462-4.537V304.4H315.2Z" transform="translate(-285.898 -206.079)" fill="#016801"/>
    <path id="Path_26410" data-name="Path 26410" d="M85.185,77.2H48L60.345,87.761h29.3V81.737A4.492,4.492,0,0,0,85.185,77.2Z" transform="translate(-43.538 0)" fill="#def7dc"/>
    <path id="Path_26411" data-name="Path 26411" d="M192.643,200.058h16.733V189.2H180Z" transform="translate(-163.267 -101.588)" fill="#cc0917"/>
    <path id="Path_26412" data-name="Path 26412" d="M85.185,77.2H48L82.433,87.761h7.214V81.737A4.492,4.492,0,0,0,85.185,77.2Z" transform="translate(-43.538 0)" fill="#c9eac5"/>
    <path id="Path_26413" data-name="Path 26413" d="M421.986,191.505V189.2H414.4Z" transform="translate(-375.876 -101.588)" fill="#b5081d"/>
    <path id="Path_26414" data-name="Path 26414" d="M46.11,369.2a4.492,4.492,0,0,1-4.462,4.537H4.462A4.492,4.492,0,0,1,0,369.2" transform="translate(0 -264.855)" fill="#015601"/>
    <path id="Path_26415" data-name="Path 26415" d="M11.379,77.2H4.462A4.492,4.492,0,0,0,0,81.737v22.683a4.492,4.492,0,0,0,4.462,4.537h6.916Z" transform="translate(0 0)" fill="#e73b36"/>
    <path id="Path_26416" data-name="Path 26416" d="M11.379,189.2H0v10.858H11.379Z" transform="translate(0 -101.588)" fill="#db2c2c"/>
    <path id="Path_26417" data-name="Path 26417" d="M0,304.4v6.024a4.492,4.492,0,0,0,4.462,4.537h6.916V304.4Z" transform="translate(0 -206.079)" fill="#cc2525"/>
    <path id="Path_26418" data-name="Path 26418" d="M0,369.2a4.492,4.492,0,0,0,4.462,4.537h6.916V369.2Z" transform="translate(0 -264.855)" fill="#b70808"/>
    <path id="Path_26419" data-name="Path 26419" d="M54.916,77.2H48l6.916,5.875Z" transform="translate(-43.538 0)" fill="#cc2525"/>
    <path id="Path_26420" data-name="Path 26420" d="M54.916,77.2H48l6.916,2.082Z" transform="translate(-43.538 0)" fill="#b70808"/>
    <path id="Path_26421" data-name="Path 26421" d="M29.242,130.07c-.149-.149-.372-.3-.669-.595H28.5a18.885,18.885,0,0,1-1.562-1.413l-.372-.372v-.149h0v-.3c.074-.149.223-.223.3-.372h0c0,.149.149.223.372.223a.568.568,0,0,0,.372-.149h.149v.149a.16.16,0,0,0,.149.149h1.339a.16.16,0,0,0,.149-.149V126.5a.16.16,0,0,0-.149-.149H27.9a.16.16,0,0,0-.149.149v.149h-.149c0-.074-.149-.149-.372-.149h0a8.6,8.6,0,0,0,1.264-2.826V123.6h0a9.243,9.243,0,0,0-1.859,2.6h.074a.073.073,0,0,1-.074.074h-.074v-.149c.074,0,.149-.074.149-.223,0-.074-.074-.149-.149-.223v-.074h0v-.149h-.149l-.149-.149h0v-.223h-.595v.223h0a.26.26,0,0,1-.074.149h-.149v.223c-.074,0-.149.074-.149.223,0,.074.074.149.149.223v.149h-.074a.073.073,0,0,0-.074-.074h.074a9.242,9.242,0,0,0-1.859-2.6h0v.074a7.893,7.893,0,0,0,1.264,2.752.568.568,0,0,0-.372.149h-.3V126.5a.16.16,0,0,0-.149-.149H22.7a.16.16,0,0,0-.149.149v.595a.16.16,0,0,0,.149.149h1.339a.16.16,0,0,0,.149-.149v-.149h.149a.539.539,0,0,0,.744,0,.26.26,0,0,0,.149.074l.223.223h0c0,.074,0,.149-.074.149H23.516c-.372.074-.669.149-.669.223,0,.149.3.3.669.372h0l.223.074h0c.149,0,.223.074.372.074h.074c.149,0,.223.074.372.074h.149c-.521.446-.892.818-1.264,1.116h-.074a4.81,4.81,0,0,1-.669.595c-.223.149-.3.223-.3.3a.073.073,0,0,0,.074.074h.149a2.979,2.979,0,0,0,1.487-.818h0c.446-.372.892-.744,1.339-1.19h.372c.149,0,.223-.074.372-.149h0l.074-.074.074.074c.521.521,1.041.967,1.487,1.413h0a2.5,2.5,0,0,0,1.487.818h.149a.073.073,0,0,0,.074-.074C29.54,130.368,29.391,130.219,29.242,130.07Zm-2.6-3.793c0,.074-.074.074,0,0Zm0-.372c0,.074,0,.074-.074.149v-.223C26.639,125.757,26.639,125.831,26.639,125.905Zm-1.339,0c0-.074,0-.074.074-.149l-.074.149c.074,0,.074.074.074.149A.23.23,0,0,1,25.3,125.905Zm.074.372Z" transform="translate(-20.318 -42.086)" fill="#ecffeb"/>
    <rect id="Rectangle_2748" data-name="Rectangle 2748" width="0.446" height="0.223" transform="translate(5.429 82.555)" fill="#def7dc"/>
    <g id="Group_17784" data-name="Group 17784" transform="translate(5.028 81.216)">
      <path id="Path_26422" data-name="Path 26422" d="M54.264,121.144h0a.386.386,0,0,0,.3.149v.149h.372v-.149c.149,0,.223-.074.3-.223h0a.149.149,0,0,0,0-.3.464.464,0,0,0-.372-.223.149.149,0,1,0-.3,0c-.149.074-.3.149-.3.3a.16.16,0,0,0-.149.149C54.041,121.069,54.115,121.144,54.264,121.144Z" transform="translate(-54.086 -120.4)" fill="#c9eac5"/>
      <path id="Path_26423" data-name="Path 26423" d="M63.347,130.07c-.149-.149-.372-.3-.669-.595H62.6a18.889,18.889,0,0,1-1.562-1.413l-.372-.372v-.149h0v-.3c.074-.149.223-.223.3-.372h0c0,.149.149.223.372.223a.568.568,0,0,0,.372-.149h.149v.149a.16.16,0,0,0,.149.149h1.339a.16.16,0,0,0,.149-.149V126.5a.16.16,0,0,0-.149-.149H62.008a.16.16,0,0,0-.149.149v.149h-.149c0-.074-.149-.149-.372-.149h0a8.6,8.6,0,0,0,1.264-2.826V123.6h0a9.243,9.243,0,0,0-1.859,2.6h.074a.073.073,0,0,1-.074.074h-.074v-.149c.074,0,.149-.074.149-.223,0-.074-.074-.149-.149-.223v-.074h0v-.149h-.149l-.149-.149h0v-.223H60v3.347c.074,0,.223-.074.3-.074h0l.074-.074.074.074c.521.521,1.041.967,1.487,1.413h0a2.5,2.5,0,0,0,1.487.818h.149a.073.073,0,0,0,.074-.074C63.644,130.368,63.5,130.219,63.347,130.07Zm-2.677-4.313a.26.26,0,0,1,.074.149c0,.074,0,.074-.074.149Zm0,.521h0c.074.074,0,.074,0,0Z" transform="translate(-59.45 -123.302)" fill="#c9eac5"/>
    </g>
  </g>
</svg>
