<svg id="Flag_Saudi_Arabia_" data-name="Flag Saudi Arabia " xmlns="http://www.w3.org/2000/svg" width="139.379" height="139.379" viewBox="0 0 139.379 139.379">
  <path id="Path_26391" data-name="Path 26391" d="M72.189,141.879h0A69.9,69.9,0,0,1,2.5,72.189h0A69.9,69.9,0,0,1,72.189,2.5h0a69.9,69.9,0,0,1,69.689,69.689h0A69.9,69.9,0,0,1,72.189,141.879Z" transform="translate(-2.5 -2.5)" fill="#006c35"/>
  <g id="Group_17782" data-name="Group 17782" transform="translate(32.314 44.072)">
    <path id="Path_26392" data-name="Path 26392" d="M135.08,177h-.135a1.956,1.956,0,0,1-1.759-1.326,4.018,4.018,0,0,1-.65-1.678.149.149,0,0,1-.081.135l-.081.135a2.561,2.561,0,0,1-.189.947,5.947,5.947,0,0,1-.46,1.055,2.224,2.224,0,0,1-.731.839,2.674,2.674,0,0,1-3.708-.433,3.9,3.9,0,0,1-.839-1.732,8.1,8.1,0,0,1-.108-1.083v-.081a2.68,2.68,0,0,1,.081-.514,6.572,6.572,0,0,0,.108-.812c.027-.3.027-.568.027-.812a1.661,1.661,0,0,1,.081-.433,4.2,4.2,0,0,0,.135-.622,2.951,2.951,0,0,0,.081-.7.149.149,0,0,1,.081-.135v-.135h-.108c-.027,0-.054.027-.108.081l-.217.216v.135a.541.541,0,0,1-.081.217,2.38,2.38,0,0,0-.325.65,2.42,2.42,0,0,0-.189.731.247.247,0,0,0-.081.135c-.054.352-.108.7-.216,1.137a10.352,10.352,0,0,0-.216,1.137,5.907,5.907,0,0,1-.189,1.353c-.108.568-.244,1-.325,1.353a1.955,1.955,0,0,1-.514.568.991.991,0,0,1-.812.216,1.5,1.5,0,0,1-.866-.731,6.759,6.759,0,0,1-.65-2.192,12.152,12.152,0,0,1-.135-1.813v-.081c0-.3,0-.568.027-.866s.027-.568.027-.812c0-.108.027-.135.081-.135v-.135l.135-.352v.731c0,.3,0,.622.027,1.028a7.1,7.1,0,0,0,.108.947,7.952,7.952,0,0,0,.244,1.3,1.882,1.882,0,0,0,.406.812.664.664,0,0,0,.65.433.678.678,0,0,0,.65-.352,2.94,2.94,0,0,0,.46-1.191,12.053,12.053,0,0,1,.406-1.57l.135-.568c.054-.3.162-.758.352-1.407a7.471,7.471,0,0,1,.812-1.84c.352-.568.677-.893,1.028-.947h.162a.247.247,0,0,1,.081.135l-.217,1.894a12.674,12.674,0,0,1-.108,1.786,9.278,9.278,0,0,0-.108,1.055,2.31,2.31,0,0,0,0,.866c.054.244.108.568.216.947a2.859,2.859,0,0,0,.65.812,1.137,1.137,0,0,0,.568.3,2.369,2.369,0,0,0,1.732-.081,3.643,3.643,0,0,0,1.028-.947,3.155,3.155,0,0,0,.46-.758,1.96,1.96,0,0,0,.189-.7,5.878,5.878,0,0,0-.108-.812c-.081-.433-.135-.92-.217-1.489s-.162-1.055-.244-1.489c-.108-.622-.162-1.055-.217-1.3V167.8c.135-.541.3-1.028.433-1.461a.247.247,0,0,1,.135-.081.149.149,0,0,1,.135.081,1.711,1.711,0,0,1,.3.514,4.551,4.551,0,0,1,.217.65,6.856,6.856,0,0,0,.108.947c.081.487.135,1.028.189,1.6.054.622.108,1.191.189,1.678a7.35,7.35,0,0,1,.108.866,4.221,4.221,0,0,0,.406,1.083,4.767,4.767,0,0,0,.92,1.245.427.427,0,0,0,.217.135v-.217c-.244-1.488-.433-2.733-.541-3.708s-.216-1.543-.244-1.732l-.433-1.516a.293.293,0,0,1,0-.3l.514-1.6h.081l1.6,3.572v.568h-.081l-.514-.352q0-.081-.081,0,.081.853.568,4.222a7.056,7.056,0,0,0,.135,1.3,2,2,0,0,0,.514-.081,2.814,2.814,0,0,0,1.6-.947v-.081h.081a.436.436,0,0,0,.108-.189A.528.528,0,0,0,138,173.8a.072.072,0,0,0-.081-.081v-.081a.427.427,0,0,1-.135-.217c-.108-.244-.244-.568-.406-.947s-.325-.812-.46-1.245c-.244-.731-.46-1.489-.65-2.246a15.677,15.677,0,0,1-.352-1.6l-.135-.135.3-1.516v-.108c0-.027.027-.027.081-.027a.149.149,0,0,1,.135.081l1.38,2.327v.568l-.568-.433-.135.135h.081v.081a1.521,1.521,0,0,1,.135.514c.135.352.325.785.514,1.3.189.541.379,1.028.541,1.489a9.953,9.953,0,0,1,.325,1.055v.135l.081.135v.622a1.927,1.927,0,0,1-.081.622,2.063,2.063,0,0,1-.325.947,7.39,7.39,0,0,1-.812,1.137,1.809,1.809,0,0,1-1.055.622,1.878,1.878,0,0,1-.433.081c.135,1.272.325,2.463.514,3.627a.617.617,0,0,0,.081.3,12.541,12.541,0,0,0,1.164-.65,9.035,9.035,0,0,0,1.3-.65h.433a.241.241,0,0,1,.217.135.541.541,0,0,1,.081.216,13.441,13.441,0,0,0,.135,1.678q.568.934,1.3.731c-.189-1.407-.433-2.95-.731-4.655-.352-2.463-.622-4.682-.866-6.6-.244-1.732-.352-2.679-.352-2.842l-.352-.65.433-1.6a.2.2,0,0,1,.027-.135c.027-.054.054-.081.108-.081a.241.241,0,0,1,.217.135l1.461,3.572v.568l-.65-.731h-.081a.247.247,0,0,0-.081.135c.054.541.189,1.651.433,3.383s.514,3.627.812,5.71c.244,1.218.406,2.327.514,3.356a2.19,2.19,0,0,0,.731-.812,5.665,5.665,0,0,0,.947-1.894.149.149,0,0,0,.135-.081.149.149,0,0,1,.135.081,3,3,0,0,0,.622,2.084,1.1,1.1,0,0,0,1.083.325,1.437,1.437,0,0,0,.839-.65,2.841,2.841,0,0,0-.189-.622.837.837,0,0,0-.244-.325l-.081-.081v-.081l.731-1.732.081.081a.541.541,0,0,0,.081.217,1.825,1.825,0,0,1,.3.65,4.276,4.276,0,0,1,.135,1.245,4.479,4.479,0,0,1-1.6,3.058,2.806,2.806,0,0,0-.433.027,2.715,2.715,0,0,1-.65-.027,1.722,1.722,0,0,1-.7-.352,1.582,1.582,0,0,1-.406-1.028,1.036,1.036,0,0,0-.216.3,4.362,4.362,0,0,1-.731,1.245.466.466,0,0,1-.3.3,1.226,1.226,0,0,0,.081.433c.189,1.651.325,2.652.352,3.058v.135a.149.149,0,0,0,.081.135,6.86,6.86,0,0,0,.027.7c.027.271.027.541.027.839v.65a8.068,8.068,0,0,1-.217.974c-.108.352-.162.677-.217.92a.2.2,0,0,1-.217.135c-.054,0-.081-.027-.108-.081a.294.294,0,0,1-.027-.135v-1.624a10.906,10.906,0,0,0-.135-1.84c-.054-.352-.217-1.543-.514-3.627v-.135h-.433a1.4,1.4,0,0,1-1.245-.433,3.12,3.12,0,0,1-.622-1.137,8.4,8.4,0,0,1-.244-.974.247.247,0,0,0-.135-.081c-.054-.054-.108-.054-.135,0q-.65.365-1.38.731c-.189.108-.379.189-.568.3.189,1.055.325,1.813.352,2.246a16.17,16.17,0,0,1-.135,4.005,11.375,11.375,0,0,1-1.461,2.571,18.912,18.912,0,0,1-1.6,1.705,11.3,11.3,0,0,1-3.843,2.246,5.409,5.409,0,0,1-2.977.244,4.5,4.5,0,0,1-2.76-1.488,7.161,7.161,0,0,1-1.3-3.572,17.436,17.436,0,0,1,.947-6.549l.352-.3v.081H124.2a6.394,6.394,0,0,1-.135.947c-.135.677-.271,1.516-.406,2.463a11.074,11.074,0,0,0,.027,2.842,3.92,3.92,0,0,0,.839,1.949,3.554,3.554,0,0,0,1.38,1.028,9.379,9.379,0,0,0,1.38.406,4.891,4.891,0,0,0,.839.108,18.723,18.723,0,0,0,1.84-.433,10.975,10.975,0,0,0,3.058-1.516,14.7,14.7,0,0,0,3.518-3.789q-.284-2.03-.65-4.79a.983.983,0,0,1-.3.081l-.081.081h-.081v2.679c-.352,2.138-2.03,4.033-5.088,5.656a4.935,4.935,0,0,1-2.3.622,3.13,3.13,0,0,1-2.219-.758,4.154,4.154,0,0,1-1.516-2.9c0-.866.054-1.867.135-2.977a14.562,14.562,0,0,1,.352-1.461,2.343,2.343,0,0,0,.081-.352v-.217l.514-.352v.081h-.081a2.049,2.049,0,0,1-.135.514v.081a12.327,12.327,0,0,0-.325,1.678,6.745,6.745,0,0,0,.027,1.813,3.636,3.636,0,0,0,1.083,1.922,2.461,2.461,0,0,0,2.219.92,5.03,5.03,0,0,0,1.137-.135,8.456,8.456,0,0,0,2.3-1.164,11.551,11.551,0,0,0,3-3.058,1.166,1.166,0,0,0,.217-.866,1.426,1.426,0,0,0-.108-.622c-.081-.162-.217-.406-.406-.7v-.081a7.443,7.443,0,0,1-1.028.081,7.14,7.14,0,0,1-1.6-.027,1.208,1.208,0,0,1-.812-.7A2.109,2.109,0,0,1,130.75,182a5.745,5.745,0,0,1,.189-1.38,5.071,5.071,0,0,1,.514-1.407,1.119,1.119,0,0,1,1.056-.622,1.855,1.855,0,0,1,1.407.568,4.327,4.327,0,0,1,.839,1.272,3.229,3.229,0,0,1,.3.974.241.241,0,0,0,.135.217.514.514,0,0,0,.352-.135c-.189-1.489-.3-2.246-.3-2.246S135.215,178.4,135.08,177Zm-12.4-11.231a1.524,1.524,0,0,1,.108-.325c.054-.108.162-.108.352-.081a3.5,3.5,0,0,1,1.245.731,1.175,1.175,0,0,1,.352,1.3.578.578,0,0,1-.352.135h-.352a.528.528,0,0,0-.406,0,.857.857,0,0,0-.325.217,2.585,2.585,0,0,1-.568.649l-.514.514c.108.108.189.162.244.217a.437.437,0,0,0,.244.081,3.7,3.7,0,0,0,3.112-1.461,3.09,3.09,0,0,1-1.407,1.624,3.745,3.745,0,0,1-2.084.46.331.331,0,0,1-.352-.3.948.948,0,0,1,.081-.65,1.66,1.66,0,0,1,.731-.947,4.319,4.319,0,0,0,.433-.514c-.244.108-.406.081-.514-.027a.617.617,0,0,1-.108-.514,4.253,4.253,0,0,1,.108-.622v-.081l-.081-.081C122.658,166.009,122.658,165.874,122.685,165.765Zm3.248,11.827a1.085,1.085,0,0,1,.866-.758,1.443,1.443,0,0,1,.514.974,4.383,4.383,0,0,1,0,1.191,1.361,1.361,0,0,1,.541.568,1.047,1.047,0,0,1,.027.812,3.671,3.671,0,0,1-.649-.352.541.541,0,0,1-.217-.081,6.31,6.31,0,0,1-1.3,1.922,11.959,11.959,0,0,1-1.813,1.407,4.18,4.18,0,0,1-.65.514,1.036,1.036,0,0,0-.3.217,1.17,1.17,0,0,1-.731.352q1.015-1.015,2.111-1.949a18.194,18.194,0,0,0,2.463-2.544,1.036,1.036,0,0,1-.3-.216c-.189-.108-.352-.217-.514-.325a.578.578,0,0,1-.217-.46A2.592,2.592,0,0,1,125.933,177.592Zm-3.058,1.732a.977.977,0,0,1,.244-.244,1.138,1.138,0,0,1,.406.027h.081a3.151,3.151,0,0,1,.7.108,2.2,2.2,0,0,1,.839.406.262.262,0,0,1,0,.379,4.073,4.073,0,0,1-1.245,1.353,2.362,2.362,0,0,1-.866.406H122.9l-.65-.081V181.6l.081-.081c.3-.108.6-.217.92-.352a2.68,2.68,0,0,0,.7-.406c.135-.108.108-.217-.081-.244a1.394,1.394,0,0,0-.568-.135,1.453,1.453,0,0,0-.514.135c-.054.054-.108.054-.135.027-.054-.027-.081-.081-.081-.189A1.033,1.033,0,0,1,122.874,179.324Zm.216-13.018c-.054.108-.108.189-.135.244-.054.081-.027.135.081.189a1.464,1.464,0,0,0,.514.081h.081c-.054-.352-.189-.568-.433-.65A.138.138,0,0,0,123.091,166.307Zm1.38.514a6.755,6.755,0,0,0-.65-.433.677.677,0,0,1-.081.352A3.359,3.359,0,0,0,124.471,166.821Zm5.494,16.671a.807.807,0,0,1,.325.46,2.773,2.773,0,0,1-.3.947h-.081a1.132,1.132,0,0,0-.217-.325.759.759,0,0,0-.325-.217.311.311,0,0,0-.325.108,5.07,5.07,0,0,0-.568,2.192c-.108.622-.217,1.218-.352,1.732a6.059,6.059,0,0,1-.514-1.028,3.176,3.176,0,0,0-.731-1.516.149.149,0,0,0-.135.081h-.135a1.723,1.723,0,0,0-.514-.433l-.352-.135v-.622a.738.738,0,0,1,.108-.433.35.35,0,0,1,.406-.108,1.687,1.687,0,0,1,.974.731,3.439,3.439,0,0,1,.46,1.083c.135.3.3.568.433.812.054-.3.108-.568.135-.866.108-.568.217-1.137.352-1.678l.325-.568a.659.659,0,0,1,.46-.352A.632.632,0,0,1,129.965,183.492Zm-3.6-4.953c.135.081.3.162.433.244.108.054.162.108.217.135V178.7a1.576,1.576,0,0,0-.081-.514.623.623,0,0,0-.3-.352.52.52,0,0,0-.325.108,1.235,1.235,0,0,0-.325.325A.759.759,0,0,0,126.366,178.54Zm57.727,37.781a1.054,1.054,0,0,1-.406-.622h-2.679a3.562,3.562,0,0,1-.812.217,1.032,1.032,0,0,1-1.083-1.164,3.122,3.122,0,0,1,.731-1.949H132.4c-3.383,0-5.386-.893-5.954-2.679h.3v-.081h52.666c.487-.108.812-.487,1.028-1.164-.541,0-.812-.3-.866-.866.054-.568.46-.92,1.245-1.028a.927.927,0,0,1,.731.325,1.445,1.445,0,0,1,.3.974,3.5,3.5,0,0,1-.514,1.732h7.93a2.979,2.979,0,0,1,2.219.839,2.526,2.526,0,0,1,.839,1.84,3.635,3.635,0,0,1-.65,1.949,3.094,3.094,0,0,1-2.544,1.3.464.464,0,0,1-.433-.3h-2.679a1.11,1.11,0,0,1-.352.622,1.212,1.212,0,0,1-.812.244A.758.758,0,0,1,184.093,216.321Zm-55.048-48.5v-1.38a.072.072,0,0,1,.081-.081,4.611,4.611,0,0,1,1.407,2.788,4.417,4.417,0,0,1-.7,2.95h-.054a7.7,7.7,0,0,0,.108-2.571,2.009,2.009,0,0,0-.758-1.489C129.072,168.012,129.045,167.931,129.045,167.822Zm3.6,12.639a.564.564,0,0,0-.65,0,1.8,1.8,0,0,0-.406.568c-.108.244-.162.433-.217.568l2.327.081A4.234,4.234,0,0,0,132.644,180.461Zm3.3,14.912c.108,0,.135.027.135.081a4.127,4.127,0,0,1-.406,1.083.673.673,0,0,1-.758.352c-.487-.135-.622-.677-.433-1.57a5.718,5.718,0,0,1,1.813-2.788c0-.054,0-.081.027-.081a.1.1,0,0,1,.081.027c.027.027,0,.054-.027.108a8.733,8.733,0,0,0-1.137,2.084c-.108.46-.108.731.081.812A.684.684,0,0,0,135.946,195.373Zm10.907-3.058a1.757,1.757,0,0,0,.352,1.164c.244.244.758.3,1.516.135a6.215,6.215,0,0,0,2.111-1.272,30.746,30.746,0,0,0,2.355-2.111c.7-.7,1.028-1.218.974-1.57a2.755,2.755,0,0,1-.3-.866c-.189-.866-.46-1.867-.758-3a13.13,13.13,0,0,0-1.055-2.733v-2.544a3.113,3.113,0,0,1,.92,1.245,19.289,19.289,0,0,1,.839,1.894,12.212,12.212,0,0,0,.3,1.407c.135.6.3,1.245.46,1.922a16.018,16.018,0,0,1,.325,1.678,1.944,1.944,0,0,1,.135.65v.081l.135.217.081-.217.135-1.028a6.485,6.485,0,0,1,.568-1.028c.244-.352.46-.65.65-.947a9.254,9.254,0,0,1,1.137-1.083,19.745,19.745,0,0,1,1.922-1.461l-.352-.731v-1.028a.891.891,0,0,1,.216-.65,1.632,1.632,0,0,1,1.245-.568,2.921,2.921,0,0,1,1.461.352,6.812,6.812,0,0,1,.947.812.646.646,0,0,1,.135.731,2.706,2.706,0,0,1-.3.568.578.578,0,0,0-.135.352.072.072,0,0,1-.081.081h-.081v.081c-.108.054-.244.108-.46.217s-.433.189-.65.3a3.232,3.232,0,0,0-.541.3c-.108.054-.162.108-.217.135h-.081a.761.761,0,0,0,.027.217.562.562,0,0,1-.027.3,2.017,2.017,0,0,1-.189.325,1.022,1.022,0,0,1-.406.325.789.789,0,0,0,.027-.433,1.081,1.081,0,0,0-.108-.352.247.247,0,0,1-.081-.135,17.615,17.615,0,0,0-1.732,1.191,8.189,8.189,0,0,0-1.6,1.705v.081c0,.054.027.081.081.108a.294.294,0,0,0,.135.027c3.058,0,5.223-.027,6.549-.108,1.3-.081,2.084-.135,2.327-.189.108,0,.135,0,.135.027v.108a1.682,1.682,0,0,0-.325.46,3.07,3.07,0,0,1-.406.622,1.027,1.027,0,0,0-.216.433,8.854,8.854,0,0,0-2.544.622,15.033,15.033,0,0,0-2.652,1.272,9.382,9.382,0,0,0-1.57,1.083,2.143,2.143,0,0,0,.812,1.055,5.716,5.716,0,0,0,1.38.839V195.1a5.591,5.591,0,0,1-2.95-.839,9.036,9.036,0,0,1-1.705-1.407,2.878,2.878,0,0,1-.622-.974c-.162-.406-.325-.812-.433-1.164s-.244-.7-.325-.974a.266.266,0,0,0-.081-.217v-.162a4.889,4.889,0,0,1-.108.839,3.874,3.874,0,0,1-.622,1.407,16.8,16.8,0,0,1-1.489,1.732,9.954,9.954,0,0,1-2.084,1.678c-1.516.785-2.49.812-2.977.135a3.341,3.341,0,0,1-.731-2.544,13.651,13.651,0,0,1-3.41,2.192,38.032,38.032,0,0,1-5.521.514h-.216l.135-.3h.162c.135-.054.379-.108.731-.217v-.081c.487-.189,1.11-.433,1.84-.7.758-.271,1.461-.568,2.138-.866a16.044,16.044,0,0,0,1.6-.839,25.7,25.7,0,0,0,3.112-2.192c.135-.3.271-.568.352-.812.054-.3.108-.514.135-.65h.081v-.081l.135.3c-.054.108-.108.325-.217.65a.391.391,0,0,0-.081.3,1.733,1.733,0,0,1,.514-.352,22.106,22.106,0,0,0,3.275-2.842,2.841,2.841,0,0,1-.758-1.083c-.217-.487-.46-1-.7-1.57s-.433-1.028-.568-1.407a1.914,1.914,0,0,1-.135-.514V181.9l-.216-.135.216-1.949h.081l2.246,2.463.081.568-.947-.568v.6l.081.135c.054.135.135.352.244.568l.325.731c.108.244.162.433.217.568a3.535,3.535,0,0,1,.217,1.164,4.566,4.566,0,0,1-.081.947v.217a5.329,5.329,0,0,1-1.272,2.111,18.938,18.938,0,0,1-2.138,1.894q-.365.365-.812.731Zm-7.118-1.38a.247.247,0,0,1,.081.135,2.86,2.86,0,0,1-.541,1.3c-.271.352-.514.487-.758.433q-.812-.284-.568-1.949a5.633,5.633,0,0,1,2.111-3.356h.108a.1.1,0,0,1,.081.027c.027.027,0,.027-.027.027a10.093,10.093,0,0,0-1.245,2.355c-.135.568-.108.92.081,1.083a.467.467,0,0,0,.65-.027C139.654,190.908,139.681,190.881,139.735,190.935Zm6.171-25.359a.422.422,0,0,1,.217.216c.054.108.108.162.135.217a1.6,1.6,0,0,1,.46.866,1.033,1.033,0,0,1-.244.947,1.231,1.231,0,0,1-.731-.217,5.041,5.041,0,0,1-2.327,1.732,3.739,3.739,0,0,0-.731.216,2.588,2.588,0,0,1-1.028.352c.352-.189.7-.379,1.083-.568a12.476,12.476,0,0,0,1.949-1.245,1.935,1.935,0,0,0,.731-.65l-.081-.081a.721.721,0,0,1-.352-.135.638.638,0,0,1,.081-.541c.108-.162.189-.352.3-.541a3.151,3.151,0,0,0,.081-.433l.081-.135A.458.458,0,0,1,145.906,165.576Zm12.5,2.409v.568l-.65-.514-.081.217v.081c.054.108.108.244.217.433.135.379.3.839.46,1.353s.352,1,.514,1.461a9.949,9.949,0,0,1,.325,1.055v.352a1.817,1.817,0,0,1,.081.622,1.926,1.926,0,0,1-.081.622,2.833,2.833,0,0,1-.3.92,5.367,5.367,0,0,1-.758,1.164,1.846,1.846,0,0,1-1.137.622,3.2,3.2,0,0,1-1.407.081,3.442,3.442,0,0,1-.92-.352,2.892,2.892,0,0,1-.866-.974,3.806,3.806,0,0,1-.65-1.624v.271a8.182,8.182,0,0,1-.244.947,5.947,5.947,0,0,1-.46,1.055,2.022,2.022,0,0,1-.812.839,2.674,2.674,0,0,1-3.708-.433,4.922,4.922,0,0,1-.812-1.732,3.84,3.84,0,0,1-.081-1.164v-.081a3.686,3.686,0,0,1,.027-.433q.041-.365.081-.812a3.316,3.316,0,0,1,.189-.866v-.352a3.033,3.033,0,0,1,.081-.65,3.034,3.034,0,0,0,.081-.65l.081-.217c0-.054,0-.081-.027-.081h-.081q-.041,0-.081.081a.268.268,0,0,1-.189.135v.162a.267.267,0,0,0-.081.217,2.447,2.447,0,0,0-.352.7,5.026,5.026,0,0,0-.217.7v.217a5.067,5.067,0,0,0-.244,1.055c-.081.406-.135.785-.189,1.137-.054.379-.108.866-.217,1.407a7.994,7.994,0,0,1-.352,1.353,1.6,1.6,0,0,1-.514.541,1.08,1.08,0,0,1-.812.189,1.292,1.292,0,0,1-.812-.65,8.606,8.606,0,0,1-.7-2.192,13.321,13.321,0,0,1-.189-1.813v-.135c0-.3,0-.568.027-.866a6.569,6.569,0,0,1,.108-.812v-.271l.217-.3h.081v2.706a4.164,4.164,0,0,0,.325,1.272,6.219,6.219,0,0,1,.325.839.831.831,0,0,0,.7.406.769.769,0,0,0,.758-.406,8.983,8.983,0,0,0,.406-1.137,9.576,9.576,0,0,0,.325-1.624,1.014,1.014,0,0,1,.217-.514,11.764,11.764,0,0,1,.406-1.407,16.264,16.264,0,0,1,.758-1.894c.3-.6.622-.92,1.028-.92h.217v.081c0,.054,0,.244-.027.622a11.37,11.37,0,0,1-.189,1.353c-.054.622-.108,1.218-.189,1.786a9.276,9.276,0,0,0-.108,1.055,8.16,8.16,0,0,0,.027.866,4.431,4.431,0,0,0,.244.947,1.465,1.465,0,0,0,.622.758,3.5,3.5,0,0,0,.622.325,3.181,3.181,0,0,0,1.732-.081,3.35,3.35,0,0,0,1.028-1.028,1.608,1.608,0,0,0,.406-.731c.081-.3.135-.514.189-.65a2.063,2.063,0,0,0,0-.839q-.081-.609-.244-1.461a12.4,12.4,0,0,1-.244-1.57c-.108-.568-.162-1-.217-1.245a.617.617,0,0,1,.081-.3,4.294,4.294,0,0,1,.433-1.461c0-.054.054-.081.135-.081v.081a3.625,3.625,0,0,1,.3.568c.108.244.162.433.217.568a5.235,5.235,0,0,1,.135,1.028c.054.487.108,1.028.217,1.6.054.622.108,1.191.135,1.678a6.273,6.273,0,0,0,.135.866,4.357,4.357,0,0,0,.352,1.055,4.3,4.3,0,0,0,.866,1.191,2.318,2.318,0,0,0,1.84.3,2.486,2.486,0,0,0,1.624-.866v-.081a.529.529,0,0,1,.027-.189.75.75,0,0,0,.027-.244.072.072,0,0,0-.081-.081.617.617,0,0,0-.081-.3,6.691,6.691,0,0,1-.406-.92c-.162-.406-.352-.839-.541-1.272a21.081,21.081,0,0,1-.65-2.192,8.583,8.583,0,0,1-.3-1.6l-.217-.135.3-1.516c0-.108,0-.135.027-.135h.244Zm-12.07,19.161c.108.054.135.108.135.135a4.6,4.6,0,0,1-.46,1.3c-.217.379-.46.568-.758.514-.568-.244-.812-.92-.65-2.03a5.556,5.556,0,0,1,2.192-3.356c.054-.054.081-.054.081-.027a.1.1,0,0,0,.027.081c.027.027,0,.027-.027.027a7.823,7.823,0,0,0-1.191,2.355c-.108.568-.081.92.108,1.137C145.96,187.5,146.149,187.444,146.339,187.146Zm-.974-20.379a.749.749,0,0,0,.244.027c.108.054.135.108.135.135,0-.108.027-.135.081-.135v-.352a.579.579,0,0,0-.568.216A.1.1,0,0,0,145.364,166.767Zm.677-.027a.435.435,0,0,1-.081.3.149.149,0,0,1,.135.081c.054.054.108.081.135.108a.465.465,0,0,0,.216.027,1.309,1.309,0,0,0-.433-.65A.2.2,0,0,1,146.041,166.74Zm4.357,5.088h-.054a10.551,10.551,0,0,0,.081-2.571,1.806,1.806,0,0,0-.812-1.489.266.266,0,0,1-.081-.216v-1.38q.081-.081.081,0a3.671,3.671,0,0,1,1.407,2.679A5.389,5.389,0,0,1,150.4,171.828Zm3.87,23.41c.054,0,.081,0,.081.027v.108a3.059,3.059,0,0,1-.325,1.028.673.673,0,0,1-.758.352c-.487-.135-.622-.677-.433-1.57a5.718,5.718,0,0,1,1.813-2.788c.108,0,.135.027.135.081a6.966,6.966,0,0,0-1.191,2.084c-.108.46-.108.731.081.839A.631.631,0,0,0,154.268,195.238ZM156,167.687c.054.3.108.568.135.839a1.13,1.13,0,0,1-.217.839.448.448,0,0,1-.352.135.478.478,0,0,1-.244-.217,1.457,1.457,0,0,1-.189-.352.762.762,0,0,1-.189.568.514.514,0,0,1-.406.217.606.606,0,0,1-.433-.3.247.247,0,0,1-.081-.135v-.433a.881.881,0,0,0-.081-.65c0-.054,0-.081.027-.108s.027-.054.027-.108V167.9l.135-.135a.149.149,0,0,1,.081-.135.508.508,0,0,1,.081.352v.514a2.351,2.351,0,0,0-.081.352c.054.135.135.244.244.244a.374.374,0,0,0,.325-.081.286.286,0,0,0,.135-.244.65.65,0,0,0-.081-.568V167.8a.562.562,0,0,1,.135-.325.647.647,0,0,1,.189.352,2.534,2.534,0,0,0,.108.433v.135a.832.832,0,0,0,.244.433.2.2,0,0,0,.325,0,1.585,1.585,0,0,0-.135-.731.617.617,0,0,1-.081-.3.9.9,0,0,1,.217-.433A3.614,3.614,0,0,1,156,167.687Zm1.083,13.451a3.524,3.524,0,0,1,.3.947.917.917,0,0,1-.352.866.526.526,0,0,1-.433.216l-.3-.3a.956.956,0,0,1-.216-.352.827.827,0,0,1-.189.541.664.664,0,0,1-.46.3.556.556,0,0,1-.514-.244.266.266,0,0,0-.081-.217v-.514a1.314,1.314,0,0,0,0-.65v-.3l.081-.081v-.217c.054,0,.108-.054.135-.135a.559.559,0,0,1,.135.433V182c-.108.189-.108.325-.081.352q.081.284.244.325a.431.431,0,0,0,.352-.081.582.582,0,0,0,.244-.325,1.582,1.582,0,0,0-.081-.568,2.878,2.878,0,0,1-.081-.541.464.464,0,0,1,.217-.325.711.711,0,0,1,.189.406,2.781,2.781,0,0,1,.027.46.541.541,0,0,0,.081.216.767.767,0,0,0,.3.46.3.3,0,0,0,.433-.027,1.8,1.8,0,0,0-.217-.731.932.932,0,0,1-.135-.433c0-.108.108-.244.3-.433A1.264,1.264,0,0,1,157.083,181.138Zm3.139,7.632-4.953.217a3.462,3.462,0,0,0,.433,1.6,7.623,7.623,0,0,0,.974,1.461c.352.379.65.541.839.433a4.588,4.588,0,0,1,.406-1.624,3.972,3.972,0,0,1,.758-.974,6.019,6.019,0,0,1,1.028-.731c.352-.189.568-.325.65-.352h-.135Zm.027-13.721a.969.969,0,0,1,.7-.622,1.08,1.08,0,0,1,.406.812c.027.352.027.65.027.947a.684.684,0,0,1,.433.433,1.645,1.645,0,0,1,0,.731,4.334,4.334,0,0,0-.514-.3.149.149,0,0,0-.081-.135,6.578,6.578,0,0,1-1.164,1.57,10.484,10.484,0,0,1-1.461,1.137l-.514.433a.427.427,0,0,1-.217.135,1.1,1.1,0,0,1-.568.352,18.632,18.632,0,0,1,1.678-1.6,12.031,12.031,0,0,0,1.949-2.111.54.54,0,0,1-.217-.081c-.135-.108-.271-.189-.406-.3a.589.589,0,0,1-.189-.433A2.431,2.431,0,0,1,160.249,175.048ZM161.3,181.6a7.259,7.259,0,0,0-.731-.189.783.783,0,0,0-.65.135,1.621,1.621,0,0,1,.217.433,3.56,3.56,0,0,0,.216.514h.081a.427.427,0,0,1,.217-.135c.108-.054.244-.108.46-.217a3.038,3.038,0,0,1,.7-.216A1.056,1.056,0,0,0,161.3,181.6Zm-.65-15.643a1.029,1.029,0,0,1,.3-.3.749.749,0,0,1,.352-.081,3.028,3.028,0,0,1,.731.135,4.313,4.313,0,0,1,.866.433v.352a4.073,4.073,0,0,1-1.245,1.353,2.215,2.215,0,0,1-.947.406h-.081l-.568-.081c-.054,0-.081,0-.081-.027s.027-.027.081-.027v-.081c.3-.108.568-.216.866-.352a5.933,5.933,0,0,0,.65-.352c.135-.108.135-.189,0-.3a3.018,3.018,0,0,0-.622-.081,2.022,2.022,0,0,0-.541.081c-.054.054-.108.054-.135.027-.054-.027-.081-.054-.081-.108A1.445,1.445,0,0,1,160.655,165.955Zm5.169,13.288-1.028-1.3c-.541-.677-.893-1.137-1.083-1.38a10.257,10.257,0,0,1-.731-.947c-.352-.487-.7-1-1.083-1.57s-.7-1.028-.974-1.461c-.271-.406-.433-.65-.46-.7-.054-.108-.108-.189-.135-.244a.36.36,0,0,1-.081-.189c0-.054-.054-.081-.135-.081h-.081l.135-2.111a.149.149,0,0,1,.081-.135h.135l2.842,2.76a.072.072,0,0,1,.081.081v.3l-1.028-.135a.149.149,0,0,0-.135.081v.217a6.327,6.327,0,0,1,.866,1.028c.433.568.92,1.191,1.461,1.813a12.931,12.931,0,0,0,1.083,1.6c-.352-2.138-.6-3.978-.812-5.521l-.433-2.9-.217-.65.352-1.6c.054-.108.108-.135.135-.135a.241.241,0,0,1,.217.135l1.461,3.572v.514l-.65-.65v-.081a.149.149,0,0,0-.135.081c-.054.054-.054.108,0,.135.108.487.271,1.6.514,3.356.135,1.516.352,3.221.65,5.169l.433.433c.677.866,1.272,1.624,1.813,2.246a4.445,4.445,0,0,0,.65.812,6.965,6.965,0,0,1,.568.65c.244.3.514.6.812.947a4.241,4.241,0,0,1,.65.947,11.689,11.689,0,0,1,.947,1.732,8.742,8.742,0,0,1,.081,1.3v1.3a.072.072,0,0,1-.081.081.149.149,0,0,1-.135-.081,4.886,4.886,0,0,0-.352-1.461,7.1,7.1,0,0,0-1.164-2.03,8.35,8.35,0,0,1-1.191-1.353c-.514-.65-1.028-1.272-1.516-1.813a7.037,7.037,0,0,1-.92-1.137.423.423,0,0,0-.217-.217c.189,1.407.379,2.652.568,3.789.189,1.705.325,2.733.352,3.112v.217a6.385,6.385,0,0,1,.108.758c.027.271.027.541.027.812v.7c-.054.244-.108.568-.217.947s-.162.7-.216.947a.266.266,0,0,1-.217.081c-.054,0-.081,0-.108-.027s-.027-.054-.027-.108v-1.624a16.609,16.609,0,0,0-.081-1.84c-.108-.379-.3-1.6-.568-3.627-.244-1.651-.352-2.463-.352-2.463S166.1,181.219,165.825,179.243Zm-1.326,13.8a6.461,6.461,0,0,1,.352-.568.706.706,0,0,1,.568-.3,1.269,1.269,0,0,1,.352.839,1.348,1.348,0,0,1-.216.974,1.232,1.232,0,0,1-.541-.135c-.162-.108-.352-.217-.541-.352a2.9,2.9,0,0,1-.974,1.3c-.406.3-.812.568-1.191.812a4.185,4.185,0,0,1-1.6.568,6.913,6.913,0,0,1-.731.135,16.3,16.3,0,0,1,1.516-.812,10.585,10.585,0,0,0,2.544-1.732A1.475,1.475,0,0,0,164.5,193.046Zm-3.924-17.213a1.359,1.359,0,0,0,.352.135l.3.135a.54.54,0,0,1-.081-.217,1.339,1.339,0,0,1-.108-.352.39.39,0,0,0-.189-.3.451.451,0,0,0-.3.108.877.877,0,0,0-.217.244A1.033,1.033,0,0,0,160.574,175.833Zm4.547,8.5a.1.1,0,0,1,.081.027c.027.027.027.054.027.108a4.553,4.553,0,0,1-.433,1.056.676.676,0,0,1-.731.406c-.487-.189-.622-.731-.433-1.624a5.485,5.485,0,0,1,1.813-2.733h.108c.027,0,.027,0,.027.027v.108a6.224,6.224,0,0,0-1.191,2c-.108.46-.108.731.081.839.162.108.379.054.622-.135C165.094,184.358,165.094,184.331,165.121,184.331Zm.325,8.931c-.054-.189-.135-.325-.244-.352a.344.344,0,0,0-.325,0A1.863,1.863,0,0,0,165.446,193.262Zm13.532-6.982c-.108-.785-.189-1.57-.3-2.409q-.528-3.41-.974-6.982c-.325-2.382-.6-4.384-.866-5.981-.271-1.624-.433-2.517-.46-2.652l-.135-.135.352-1.949a.2.2,0,0,1,.217-.135c.054,0,.081.054.081.135l1.6,3.708-.081.568-.46-.6h-.3v.081c.108.487.271,1.759.541,3.816s.6,4.384.974,6.928c.244,1.949.487,3.708.731,5.3h.568a2.324,2.324,0,0,1,.46.46,5.757,5.757,0,0,1,.7,1.272c.135.379.271.677.352.866a4.453,4.453,0,0,0,.3.866,6.467,6.467,0,0,0,.352.568,1.1,1.1,0,0,0,.433.46,1.432,1.432,0,0,0,.812.244,4.359,4.359,0,0,0,1.028.027,4.941,4.941,0,0,0,.812-.108,1.684,1.684,0,0,0,.731-.65c.189-.3.352-.568.514-.866v-1.11a1.521,1.521,0,0,0-.081-.541c-.054-.244-.216-1.3-.46-3.194-.271-1.894-.568-4.06-.92-6.549-.108-.677-.162-1.353-.216-2.03q-.365-.447-.568-.731c-.731-.92-1.218-1.488-1.461-1.732-.541-.677-1.164-1.57-1.922-2.652s-1.326-1.949-1.7-2.571l-.135-.081.135-1.813a.149.149,0,0,1,.081-.135h.081a.072.072,0,0,1,.081.081l2.842,2.679.081.081c0,.054,0,.081-.027.108s-.054.027-.108.027H181.63v.135h.081v.081a1.863,1.863,0,0,0,.352.433c.244.352.541.731.866,1.191.352.46.677.92,1.028,1.353a9.061,9.061,0,0,0,.812.947,1.037,1.037,0,0,1,.217.3,13.82,13.82,0,0,0-.3-2.192l-.352-2.9-.217-.081.352-2.246h.216l1.6,3.843v.568l-.568-.65h-.135v.081c0,.108.054.379.135.866v.217a.391.391,0,0,1,.081.3v.3h.081v.6h.081a23.873,23.873,0,0,0,.352,2.842c.433.541.866,1.055,1.3,1.516a12.887,12.887,0,0,1,1.083,1.38q.284.284.65.731v-.3c-.352-2.382-.65-4.52-.92-6.441s-.46-3.031-.541-3.383v-.081l-.081-.135c-.054,0-.054-.054,0-.135l.3-2.03.081-.081h.081a.072.072,0,0,1,.081.081l1.6,3.708v.081c0,.135-.027.244-.108.244a.382.382,0,0,1-.244-.027l-.3-.3h-.081l1.38,10.257c.433.541.866,1.055,1.3,1.516a14.711,14.711,0,0,0,1.245,1.461,7.552,7.552,0,0,1,1.894,3.112,2.723,2.723,0,0,1,.081.731V188.8c-.108,0-.135-.027-.135-.081l-.081-.65v-.081c-.108-.352-.189-.677-.3-1.028v-.081a4.793,4.793,0,0,0-.406-.839,8.141,8.141,0,0,0-.758-.974,3.793,3.793,0,0,1-.947-.947c-.379-.487-.812-1-1.245-1.516a1.448,1.448,0,0,1-.352-.352l.352,2.463v.081a.072.072,0,0,0,.081.081,2.337,2.337,0,0,0,.027.406,2.784,2.784,0,0,1,.027.46v2.03a6.179,6.179,0,0,1-.135,1.3,4.454,4.454,0,0,1-.3.866l-.081.135-.081.081h-.108v-.6a7.1,7.1,0,0,0-.027-.731,7.347,7.347,0,0,1-.027-.758v-.433c-.054-.189-.189-1.218-.433-3.058-.135-1.11-.325-2.327-.514-3.627l-.433-.433c-.568-.677-.947-1.11-1.083-1.3a11.244,11.244,0,0,1-1.3-1.516l-.3-.3a.541.541,0,0,0,.081.217q.447,3.045.731,5.44c.189,1.6.325,2.49.352,2.679a11.3,11.3,0,0,1,.081,1.516,3.452,3.452,0,0,1-.027.541,2.782,2.782,0,0,0-.027.46.247.247,0,0,0-.081.135v.135a5.727,5.727,0,0,1-.406,1.786,5.227,5.227,0,0,1-1.055,1.84,2.132,2.132,0,0,1-1.028.7,1.68,1.68,0,0,1-.812.027h-.135a3.424,3.424,0,0,1-.568-.081,2.773,2.773,0,0,1-.947-.406,1.778,1.778,0,0,1-.731-.92,10.948,10.948,0,0,1-.622-1.272q-.244-.609-.406-1.055a1.294,1.294,0,0,1-.135-.433,1.821,1.821,0,0,0-.189-.3,3.549,3.549,0,0,0-.325-.352h-.081c.244,1.732.352,2.788.352,3.112a11.452,11.452,0,0,1,.081,2.219,12.626,12.626,0,0,1-.352,2.355c-.054,0-.081,0-.108.027s-.054.027-.108.027-.081,0-.081-.027v-1.137c0-.487,0-1-.027-1.57a6.322,6.322,0,0,0-.189-1.407c-.054-.3-.162-1.137-.352-2.544-.054-.379-.108-.758-.135-1.083a.617.617,0,0,0-.3.081,2.83,2.83,0,0,0-.866.568,15.853,15.853,0,0,0-1.732,3.41,7.723,7.723,0,0,1-.217.947,11.4,11.4,0,0,1-1.028,2.544c-.108.244-.217.487-.352.731a4.231,4.231,0,0,1-.541.731.935.935,0,0,1-.7.352,2.637,2.637,0,0,1-1.732-1.461,6.986,6.986,0,0,1-.433-1.461,6.566,6.566,0,0,1-.3-1.083,2.493,2.493,0,0,1-.65.352,13.823,13.823,0,0,1-4.357,1.245l-.081-.081v-.162a11.949,11.949,0,0,1,1.57-.839,18.451,18.451,0,0,0,2.788-1.705,2.637,2.637,0,0,1,.568-.514,9.183,9.183,0,0,1,0-1.732,10.262,10.262,0,0,1,.135-1.164l.3-.217-.081.217c0,.244-.027.622-.081,1.164a6.575,6.575,0,0,0,0,1.461,23.206,23.206,0,0,0,1.678-1.894,7.319,7.319,0,0,0,.7-1.488,2.366,2.366,0,0,0,.027-.974,4.653,4.653,0,0,0-.081-.92,4.2,4.2,0,0,1-.081-.839,12.222,12.222,0,0,1-.3-1.461l-2.246-15.616-.217-.135.352-2.192a.248.248,0,0,1,.135-.081.072.072,0,0,1,.081.081l1.6,3.789v.568l-.568-.568a.072.072,0,0,0-.081-.081c-.054,0-.081,0-.108.027s-.027.054-.027.108l2.111,14.4v1.11a17.794,17.794,0,0,1,0,2.409,8.841,8.841,0,0,1-1.083,3.572c-.3.379-.541.731-.731,1.028-.244.244-.541.514-.866.812.108.189.189.379.3.568a3.068,3.068,0,0,0,.731,1.164,1.749,1.749,0,0,0,.46.406.641.641,0,0,0,.622.027,1.5,1.5,0,0,0,.622-.46,1.972,1.972,0,0,0,.325-.622,5.381,5.381,0,0,0,.406-.812c.162-.379.352-.866.541-1.461.3-.731.568-1.38.812-2a7.119,7.119,0,0,1,.568-1.191,5.411,5.411,0,0,1,1.949-2.409Zm-11.286-20.325c.054-.135.108-.217.216-.244a1.431,1.431,0,0,1,.352-.027h.081a3.027,3.027,0,0,1,.731.135,5.636,5.636,0,0,1,.812.352.246.246,0,0,1,.081.189v.244a4.466,4.466,0,0,1-1.272,1.3,2.031,2.031,0,0,1-.974.352h-.6a.247.247,0,0,1-.081-.135h.081c.3-.135.568-.3.866-.433a5.935,5.935,0,0,0,.65-.352c.135-.108.135-.162,0-.217a1.553,1.553,0,0,0-.65-.135,1.12,1.12,0,0,0-.514.135.2.2,0,0,1-.135-.027c-.054-.027-.081-.054-.081-.108A1.3,1.3,0,0,1,167.692,165.955Zm2.192,5.873a5.072,5.072,0,0,1,.216.92,1.269,1.269,0,0,1-.216.92.817.817,0,0,1-.514.135.353.353,0,0,1-.325-.189,1.415,1.415,0,0,1-.189-.406.827.827,0,0,1-.189.541.664.664,0,0,1-.46.3.556.556,0,0,1-.514-.244v-.162a1,1,0,0,1,0-.568,2.725,2.725,0,0,0-.081-.731v-.217l.081-.081v-.135a.241.241,0,0,1,.135-.217.559.559,0,0,1,.135.433,2.061,2.061,0,0,1-.081.568,1.875,1.875,0,0,0-.081.433.436.436,0,0,0,.3.216.6.6,0,0,0,.433-.027.352.352,0,0,0,.217-.325,2.368,2.368,0,0,0-.081-.65,1.226,1.226,0,0,1-.081-.433.422.422,0,0,1,.216-.352.92.92,0,0,1,.189.406,2.2,2.2,0,0,1,.027.46.266.266,0,0,0,.081.217c0,.244.081.406.216.46a.58.58,0,0,0,.514-.027,1.8,1.8,0,0,0-.216-.731.612.612,0,0,1-.135-.406.847.847,0,0,1,.3-.46A.5.5,0,0,1,169.884,171.828Zm.92,6.468c.027,0,.054.054.108.135a9.519,9.519,0,0,1-.46,1.055.628.628,0,0,1-.7.406c-.541-.189-.7-.731-.514-1.624a5.2,5.2,0,0,1,1.894-2.733c0-.054,0-.081.027-.081s.027,0,.027.027v.108a7.315,7.315,0,0,0-1.137,2.03c-.108.487-.108.758.081.839a.693.693,0,0,0,.622-.108A.058.058,0,0,1,170.8,178.3Zm2.923-12.341a.594.594,0,0,1,.3-.244,1.927,1.927,0,0,1,.433-.027,3.73,3.73,0,0,1,.7.135,4.895,4.895,0,0,1,.839.352.436.436,0,0,1,.108.189.382.382,0,0,1-.027.244,3.6,3.6,0,0,1-1.245,1.3,2.273,2.273,0,0,1-.947.352h-.7a.247.247,0,0,1-.081-.135h.081c.3-.135.6-.3.92-.433s.541-.271.7-.352c.135-.108.108-.162-.081-.217a1.394,1.394,0,0,0-.568-.135,1.453,1.453,0,0,0-.514.135c-.054,0-.081,0-.108-.027l-.108-.108A1.1,1.1,0,0,1,173.727,165.955Zm2.03,9.987v.108a2.737,2.737,0,0,1-.433,1.272c-.244.352-.514.514-.812.46-.568-.244-.785-.92-.622-2a5.775,5.775,0,0,1,2.219-3.3c0-.054,0-.054.027-.027l.081.081c.027.027,0,.027-.027.027a10.1,10.1,0,0,0-1.245,2.355c-.135.568-.135.92.027,1.137.162.189.406.135.7-.135C175.757,175.887,175.757,175.914,175.757,175.941Zm1.11,8.687c.108,0,.135.027.135.081a3.588,3.588,0,0,1-.514,1.272c-.244.352-.487.541-.731.541-.568-.244-.812-.92-.65-2.03a5.556,5.556,0,0,1,2.192-3.356h.081v.081a7.4,7.4,0,0,0-1.191,2.409,1.657,1.657,0,0,0,.027,1.137C176.352,184.9,176.569,184.845,176.867,184.629Zm1.6,9.878c.108.054.135.108.135.135a3.589,3.589,0,0,1-.514,1.272c-.244.352-.514.514-.812.46-.568-.189-.785-.839-.622-1.922a6.1,6.1,0,0,1,2.219-3.383c0-.054,0-.054.027-.027s.027.054.027.108a7.4,7.4,0,0,0-1.191,2.409c-.108.568-.108.947.081,1.083S178.22,194.751,178.463,194.507Zm3.41-17.077a.072.072,0,0,1,.081.081,3.589,3.589,0,0,1-.514,1.272,1.032,1.032,0,0,1-.812.541q-.812-.284-.568-1.949a5.814,5.814,0,0,1,2.111-3.41c.054-.054.081-.054.108-.027a.1.1,0,0,1,.027.081v.108a6.7,6.7,0,0,0-1.191,2.327c-.108.568-.108.947.081,1.137.162.162.352.135.541-.108C181.765,177.43,181.819,177.43,181.873,177.43Zm7.443,37.4a.709.709,0,0,0,.325-.65,2.442,2.442,0,0,0-.081-.406,1.146,1.146,0,0,0-.541-.622,2.246,2.246,0,0,0-.866-.352c-.271-.054-1.434-.081-3.518-.081a17.577,17.577,0,0,0-3.275.135,2.262,2.262,0,0,0-.866,1.083.9.9,0,0,1,.866.947v.3h2.327a1.827,1.827,0,0,1,.433-.7.97.97,0,0,1,.65-.244,1.1,1.1,0,0,1,1.164.947h2.977A2.018,2.018,0,0,1,189.316,214.832ZM182.9,181.787v-1.38c0-.054,0-.081.027-.081h.108a4.1,4.1,0,0,1,1.407,2.788,4.933,4.933,0,0,1-.7,2.95h-.081a7.7,7.7,0,0,0,.108-2.571,1.892,1.892,0,0,0-.839-1.489A.528.528,0,0,1,182.9,181.787Zm1.949,32.774a.827.827,0,0,0-.541.189.532.532,0,0,0-.244.46h1.6A.767.767,0,0,0,184.85,214.562Zm.6,1.3a.422.422,0,0,0,.217-.216h-1.6a.779.779,0,0,0,.812.514A.746.746,0,0,0,185.446,215.861Zm4.709-23.031c-.244.054-.406.108-.514.135l-.352.135-.135.081q-.081.081-.731.65l-.135.135h-.135a.9.9,0,0,1,.217-.433,1.577,1.577,0,0,1,.352-.514l.135-.081q-.528,0-.568-.081c-.244,0-.379-.081-.433-.217a1.994,1.994,0,0,1,.216-1.164,1.5,1.5,0,0,1,1.083-.812.548.548,0,0,1,.65.379l-.3.65-.217-.135a.54.54,0,0,0-.216-.081h-.433c0,.054-.054.108-.135.135a.377.377,0,0,0-.135.3c.054.135.271.217.65.217l.65-.081h.352l.433-.081Zm5.088-22.977v.568l-.433-.568-.135-.081c-.054.054-.081.081-.108.081h.027l2.03,14.452v1.11c0,.731-.027,1.516-.081,2.409a7.1,7.1,0,0,1-1.028,3.491c-.3.433-.541.812-.731,1.083a15.4,15.4,0,0,1-1.949,1.6,16.082,16.082,0,0,1-4.357,1.164.149.149,0,0,1-.135-.081v-.081l.081-.081c.189-.108.7-.352,1.57-.812a19.474,19.474,0,0,0,2.761-1.786,11.958,11.958,0,0,0,2.571-2.652,7.891,7.891,0,0,0,.65-1.489,2.812,2.812,0,0,0,.135-.92c-.054-.379-.108-.7-.135-.974a7.757,7.757,0,0,1-.135-.839c-.054-.352-.108-.812-.217-1.461l-2.192-15.616-.3-.135.3-2.111c0-.054.054-.108.135-.135h.081c.054,0,.081.054.081.135Zm-4.953-3.978a.986.986,0,0,1,.325-.244,1.116,1.116,0,0,1,.325-.027h.081a2.793,2.793,0,0,1,.731.108,2.037,2.037,0,0,1,.812.46c.054,0,.081.027.108.108a.382.382,0,0,1-.027.244,5.175,5.175,0,0,1-1.272,1.353,1.917,1.917,0,0,1-.92.406h-.135l-.568-.135c-.054,0-.081,0-.081-.027s.027-.027.081-.027h.081c.3-.135.568-.271.866-.406a2.317,2.317,0,0,0,.65-.352c.135-.108.135-.217,0-.244a1.944,1.944,0,0,0-.65-.135,1.452,1.452,0,0,0-.514.135.149.149,0,0,1-.135-.081A1.152,1.152,0,0,1,190.29,165.874Zm1.543,8.417v-1.38c0-.054,0-.081.027-.081h.108a3.96,3.96,0,0,1,1.461,2.788,5.558,5.558,0,0,1-.65,2.95H192.7A10.552,10.552,0,0,0,192.78,176a1.806,1.806,0,0,0-.812-1.488A.214.214,0,0,1,191.833,174.291Z" transform="translate(-121.9 -165.344)" fill="#fff"/>
  </g>
</svg>
