<svg xmlns="http://www.w3.org/2000/svg" width="139.381" height="139.379" viewBox="0 0 139.381 139.379">
  <g id="nigeria_2_" data-name="nigeria (2)" transform="translate(-0.001)">
    <path id="Path_25598" data-name="Path 25598" d="M298.234,13.628,290.1,36.177c7.507,24.774,7.507,61.543,0,86.318l8.133,22.547a69.695,69.695,0,0,0,0-131.413Z" transform="translate(-205.308 -9.646)" fill="#518d51"/>
    <g id="Group_17306" data-name="Group 17306" transform="translate(69.5 0)">
      <path id="Path_25599" data-name="Path 25599" d="M261.668,26.535V3.986A69.545,69.545,0,0,0,238.434,0C249.18,0,234.28,36.423,261.668,26.535Z" transform="translate(-238.242 -0.004)" fill="#e4e4e4"/>
      <path id="Path_25600" data-name="Path 25600" d="M237.969,412.2a69.548,69.548,0,0,0,23.234-3.982V385.672C234.09,382.965,237.969,412.2,237.969,412.2Z" transform="translate(-237.777 -272.822)" fill="#e4e4e4"/>
    </g>
    <g id="Group_17307" data-name="Group 17307" transform="translate(0.001 3.892)">
      <path id="Path_25601" data-name="Path 25601" d="M0,79.116a69.7,69.7,0,0,0,46.729,65.8V13.32A69.7,69.7,0,0,0,0,79.116Z" transform="translate(0 -13.32)" fill="#589f58"/>
      <path id="Path_25602" data-name="Path 25602" d="M317.926,90.775v86.318C325.434,152.318,325.434,115.548,317.926,90.775Z" transform="translate(-225.001 -68.136)" fill="#589f58"/>
    </g>
    <path id="Path_25603" data-name="Path 25603" d="M206.072,112.853V26.535C201.327,10.872,193.583,0,182.837,0A69.532,69.532,0,0,0,159.876,3.9v131.6a69.539,69.539,0,0,0,22.961,3.89C193.583,139.383,201.327,128.514,206.072,112.853Z" transform="translate(-113.146 -0.004)" fill="#f3f4f5"/>
  </g>
</svg>
