<svg xmlns="http://www.w3.org/2000/svg" width="139.38" height="139.379" viewBox="0 0 139.38 139.379">
  <g id="united-arab-emirates" transform="translate(0)">
    <ellipse id="Ellipse_1151" data-name="Ellipse 1151" cx="69.687" cy="69.687" rx="69.687" ry="69.687" transform="translate(0.006 0.005)" fill="#fff"/>
    <path id="Path_25618" data-name="Path 25618" d="M357.156,157.873H314.218a192.682,192.682,0,0,1,.036,46.2h42.993a69.753,69.753,0,0,0-.091-46.2Z" transform="translate(-221.759 -111.419)" fill="#efecec"/>
    <path id="Path_25619" data-name="Path 25619" d="M274.616,47.14h42.937a.5.5,0,0,0-.022-.061A69.733,69.733,0,0,0,258.105.972C268.773,6.819,271.889,25.345,274.616,47.14Z" transform="translate(-182.158 -0.686)" fill="#429945"/>
    <path id="Path_25620" data-name="Path 25620" d="M258.113,361.309a69.735,69.735,0,0,0,59.473-46.243c.023-.067.043-.133.067-.2H274.659C271.953,336.781,268.824,355.437,258.113,361.309Z" transform="translate(-182.163 -222.219)" fill="#0b0b0b"/>
    <path id="Path_25621" data-name="Path 25621" d="M0,181.108a69.587,69.587,0,0,0,3.89,22.959H96.081a192.7,192.7,0,0,0-.034-46.2H3.982A69.547,69.547,0,0,0,0,181.108Z" transform="translate(0 -111.419)" fill="#efefef"/>
    <path id="Path_25622" data-name="Path 25622" d="M13.555,46.394c-.006.02-.013.039-.022.061H105.6C102.869,24.66,96.166,6.134,85.5.287,83.436.1,81.35,0,79.239,0A69.7,69.7,0,0,0,13.555,46.394Z" transform="translate(-9.551 -0.001)" fill="#49a948"/>
    <path id="Path_25623" data-name="Path 25623" d="M105.411,314.867H13.219c.023.065.045.131.067.2A69.708,69.708,0,0,0,79.018,361.6c2.111,0,4.2-.1,6.26-.288C95.99,355.436,102.7,336.78,105.411,314.867Z" transform="translate(-9.329 -222.218)" fill="#151515"/>
    <path id="Path_25624" data-name="Path 25624" d="M0,82.463a69.705,69.705,0,0,0,42.946,64.362V18.1A69.7,69.7,0,0,0,0,82.463Z" transform="translate(0 -12.774)" fill="#e73b36"/>
  </g>
</svg>
